/* XPM */
static char *ee750f6aef954f6edfbae39642dd1caaoHyyH3soguPkPWhA[] = {
/* columns rows colors chars-per-pixel */
"80 80 80 1 ",
"  c None",
". c #865A2D",
"X c #875B2E",
"o c #885B2E",
"O c #8F5F31",
"+ c #8F6030",
"@ c #906031",
"# c #906131",
"$ c #916131",
"% c #906032",
"& c #916132",
"* c #926232",
"= c #936332",
"- c #956333",
"; c #986634",
": c #9B6834",
"> c #9C6935",
", c #9D6936",
"< c #9D6937",
"1 c #9D6A36",
"2 c #9D6A37",
"3 c #9F6B36",
"4 c #9E6A37",
"5 c #A16C38",
"6 c #A16D38",
"7 c #A36E38",
"8 c #A36E39",
"9 c #A46F39",
"0 c #A56F39",
"q c #A57039",
"w c #A6703A",
"e c #A8713A",
"r c #A8723B",
"t c #A9723B",
"y c #A9733B",
"u c #AA723B",
"i c #A9723C",
"p c #A9733C",
"a c #AA733C",
"s c #AB733C",
"d c #AB743C",
"f c #AC743C",
"g c #AD753C",
"h c #AD753D",
"j c #AE753D",
"k c #AE763C",
"l c #AE763D",
"z c #AF763D",
"x c #B0763D",
"c c #B0773D",
"v c #B0773E",
"b c #B1773E",
"n c #B1783E",
"m c #B2783E",
"M c #B3783E",
"N c #B2793E",
"B c #B3793E",
"V c #B3793F",
"C c #B4793F",
"Z c #B47A3F",
"A c #B57A3F",
"S c #B67B3F",
"D c #B77C3F",
"F c #B77B40",
"G c #B77C40",
"H c #B87C40",
"J c #B87D40",
"K c #B97D40",
"L c #B97E40",
"P c #BA7E41",
"I c #BB7E41",
"U c #BB7F41",
"Y c #BC7F41",
"T c #BC7F42",
"R c #BB8041",
"E c #BC8040",
"W c #BC8041",
"Q c #BD8041",
"! c #BD8042",
"~ c #BE8042",
/* pixels */
"      WYWWWW~~~~W~~!!!!!!!!!~!!!!!!!!!!!W~~!!!!!!!!!~!!!!!!!!!!!RRR!!!GRRR      ",
"    WYWWWWWW~~!~WP~!!!!!!!!!~W!!!!!!!!!!WP~!!!!!!!!!~W!!!!!!!!!!RGRR!!GFRR!!    ",
"   WWYDCCCVVFFFFFVVFFFFFFFFFFxVVFFFFFFFFFVVFFFFFFFFFFxVVFFFFFFFFFFFFFFFFFFTT!!  ",
"  WYPCxjjeeawwwweawewwwwwwwweaeawwwwwwwweawewwwwwwwweaeawwwwwwwwpp6wF68FFFFP!~  ",
" WYHxaaaaaaawpppaaaaaaaapppppppjaappwpppjaaaaaaapppppppjaappwppppppppp962FF2FG! ",
"WWPCaaaawaaappjpjpaaaaaapppppjppajppppppppaaaaaapppppjppajppppppp6F6F6FFF22FFG! ",
"YWHjaaeappaappppppppaaaappppppppaappjpppppppaaaappppppppaappjppppFpp6pF922F8FFGR",
"WWFfaea08444444444411113<<22444444<4422244411133<<22444444<44222222222222F2F8FRR",
"WWFaaea8-+%%%%%$$$$$$$$$$$$$$$$$+++&O&O%%%%%%%%$$%%%%%%%+++&O&O%%%%%%%%&;6ppFF!!",
"WPVeaaa4%&%%=%%%=%%%%%%%%%%%%%%=&&&&&&&&%%%%=%%%%%%=%%%&&&&&&&&&&&&&&&&%2Fpp2F!!",
"WWVeaaa1%%%%=%=%=%%%%%==%==%%%%%&&&&&&&&%%%==%%%=%%%%%&&&&&&&&&&&&&&&&&%<FF68F!!",
"~~Vaaaa1%%%=%%=%%%==%%%%%%%%=%=%&&&&&&&&==%%%%===%=%%=&&&&&&&&&&&&&&&&&%;66F8F!R",
"~~Fwaaa1$==%%%=%=%%%%%%===%%%=%%&&&&&&&&%%=%%=%%%%%=&&&&&&&&&&&&&&&&%%%%22F28FTR",
"~~Faaaa1$%%%=%=%%%=%==%%%%%=%=%=&&&&&&&&%=%%%%=%%=%%&&&&&&&&&&&&&&&&%%%%2F2F6FTT",
"!!Fqaaa1$%%=%=%%%=%=%%=%%%%=%%=%&&&&&&&&%%====%%=%=%&&&&&&&&&&&&&&&&%%%%-FF86F!!",
"!PFwaaa1$%%=%%%=%=%%%=%%==%%=%%%&&&&&&&&=%%%%%%=%%=%&&&&&&&&&&&&&&&%%%%%2piiFF!!",
"!!Fwwpp2$%%%%=%%=%%=%%%==%%%=%%=%%%=%==%%==%=%%%%%=%=%%%=%%=%%%=&&&&&&&%29pFwFGR",
"!!Fwppp2$%%=%%=%=%%=%=%%%%=%=%%===%%%%%%%%%%%%===%=%%%=%=%%=%=%%&&&&&&&%2F966FRR",
"!!Fwpjp2$%%===%%%%%%=%=%%=%=%%%%%%=%=%%==%%=%=%%%=%%%=%=%%%%=%=%&&&&&&&%26F66F!!",
"!!Fwppp2%=%%%%%=%==%%%=%%=%%%==%%=%%=%%==%%=%%=%%%%=%=%%%==%%%=%&&&&&&&%2FppFF!!",
"!!Fapaa4%=%%%%%=%==%%%=%%=%%%==%%%=%=%%%%%%=%=%%=%%=%%=%%==%%%=%&&&&&&&%2pF6pFRR",
"!!xwpja4%%%===%%%%%%=%=%%=%=%%%%=%=%%%=%%=%%%=%==%%=%=%%%%%%=%=%&&&&&&&%2ppp6FRR",
"!!Fwppa<%%%=%%=%=%%=%=%%%%=%=%%=%=%%%=%==%=%%%=%%%%%%%===%%=%=%%&&&&&&&%2pFppFRR",
"!!Fappp<%=%%%=%%=%%=%%%==%%%=%%=%%%=%=%%%%=%=%%%%==%=%%%=%%=%%%=&&&&&&&%2p6p8GRR",
"!!Fwaaa4O&&&%%==%%%=%=%%%%=%=%%%=%%=%%%==%%%=%%=%%%=%==%%%=%%%=%&&&&&&&%2iF2FF!!",
"!!Fwaja4+&&&=%%%%=%%%=%==%=%%%=%=%%=%=%%%%=%=%%===%%%%%%%=%%=%=%&&&&&&&%2i8F2F!!",
"!!Fwppp4+&&&=%%%=%=%%%=%%=%%%=%=%%%%=%=%%=%=%%%%%%=%=%%=%%==%=%%&&&&&&&%2FF28F!!",
"!!Fwppp4&&&&%%==%%=%=%%%%%%=%=%%%==%%%=%%=%%%==%%=%%=%%==%%%%%%=&&&&&&&%222F8F!R",
"!!Fwwpp4O&=%%=%%%=%%=%%==%%=%%=%%==%%%=%%=%%%==%%%=%=%%%%%%===%%&&&&%%%%28ii8FTR",
"!!Fwppj2%&%%%%=%%%=%=%%==%%=%=%%%%%%=%=%%=%=%%%%=%=%%%=%==%%%%%=&&&&%%%%2Fpp6FTT",
"!!Fwppp2%%%===%%==%%%%%%%%%%%%===%%=%=%%%%=%=%%=%=%%%=%=%%=%%%%=&&&&%%%%<8pp6F!!",
"!!Fqppp2%%%%%%%=%%%=%==%%==%=%%%=%%=%%%==%%%=%%=%%%=%=%%%=%%==%%&&&&%%%%<F2FFF!!",
"RRFp6Fp2%&&&&&&&&&&&&&&&&&&&&&&&%%=%%%=%&&&&&&&&&&&&&&&&&&&&&&&&*%*%*%*+29F6wFGR",
"RGFpppp2%&&&&&&&&&&&&&&&&&&&&&&&%=%%=%=%&&&&&&&&&&&&&&&&&&&&&&&&%*%*%**%2FF96FRR",
"RRF6ppF=%&&&&&&&&&&&&&&&&&&&&&&&%%==%=%%&&&&&&&&&&&&&&&&&&&&&&&&*%*%*%*+2p6F6F!!",
"RRF6Fpp2%&&&&&&&&&&&&&&&&&&&&&&&=%%%%%%=&&&&&&&&&&&&&&&&&&&&&&&&%*%*%*%%2pp6FF!R",
"R!FF69F2+&&&&&&&&&&&&&&&&&&&&&&&%%%===%%&&&&&&&&&&&&&&&&&&&&&&&&*%*%%%%%2FppwFRR",
"R!F6F662%&&&&&&&&&&&&&&&&&&&&&&&==%%%%%=&&&&&&&&&&&&&&&&&&&&&&&&%*%*%%%%;6p66FRR",
"RRF69FF2+&&&%%%%&&&&&&&&&&&&&&&&%%=%%%%=&&&&&&&&&&&&&&&&&&&&&&&&*%*%%%%%26pFFFGR",
"!GFw6F92%&&&%%%%&&&&&&&&&&&&&&&&%=%%==%%&&&&&&&&&&&&&&&&&&&&&&&&%*%*%*%%2Fpp6FRR",
"!!F6FpF%%%%%%%%%&&++%%*%&&&&&&&&%%%=&&&&&%%%&&&&=%%%%%%%&&%%%=%%%%%%%%%%-FF2FF!!",
"!!F86pF2%%%%%%%%&+OO+++%+++&&+++$$$$+++%%%%%+++%%%%%%%%+%%%%%%$%%%%%%%%%2i8F2F!!",
"!!F6pp62<<22222*4<<;2;22<<4444<<1111<<442233<<443144331444441133;2222<<<2FF28F!!",
"!!FFFp6Fppp6F6pFF8wFF2FFaaaaaaaapaaaaaaappppaaaappppppaapppppaaa6FppFwppF22F8F!R",
"RGF662F26ppFp6p6ppw68F68pppjaaaapjjaaaaajppjaaaapppjaaaaaappppjappFpp8Fp8pii6FFR",
"RGFF8F2FFppppFpFF6FFF66Fppppaaaaaappaaaappppaaaajeaaaaaaajppppaapp6ppF2piippFFGR",
"RRGFF2ip6ww6wp266w68628F8wwwaawweeaeewaeeeaeewaeaweeeaaweeeaawee2pp2pp2pp2pFFG!!",
"!RGGFFFFFFFFFFFFFFFFFFFFFFFFxFFFVVVVFVVVFVVVFVVVVVVFVVVVVFVVVVVFFFFFFFFFFFFFTR!R",
"!!TGGRRR!!GGRRR!WWWWWWYYWT~~WWWYWWWWWW~W~WWWWW~WWWW~WWWT~~YWW~~~RRRR!!GRRRRTFFGR",
"!!FFFGGGTRFFRTTTPPYPPYPPYPPPPPYPYPYPYPWDPPPPYPWDPPPPPPYYPPPPPPPPGGGGTRFFGTFFFFGR",
"GGF2F2pFF2FF8FF8agjpjaffjajajajaffjpjew65epjjjgaajjpjpajjjajajpjwF6FF8FF6FF82F!!",
"RFFF6F2p8F6pF86Faeaeaaeaeeaaaeeaaaaeejw::0aaeeaeeeaaeaeeawaeewaa6Fww8F6886FwFF!!",
"RRF2F2ppF2pp62F2aaaaaaaaaaaaaaaaaaaaaaw:10aaaaaapjaaaaaaaaaapaaappp6ppFpF6pF6F!!",
"!!Fp8Fpp8Fpp8F2Faaaaaaaaaaaaaaaaaaaaaaw::0aaaaaaaaaaaaaaaaaapjaa6FpFpp6pFp6F6F!R",
"!!F2i2FiiiiiFiF2aaaaaaaaaaaaaaaaaaaaaaw1:waaaaaaaaaaaaaaaaaaaaaa6wFpF6pp6pp88FGR",
"!!FFiF8ipp8F2i8Faaaaaaaaaaaaaaaaaaaaaeq:1waaaaaaaaaaaaaaaaaaaaaaFw6ppp6FppF6pFGR",
"RRGpppppppF8ipppaaaaaaaaaaaaaaaaaaaaaa0:>qaaaaaaaaaaaaaaaaaaaaaappFF6pppFpp6FF!!",
"RRG6p6Fp2F2Fip2Faaaaaaaaaaaaaaaaaaaaaa01>qaaaaaaaaaaaaaaaaaaaaaapp69Fppp6ppF6F!!",
"RRF2pF6pFippppF8aaaaaaaaaaaaaapjaaaaaa0:>qaaaaaaaaaaaaaaaaaaaaaaF66F66p6pppp8FR!",
"RRFF96F68ippppiiaaaaaaaaaaaaaappaaaaaaw11waaaaaaaaaaaaaaaaaaaaaappp69FpFpp6F6FRR",
"RGF6F6pF6FpppF8paaeaeaeaeeaeaeaeeaeaapw1:qaeaeaeeaeaeaeaaeaeepepF69F6F6F8F8FFFGG",
"FF6%==##&&%%%%%%====================%==o$%==================%===&&&&%%%%%%%X%6Fw",
"F8;XXXX+XX%XX%XXooXXoXXXXXoXXXXXXXoooooooXXXXXXXXXXXXXXXXXXXoooo+XX+XX%XXXXXX%6F",
"9F6%&&&&&&&%%==%==%++======================================$%%==*&%**%*****%%;FF",
"RRF68wF6pppppp2F2F2%;9F69F9pp9F68ppppppppp8Fpppppp68F2F66992;99F2F69pp9pwF666F!R",
"RRF8F8FwiippppF2F2p2299F966FF6pp8FF22FppppF6pipp6FF82FppF692296F96FpF66FppwFwF!R",
"R!F66F6wF8iiFF2Fp6w<26F9F6pp6Fppppi8F2FpF26piippppF6F2pp9F9;;qF2F69pppppppppwFGR",
"!!FFpw6Fpppi68F2FF6<26666Fpppw6FpiiF2F8p2Fpp8Fpipp2F2F2F9F922q9F6FF6p6Fp6FpppFGR",
"RRFwpwF6F2F8i8pp6w62286Fp6pppF6wiiipFpiiF2iiipiii8ppF2F26p62<6w6ppFwppppwF66FF!!",
"RGFwF6pp2F2FiFpi6Fp;29F9pFpppp6F8Fpp8ppi2F8Fpp8FiFpi2F2FF692;2FFpp66F6Fp6FwF2F!!",
"R!Fwppppppp8ipiipp6<29F6ppF6ppwFF2FpppF8F2F2FiipipiippF89F82266wF6pF6F6w6wF68F!!",
"!!Fwpp6FpppFpp8Fppw<;99F6Fw6Fpp62F2ppppp2F2F8ipppp8Fpiii9F9229Fwpppppw6FFw6F8F!R",
"R!FFF2F2FF6F2F8iF8822pFipp2F2F2FF8iippip86FpFpFwFiipiiiF2i8228F6p6ppF2F2F88FFFFP",
"R!FF2F2F6886F2ii6F92<82ippF8F2i82Fii8FiiFF2p6p668ipp8FiiF882;wwFpFpp2F2F2F88FFFG",
"RGFFF2F2FpF62F86ppp;<6F8Fpp6ppiiiiF2ipp82FppppwFppF8F2F2p6822wppFpF6F2pppppFFF!!",
" GFFwF2F66FwF2FFpp6<262F6ppFpp8F8F2FiipFF26Fpp6Fpppp2F2FpF6<%2F66ppp2FppF8ipT!! ",
"  !!PFF2wwF28FF29w6;-pp2F22Fp2F2F2p2F82F28ppF2w8ppF2p8F2pp2;<6wF8FF68FF62FFGTR  ",
"  !!PFFFFFFFFFFFGFF82FFFFFFFFFFFFFFFFFFFFFFFFFFFFFFFFFFFFFF22FFFFFFFFFFFFFG!RT  ",
"   !T!!!RRRRFRR!RRGF8F!!FG!!!RGR!!RRFG!!!!GG!!RRGRR!GRR!GRGpFFRRFGR!FGR!GR!!!   ",
"     !T!RRRRFGRRRRG6FG!!RR!!!RRR!!!RRG!!!RRR!!!RGR!!TR!!RRGF6FRRFGRRFGRRGGR     "
};
