/* XPM */
static char *result[] = {
/* columns rows colors chars-per-pixel */
"80 80 120 2 ",
"   c #C33F31",
".  c #C43F31",
"X  c #C53F31",
"o  c #C63F31",
"O  c #CE3F30",
"+  c #C74031",
"@  c #C54032",
"#  c #C64032",
"$  c #CB4233",
"%  c #CF4030",
"&  c #CE4132",
"*  c #CC4233",
"=  c #CD4233",
"-  c #CD4333",
";  c #CA4334",
":  c #CC4234",
">  c #CC4334",
",  c #CD4334",
"<  c #CE4334",
"1  c #CF4334",
"2  c #CB4435",
"3  c #D04030",
"4  c #D54232",
"5  c #D04334",
"6  c #D24435",
"7  c #D54535",
"8  c #D64536",
"9  c #D64537",
"0  c #D74636",
"q  c #D64637",
"w  c #D74637",
"e  c #D84637",
"r  c #DB4737",
"t  c #DB4738",
"y  c #DE4939",
"u  c #E04939",
"i  c #E24A3A",
"p  c #E44A3A",
"a  c #E54A3A",
"s  c #E64A3A",
"d  c #E64B3B",
"f  c #E74B3B",
"g  c #E44B3C",
"h  c #E64C3C",
"j  c #E74C3C",
"k  c #E94838",
"l  c #E84B3B",
"z  c #E94C3B",
"x  c #E84C3C",
"c  c #E94C3C",
"v  c #EA4C3C",
"b  c #EB4C3C",
"n  c #EC4C3C",
"m  c #EC4D3C",
"M  c #ED4D3C",
"N  c #EC4D3D",
"B  c #EE4D3D",
"V  c #EE4E3D",
"C  c #EF4E3D",
"Z  c #F04E3E",
"A  c #F14E3E",
"S  c #F24F3E",
"D  c #F34F3E",
"F  c #F24F3F",
"G  c #F34F3F",
"H  c #F44F3E",
"J  c #F44F3F",
"K  c #F54F3F",
"L  c #F5503F",
"P  c #F7503F",
"I  c #FF513F",
"U  c #B2574D",
"Y  c #B3574D",
"T  c #BC574C",
"R  c #B2584E",
"E  c #B3584E",
"W  c #B2594F",
"Q  c #9C7B77",
"!  c #9D7B77",
"~  c #997E7A",
"^  c #C55D53",
"/  c #EF594A",
"(  c #F75040",
")  c #F65343",
"_  c #F85040",
"`  c #F95040",
"'  c #F85140",
"]  c #F95140",
"[  c #FA5140",
"{  c #FB5141",
"}  c #FC5241",
"|  c #FD5241",
" . c #FF5240",
".. c #FE5241",
"X. c #FF5241",
"o. c #FE5341",
"O. c #FF5341",
"+. c #FD5343",
"@. c #FF5242",
"#. c #FE5342",
"$. c #FF5342",
"%. c #FE5443",
"&. c #D76358",
"*. c #97807C",
"=. c #97807D",
"-. c #96807E",
";. c #758B8D",
":. c #768B8D",
">. c #738C8E",
",. c #6A8F92",
"<. c #6B8F93",
"1. c #7D9597",
"2. c #73989B",
"3. c #7E9DA0",
"4. c #7C9FA2",
"5. c #7BA0A3",
"6. c #7CA0A3",
"7. c #858484",
"8. c #8F8685",
"9. c None",
/* pixels */
"9.9.9.9.9.9.X.O. .X.X.$.$.$.$.$.$.$.$.$.$.$.$.$.$.$.$.$.$.$.$.$.$.$.$.$.$.$.$.$.$.$.$.$.$.$.$.$.$.$.$.$.$.$.$.$.$.$.$.$.$.$.$.$.$.$.$.$.$.X.X. .O.O.9.9.9.9.9.9.",
"9.9.9.9.X.X.$.$.O.X.$.$.$.$.$.$.$.$.$.$.$.$.$.$.$.$.$.$.$.$.$.$.$.$.$.$.$.$.$.$.$.$.$.$.$.$.$.$.$.$.$.$.$.$.$.$.$.$.$.$.$.$.$.$.$.$.$.$.$.$.X.O.$.$.O.X.9.9.9.9.",
"9.9.9.X...} ] P K G G F G G G G G G G G G G G G G G G G G G G G G G G G G G G G G G G G G G G G G G G G G G G G G G G G G G G G G G G G F G G K P ] { #.@.X.9.9.",
"9.9.@.| [ J C m c d d d d d d d d d d d d d d d d d d d d d d d d d d d d d d d d d d d d d d d d d d d d d d d d d d d d d d d d d d d d d d c m V S ' | X.9.9.",
"9.@.$.] B x j j j j j j j j j j j j j j j j j j j j j j j j j j j j j j j j j j j j j j j j j j j j j j j j j j j j j j j j j j j j j j j j j j j j j v _ X.X.9.",
"X.@.{ D x j d d d h j j j j j j j j j j j j j j j j j j j j j j j j j j j j j j j j j j j j j j j j j j j j j j j j j j j j j j j j j j j j h d d d d j Z [ O.9.",
"X.O.( N d d d j j j j j j j j j j j j j j j j j j j j j j j j j j j j j j j j j j j j j j j j j j j j j j j j j j j j j j j j j j j j j j j j j j d d j n P $.O.",
" .O.L c j d j i t q 8 q q q q q q q q q q q q q q q q q q q q q q q q q q q q q q q q q q q q q q q q q q q q q q q q q q q q q q q q q q 9 q e u j h j x J $.X.",
"X.X.J x j d j t * X . X X X X X X X X X X X X X X X X X X X X X X X X X X X X X X X X X X X X X X X X X X X X X X X X X X X X X X X X X X X X + e j j j d G O.X.",
"X.$.G d j j j w o # @ # # # # # # # # # # # # # # # # # # # # # # # # # # # # # # # # # # # # # # # # # # # # # # # # # # # # # # # # # # # # X q j j j d G $.X.",
"$.$.S d j j j 8 X # # # # # # # # # # # # # # # # # # # # # # # # # # # # # # # # # # # # # # # # # # # # # # # # # # # # # # # # # # # # # # . 8 j j j d F $.$.",
"$.$.G d j j j q . # # # # # # # # # # # # # # # # # # # # # # # # # # # # # # # # # # # # # # # # # # # # # # # # # # # # # # # # # # # # # # X q j j j d G $.$.",
"$.$.G d j j j q X # # # # # # # # # # # # # # # # # # # # # # # # # # # # # # # # # # # # # # # # # # # # # # # # # # # # # # # # # # # # # # X q j j j d G $.$.",
"$.$.G d j j j q X # # # # # # # # # # # # # # # # # # # # # # # # # # # # # # # # # # # # # # # # # # # # # # # # # # # # # # # # # # # # # # X q j j j d G $.$.",
"$.$.G d j j j q X # # # # # # # # # # # # # # # # # # # # # # # # # # # # # # # # # # # # # # # # # # # # # # # # # # # # # # # # # # # # # # X q j j j d G $.$.",
"$.$.G d j j j q X # # # # # # # # # # # # # # # # # # # # # # # # # # # # # # # # # # # # # # # # # # # # # # # # # # # # # # # # # # # # # # X q j j j d G $.$.",
"$.$.G d j j j q X # # # # # # # # # # # # # # # # # # # # # # # # # # # # # # # # # # # # # # # # # # # # # # # # # # # # # # # # # # # # # # X q j j j d G $.$.",
"$.$.G d j j j q X # # # # # # # # # # # # # # # # # # # # # # # # # # # # # # # # # # # # # # # # # # # # # # # # # # # # # # # # # # # # # # X q j j j d G $.$.",
"$.$.G d j j j q X # # # # # # # # # # # # # # # # # # # # # # # # # # # # # # # # # # # # # # # # # # # # # # # # # # # # # # # # # # # # # # X q j j j d G $.$.",
"$.$.G d j j j q X # # # # # # # # # # # # # # # # # # # # # # # # # # # # # # # # # # # # # # # # # # # # # # # # # # # # # # # # # # # # # # X q j j j d G $.$.",
"$.$.G d j j j q X # # # # # # # # # # # # # # # # # # # # # # # # # # # # # # # # # # # # # # # # # # # # # # # # # # # # # # # # # # # # # # X q j j j d G $.$.",
"$.$.G d j j j q X # # # # # # # # # # # # # # # # # # # # # # # # # # # # # # # # # # # # # # # # # # # # # # # # # # # # # # # # # # # # # # X q j j j d G $.$.",
"$.$.G d j j j q X # # # # # # # # # # # # # # # # # # # # # # # # # # # # # # # # # # # # # # # # # # # # # # # # # # # # # # # # # # # # # # X q j j j d G $.$.",
"$.$.G d j j j q X # # # # # # # # # # # # # # # # # # # # # # # # # # # # # # # # # # # # # # # # # # # # # # # # # # # # # # # # # # # # # # X q j j j d G $.$.",
"$.$.G d j j j q X # # # # # # # # # # # # # # # # # # # # # # # # # # # # # # # # # # # # # # # # # # # # # # # # # # # # # # # # # # # # # # X q j j j d G $.$.",
"$.$.G d j j j q X # # # # # # # # # # # # # # # # # # # # # # # # # # # # # # # # # # # # # # # # # # # # # # # # # # # # # # # # # # # # # # X q j j j d G $.$.",
"$.$.G d j j j q X # # # # # # # # # # # # # # # # # # # # # # # # # # # # # # # # # # # # # # # # # # # # # # # # # # # # # # # # # # # # # # X q j j j d G $.$.",
"$.$.G d j j j q X # # # # # # # # # # # # # # # # # # # # # # # # # # # # # # # # # # # # # # # # # # # # # # # # # # # # # # # # # # # # # # X q j j j d G $.$.",
"$.$.G d j j j q X # # # # # # # # # # # # # # # # # # # # # # # # # # # # # # # # # # # # # # # # # # # # # # # # # # # # # # # # # # # # # # X q j j j d G $.$.",
"$.$.G d j j j q X # # # # # # # # # # # # # # # # # # # # # # # # # # # # # # # # # # # # # # # # # # # # # # # # # # # # # # # # # # # # # # X q j j j d G $.$.",
"$.$.G d j j j q X # # # # # # # # # # # # # # # # # # # # # # # # # # # # # # # # # # # # # # # # # # # # # # # # # # # # # # # # # # # # # # X q j j j d G $.$.",
"$.$.G d j j j q X # # # # # # # # # # # # # # # # # # # # # # # # # # # # # # # # # # # # # # # # # # # # # # # # # # # # # # # # # # # # # # X q j j j d G $.$.",
"$.$.G d j j j q X # # # # # # # # # # # # # # # # # # # # # # # # # # # # # # # # # # # # # # # # # # # # # # # # # # # # # # # # # # # # # # X q j j j d G $.$.",
"$.$.G d j j j q X # # # # # # # # # # # # # # # # # # # # # # # # # # # # # # # # # # # # # # # # # # # # # # # # # # # # # # # # # # # # # # X q j j j d G $.$.",
"$.$.G d j j j q X # # # # # # # # # # # # # # # # # # # # # # # # # # # # # # # # # # # # # # # # # # # # # # # # # # # # # # # # # # # # # # X q j j j d G $.$.",
"$.$.G d j j j q X # # # # # # # # # # # # # # # # # # # # # # # # # # # # # # # # # # # # # # # # # # # # # # # # # # # # # # # # # # # # # # X q j j j d G $.$.",
"$.$.G d j j j q X # # # # # # # # # # # # # # # # # # # # # # # # # # # # # # # # # # # # # # # # # # # # # # # # # # # # # # # # # # # # # # X q j j j d G $.$.",
"$.$.G d j j j q X # # # # # # # # # # # # # # # # # # # # # # # # # # # # # # # # # # # # # # # # # # # # # # # # # # # # # # # # # # # # # # X q j j j d G $.$.",
"$.$.G d j j j q X # # # # # # # # # # # # # # # # # # # # # # # # # # # # # # # # # # # # # # # # # # # # # # # # # # # # # # # # # # # # # # X q j j j d G $.$.",
"$.$.G d j j j q X # # # # # # # # # # # # # # # # # # # # # # # # # # # # # # # # # # # # # # # # # # # # # # # # # # # # # # # # # # # # # # X q j j j d G $.$.",
"$.$.G d j j j q X # # # # # # # # # # # # # # # # # # # # # # # # # # # # # # # # # # # # # # # # # # # # # # # # # # # # # # # # # # # # # # X q j j j d G $.$.",
"$.$.G d j j x 8   X X X X X X X X X X X X X X X X X X X X X X X X X X X X X X X X X X X X X X X X X X X X X X X X X X X X X X X X X X X X X X   8 x j j d G $.$.",
"$.$.G d j j j y 8 q q q q q q q q q q q q q q q q q q q q q q q q q q q q q q q q q q q q q q q q q q q q q q q q q q q q q q q q q q q q q q 8 y j j j d G $.$.",
"$.$.G d j j d j x j j j j j j j j j j j j j j j j j j j j j j j j j j j j j j j j j j j j j j j j j j j j j j j j j j j j j j j j j j j j j j x j d j j d G $.$.",
"$.$.S d d h j j j j j j j j j j j j j j j j j j j j j j j j j j j j j j j j j j j j j j j j j j j j j j j j j j j j j j j j j j j j j j j j j j j j h d d S $.$.",
"$.$.G d j j j j j j j j j j j j j j j j j j j j j j j j j j j j j j j j j j j j j j j j j j j j j j j j j j j j j j j j j j j j j j j j j j j j j j j j d G $.$.",
"$.$.] S B j d d d d d d d d d d d d d d d d d d d d d d d d d d d d d d d d d d d d d d d d d d d d d d d d d d d d d d d d d d d d d d d d d d d d j B S ] $.$.",
"$.$...| ] J D F G G G G G G G G G G G G G G G G G G G G G G G G G G G G G G G G G G G G G G G G G G G G G G G G G G G G G G G G G G G G G G G G F D J ] | ..$.$.",
"$.$.] H ] ..$.$.$.$.$.$.$.$.$.$.$.$.$.$.$.$.$.$.$.$.$.$.$.$.$.$.$.$.$.$.$.$.O. . .O.$.$.$.$.$.$.$.$.$.$.$.$.$.$.$.$.$.$.$.$.$.$.$.$.$.$.$.$.$.$.$.$...] H ] $.$.",
"$.$.z 0 a D ' ] ] ] ] ] ] ] ] ] ] ] ] ] ] ] ] ] ] ] ] ] ] ] ] ] ] ] ] ] ] ` ) / / ) ` ] ] ] ] ] ] ] ] ] ] ] ] ] ] ] ] ] ] ] ] ] ] ] ] ] ] ] ] ] ] ' D a 0 z $.$.",
"$.$.d * 5 6 6 6 6 6 6 6 6 6 6 6 6 6 6 6 6 6 6 6 6 6 6 6 6 6 6 6 6 6 6 6 6 4 T 7.7.T 4 6 6 6 6 6 6 6 6 6 6 6 6 6 6 6 6 6 6 6 6 6 6 6 6 6 6 6 6 6 6 6 6 5 * d $.$.",
"$.$.a $ * * * * * * * * * * * * * * * * * * * * * * * * * * * * * * * * * % R >.>.R % * * * * * * * * * * * * * * * * * * * * * * * * * * * * * * * * * $ a $.$.",
"$.$.d $ , , , , , , , , , , , , , , , , , , , , , , , , , , , , , , , , , 3 E ;.;.E 3 , , , , , , , , , , , , , , , , , , , , , , , , , , , , , , , , , $ d $.$.",
"$.$.d $ , , , , , , , , , , , , , , , , , , , , , , , , , , , , , , , , , 3 E ;.;.E 3 , , , , , , , , , , , , , , , , , , , , , , , , , , , , , , , , , $ d $.$.",
"$.$.d $ , , , , , , , , , , , , , , , , , , , , , , , , , , , , , , , , , 3 E ;.;.E 3 , , , , , , , , , , , , , , , , , , , , , , , , , , , , , , , , , $ d $.$.",
"$.$.d $ , , , , , , , , , , , , , , , , , , , , , , , , , , , , , , , , , 3 E ;.;.E 3 , , , , , , , , , , , , , , , , , , , , , , , , , , , , , , , , , $ d $.$.",
"$.$.d $ , , , , , , , , , , , , , , , , , , , , , , , , , , , , , , , , , 3 E ;.;.E 3 , , , , , , , , , , , , , , , , , , , , , , , , , , , , , , , , , $ d $.$.",
"$.$.d $ , , , , , , , , , , , , , , , , , , , , , , , , , , , , , , , , , 3 E ;.;.E 3 , , , , , , , , , , , , , , , , , , , , , , , , , , , , , , , , , $ d $.$.",
"$.$.d $ , , , , , , , , , , , , , , , , , , , , , , , , , , , , , , , , , 3 E ;.;.E 3 , , , , , , , , , , , , , , , , , , , , , , , , , , , , , , , , , $ d $.$.",
"X.$.s $ = = = = = = = = = = = = = = = = = = = = = = = = = = = = = = = = = 3 Y ;.;.Y 3 = = = = = = = = = = = = = = = = = = = = = = = = = = = = = = = = = $ s $.X.",
"+.%.g ; 2 2 2 2 2 2 2 2 2 2 2 2 2 2 2 2 2 2 2 2 2 2 2 2 2 2 2 2 2 2 2 2 2 & W :.:.W & 2 2 2 2 2 2 2 2 2 2 2 2 2 2 2 2 2 2 2 2 2 2 2 2 2 2 2 2 2 2 2 2 2 ; g %.+.",
"Q ! ~ -.=.=.=.=.=.=.=.=.=.=.=.=.=.=.=.=.=.=.=.=.=.=.=.=.=.=.=.=.=.=.=.=.=.*.8.1.1.8.*.=.=.=.=.=.=.=.=.=.=.=.=.=.=.=.=.=.=.=.=.=.=.=.=.=.=.=.=.=.=.=.=.=.-.~ ! Q ",
"<.,.2.6.5.5.5.5.5.5.5.5.5.5.5.5.5.5.4.3.3.4.5.5.5.5.5.5.5.5.5.5.5.5.5.5.5.5.4.3.3.4.5.5.5.5.5.5.5.5.5.5.5.5.5.5.5.5.4.3.3.4.5.5.5.5.5.5.5.5.5.5.5.5.5.5.6.2.,.<.",
"Q ! ~ -.=.=.=.=.=.=.=.=.=.=.=.=.=.*.8.1.1.8.*.=.=.=.=.=.=.=.=.=.=.=.=.=.=.=.=.=.=.=.=.=.=.=.=.=.=.=.=.=.=.=.=.=.=.*.8.1.1.8.*.=.=.=.=.=.=.=.=.=.=.=.=.=.-.~ ! Q ",
"+.%.g ; 2 2 2 2 2 2 2 2 2 2 2 2 2 & W :.:.W & 2 2 2 2 2 2 2 2 2 2 2 2 2 2 2 2 2 2 2 2 2 2 2 2 2 2 2 2 2 2 2 2 2 2 & W :.:.W & 2 2 2 2 2 2 2 2 2 2 2 2 2 ; g %.+.",
"X.$.s $ = = = = = = = = = = = = = 3 Y ;.;.Y 3 = = = = = = = = = = = = = = = = = = = = = = = = = = = = = = = = = = 3 Y ;.;.Y 3 = = = = = = = = = = = = = $ s $.X.",
"$.$.d $ , , , , , , , , , , , , , 3 E ;.;.E 3 , , , , , , , , , , , , , , , , , , , , , , , , , , , , , , , , , , 3 E ;.;.E 3 , , , , , , , , , , , , , $ d $.$.",
"$.$.d $ , , , , , , , , , , , , , 3 E ;.;.E 3 , , , , , , , , , , , , , , , , , , , , , , , , , , , , , , , , , , 3 E ;.;.E 3 , , , , , , , , , , , , , $ d $.$.",
"$.$.d $ , , , , , , , , , , , , , 3 E ;.;.E 3 , , , , , , , , , , , , , , , , , , , , , , , , , , , , , , , , , , 3 E ;.;.E 3 , , , , , , , , , , , , , $ d $.$.",
"$.$.a $ , , , , , , , , , , , , , 3 E ;.;.E 3 , , , , , , , , , , , , , , , , , , , , , , , , , , , , , , , , , , 3 E ;.;.E 3 , , , , , , , , , , , , , $ a $.$.",
"$.$.d $ , , , , , , , , , , , , , 3 E ;.;.E 3 , , , , , , , , , , , , , , , , , , , , , , , , , , , , , , , , , , 3 E ;.;.E 3 , , , , , , , , , , , , , $ d $.$.",
"$.$.l < , : , , , , , , , , , , , 3 E ;.;.E 3 , , , , , , , , , , , , , , , , , , , , , , , , , , , , , , , , , , 3 E ;.;.E 3 , , , , , , , , , , , : , < l $.$.",
"O.$.b 6 , * , , , , , , , , , , , 3 E ;.;.E 3 , , , , , , , , , , , , , , , , , , , , , , , , , , , , , , , , , , 3 E ;.;.E 3 , , , , , , , , , , , * , 6 b $.O.",
"X.$.A r * * , , , , , , , , , , , 3 E ;.;.E 3 , , , , , , , , , , , , , , , , , , , , , , , , , , , , , , , , , , 3 E ;.;.E 3 , , , , , , , , , , , * * r A $.X.",
"X.@.[ l 1 , * : , , , , , , , , , 3 E ;.;.E 3 , , , , , , , , , , , , , , , , , , , , , , , , , , , , , , , , , , 3 E ;.;.E 3 , , , , , , , , , : * , 1 l [ @.X.",
"9.@.$.J t 1 * , > , , , , , , , , 3 E ;.;.E 3 , , , , , , , , , , , , , , , , , , , , , , , , , , , , , , , , , , 3 E ;.;.E 3 , , , , , , , , > , * 1 t J $.@.9.",
"9.9.@.} D p 7 - $ $ $ $ $ $ $ $ $ O U ;.;.U O $ $ $ $ $ $ $ $ $ $ $ $ $ $ $ $ $ $ $ $ $ $ $ $ $ $ $ $ $ $ $ $ $ $ O U ;.;.U O $ $ $ $ $ $ $ $ $ - 7 p D } @.9.9.",
"9.9.X.@.o.P M f a d d d d d d d d k ^ :.:.^ k d d d d d d d d d d d d d d d d d d d d d d d d d d d d d d d d d d k ^ :.:.^ k d d d d d d d d a f M P o.@.X.9.9.",
"9.9.9.X.X.$.$.$.$.$.$.$.$.$.$.$.$.I &.:.:.&.I $.$.$.$.$.$.$.$.$.$.$.$.$.$.$.$.$.$.$.$.$.$.$.$.$.$.$.$.$.$.$.$.$.$.I &.:.:.&.I $.$.$.$.$.$.$.$.$.$.$.$.X.X.9.9.9.",
"9.9.9.9.9.X.$.$.$.$.$.$.$.$.$.$.$.I &.:.:.&.I $.$.$.$.$.$.$.$.$.$.$.$.$.$.$.$.$.$.$.$.$.$.$.$.$.$.$.$.$.$.$.$.$.$.I &.:.:.&.I $.$.$.$.$.$.$.$.$.$.$.X.9.9.9.9.9."
};
