/* XPM */
static char *bc7ee6183faa428b8bbcd8c440728cbeWbcZtEb8rCcYfVLV[] = {
/* columns rows colors chars-per-pixel */
"50 50 139 2 ",
"   c #232734",
".  c #262A34",
"X  c #292D37",
"o  c #262B3A",
"O  c #2A2E3B",
"+  c #2C313E",
"@  c #32303F",
"#  c #272D40",
"$  c #2A2E43",
"%  c #2D3343",
"&  c #2E334A",
"*  c #313544",
"=  c #383545",
"-  c #333947",
";  c #32364B",
":  c #353B4C",
">  c #3A3C4D",
",  c #313750",
"<  c #363C52",
"1  c #3A3E53",
"2  c #393F59",
"3  c #403D4F",
"4  c #423F5A",
"5  c #3A414F",
"6  c #3B4254",
"7  c #3E445A",
"8  c #3E4461",
"9  c #424355",
"0  c #41465A",
"q  c #4A475C",
"w  c #434A5C",
"e  c #494B5D",
"r  c #404662",
"t  c #454D62",
"y  c #4A4E61",
"u  c #464D6A",
"i  c #484F6B",
"p  c #514E63",
"a  c #475064",
"s  c #4A5265",
"d  c #4C546A",
"f  c #4F586C",
"g  c #515466",
"h  c #51566A",
"j  c #5A576D",
"k  c #525A6D",
"l  c #595B6D",
"z  c #4D5573",
"x  c #545D72",
"c  c #595E71",
"v  c #535D7B",
"b  c #605E74",
"n  c #576175",
"m  c #5A6276",
"M  c #57617B",
"N  c #5C657B",
"B  c #5E697E",
"V  c #646177",
"C  c #60677C",
"Z  c #69667D",
"A  c #626A7E",
"S  c #566080",
"D  c #5A6485",
"F  c #5F6A81",
"G  c #5C6689",
"H  c #5E688A",
"J  c #616C83",
"K  c #636C82",
"L  c #636D82",
"P  c #626D83",
"I  c #636D84",
"U  c #636F87",
"Y  c #646D84",
"T  c #646F85",
"R  c #676F86",
"E  c #6C6C83",
"W  c #616C8D",
"Q  c #716F86",
"!  c #657087",
"~  c #687083",
"^  c #6A7285",
"/  c #697186",
"(  c #6B7387",
")  c #6C7487",
"_  c #647088",
"`  c #667188",
"'  c #677288",
"]  c #667289",
"[  c #68738B",
"{  c #6A738A",
"}  c #69748B",
"|  c #6D7589",
" . c #69758D",
".. c #6B768E",
"X. c #6D768D",
"o. c #6C778F",
"O. c #6E788F",
"+. c #70788B",
"@. c #727A8E",
"#. c #737C8F",
"$. c #636E90",
"%. c #6A7694",
"&. c #6B7890",
"*. c #6D7991",
"=. c #6F7991",
"-. c #6F7B93",
";. c #717B93",
":. c #737D94",
">. c #737D95",
",. c #757F97",
"<. c #737E98",
"1. c #768096",
"2. c #788195",
"3. c #758098",
"4. c #778199",
"5. c #76819A",
"6. c #77829A",
"7. c #79839B",
"8. c #7A859D",
"9. c #7B859D",
"0. c #7B859E",
"q. c #7C869F",
"w. c #7F899D",
"e. c #7D87A0",
"r. c #7D88A0",
"t. c #7E89A1",
"y. c #7F8AA2",
"u. c #808A9E",
"i. c #808AA3",
"p. c #818CA4",
"a. c #818CA5",
"s. c #828CA4",
"d. c #858FA8",
"f. c #8690A9",
"g. c #8A93AC",
"h. c #8C97B0",
"j. c #8C98B1",
"k. c #929CB5",
"l. c #949FB8",
/* pixels */
"q.0.7.6.,.;.@.o.' ! K B M c h 6 h / ) #.2.+.2.2.+.) A A A A m m f @ 7 a a s f s s 7 6 N y.y.y.y.y.y.",
"7.6.,.>.;.o.[ / I K N m x x d 6 m N m ~ ) +.A A A A A A A V m l k + - 6 w 7 7 7 6 6 % J 0.6.y.r.r.8.",
";.=.o.} ` I K A N x x x x k t w m m m A A A A A A A C A m m l l f +   o + % % o o . O  .3.3.3.3.3.*.",
"} [ ` T I K B B n f k x k f 6 e m C m A m C C C A C c c l l l l w O .   .   . . . X X n _ 3. .3.3.` ",
"! ! _ F I B B M n x x x f s * e l c m m m m m m m c c l l l g g 5 X X . X + + - % 6 O 6 ` 6.3. . . .",
"! ! K I B B N m n x x x d 5 + s g l c l l l c k l l l l g g e e % + % 5 ; 5 5 6 6 > 5 + f B _  .` _ ",
"K K F B N N M c x x f s 7 + + 9 y g g l l l l c l l g g y g e 5 X % 5 6 6 6 7 w 7 7 a 6 5 M K I F _ ",
"B B N N N M n x x f t 1 % . X + 5 e e g l l g g g y e e e 9 5 X O 5 5 7 7 7 w a 7 f s a 5 7 N F _ K ",
"N N N n n x x f t 2 & $ . + * + + : 6 e p e e e w 9 5 5 5 - * X 5 5 7 w a a s f f f f n 7 5 i M N B ",
"N n n n x k u < & & $ O 5 6 7 w 6 @ * > 1 1 1 1 5 - 5 + X X . + 5 6 w a f f x n N n N N N 7 6 i n N ",
"B N n x t 2 , & & # % 1 7 w d x x d 5 + @ * + O X X + - * % . - 7 a f f f m B B B _ B B B n 5 7 f n ",
"N n 7 , , , & $ o + 1 w a f n B K A N e @ . X % - 5 5 5 6 5 + > w f f m m A ~ ' ! 3._ 3. ._ s 5 7 d ",
"x 8 & % & & $ O % 6 7 s k n N ' @.@.o.A 7 + + - 6 9 0 7 7 7 + 6 f k N B _ A } 3.1.3.3.3.3.*.F 6 , 7 ",
"7 6 & & & o . + 5 7 a f N B '  .,.q.7.[ u % % 6 7 w y s s e + 7 f n B A } 1.3.8.1.7.8.5.5.3.*.f % , ",
", & & % o + . % w 7 s n B ` =.3.7.0.q.[ i ; - 7 w s d k k 7 + 6 s k B ( 3.3.8.w.y.y.w.y.r.5.*.M 5 + ",
"% # & 7 N F 6 O 5 7 d x N ! =.6.0.6.=.K d - 6 w s f x x s : X - 6 a n B ( 5.w.f.g.g.g.f.8.H M z 7 o ",
": l ;.i.i.q.N % % 6 8 x M F &.6.6.<.$.M i % 6 7 a a a u 6 +   o - 7 u n F =.3.y.f.y.8.%.G S v z 7 X ",
"u.g.g.s.q.1.O.0 o & 6 7 u v S W W H S z 7 o & : 5 7 7 5 + . + & % & 7 u z F *.6.e.%.H G v M v 8 % 7 ",
"g.g.s.u.2.;.} n + . o + - 5 7 t a 7 : % X X o % & % % X X % : 6 6 & + 5 a z v H %.W G W D v 7 7 ! f.",
"q.s.q.7.:.o.! n 5   . X X o o + O O O O O o o .   . .   % : 7 7 6 - . . % 6 z z G G G G f 6 n r.j.g.",
"7.7.1.;. ./ N n 7 X - - - - : ; : : - ; - & + o   .   o - , 6 6 & + 6 x h + + 7 8 v a 5 . n 0.y.d.s.",
"1.1.O.! F N n n 7 + : 5 1 6 6 6 6 6 1 6 : - - & # o . . % - & % 5 n =.q.q.B + . o 6 6 6 6 ' 3.3.6.6.",
"O.! ! K F N n f 5 * 5 6 0 e 0 0 t w 0 0 7 6 1 - % % . . X X - d ! 0.6.7.a.e.k . % 7 N K s B 1.3.-.=.",
"! ! K B n n x a - 5 7 a a s t y f f h s a e 0 6 5 % X   X 7 B O.6.q.q.a.f.f.&.= 5 a J 1.f N *.B !  .",
"K K A M m x h w * 6 w d k l j x c c c c h d a w 6 % . O s ! O.1.7.q.i.f.g.g.s.g 5 x  .r.n n ` I Y ! ",
"B N M x x d s 6 % 6 w d x m C C K K m m m c h w 5 # . 8 _  ...6.7.0.i.i.g.g.g.Q 6 f _ =.a f F F K K ",
"m m x k d 7 6 ; + w t t h x K K T E E K N m a 6 # o 5 B '  .*.3.0.q.s.s.g.g.g.q.a 7 x v : w n N N B ",
"k f s t 7 6 - o + w s d f k x C Y [ o.R C s 7 & o ; n _ ' ' -.3.0.w.s.s.s.g.j.g.N 5 2 7 + 6 s f x c ",
"a 8 7 6 - % o   X 6 u d l z x x c C C c s 7 ; % + f K F ' } ;.1.7.u.i.s.f.f.g.j.=.6 % 5 w 6 6 t a d ",
"6 5 : % # o % - * + 6 u i k x x v c m z 7 , & + w m B K !  .-.1.0.7.0.i.s.f.g.g.r.f & s F N 5 6 7 7 ",
"; % o X X 5 6 7 w 0 : 6 t i z z x x c 0 ; < % 5 n M B A A ! O.;.6.0.1.u.w.s.f.f.s.B 6 a N  .x - - 6 ",
"o o + . % w w w s f k 0 6 r i i i i d 8 < % - d k n M B A _ / O.>.3.1.u.u.w.y.s.w.B a 7 x F F 7 o o ",
"5 f N d ; 0 d k n n n n h 7 6 u 7 8 i 7 & + 8 f k n n N B F I  . .;.;.,.7.7.0.i.;.A x 1 t f x t + . ",
"*.6.w.1.n < a n A ! / ! ~ N s 6 5 7 8 6   5 s s f f k N N B F I [ ) @.;.,.1.;.#.! B n ; : 7 7 6 - e ",
"1.7...#.7.c 6 d K ;.1.1.;.O.~ n 5 5 a x 6 7 s s a a k n n n N F K ! [ | } _ F K O.N x : o % & 7 x ! ",
"@.;.#.;.e.<.k 7 x  .7.;.1.=._ x 7 5 B ..f 6 a a a d f k x n M n m N B B N N N N B M d 1 . : a n K ! ",
"` =.;.1.,.7.&.w 7 v  .D x z 8 2 + 5 s N n 6 a 7 a a d f f x x x x x x f x d d i i i 8 % + w x n N K ",
"K ! ..O.@. .&.F : 8 z z 8 8 2 ; 5 5 5 7 w 5 7 a w a a s s d d s d i 0 0 r r 8 7 7 7 5 O 5 w s x n N ",
"N K I K ! T T R w % < 7 6 7 a N 1.3.1.n 5 - 6 7 6 7 w 7 8 8 7 7 7 7 7 7 7 7 7 7 6 ; O o 1 5 w d x x ",
"x m M N B K T J w X + 6 t k B } 3.7.y.y.A 5 + 5 : , 5 6 6 < 7 6 2 2 2 1 1 ; ; ; - : O o - 1 w s d f ",
"f x n N N N F M 7 + 6 6 a f n F ` 3.0.y.y.3.7 + $ % % % * = * * * * @ X O + : 7 a x a + o : 7 a s d ",
"d f x n n n n f 1 % ; ; 7 d x n N 6.3.6.r.w.3.f X . X = = = 3 3 3 > > @ + 5 6 a n N I d . o : 6 7 a ",
"6 7 8 8 8 7 7 7 % O - 6 7 a d x n B ` 3.3.3.3. .y @ = = 9 q p p p p e > % 6 a n K  .O.*.7   o # % : ",
"+ % % & & ; & - o o o & 5 7 a f x x N I K ` _ K x = > q p j b V b b l 6 % 5 a n B ` =.%.n +     . . ",
"8 7 6 5 : - @ + X X X X + ; 6 7 s s f n N M M n s = 9 p j Z Q Q Q E j > . % , 7 s z n n i - 7 f d s ",
"f.y.w.w.,.;.` A N f s 7 - o % , ; 6 7 8 7 7 7 6 & % > q g b Z Q Q b 4 * 6 a n f 5 * 7 6 ; B y.j.j.j.",
"j.j.j.g.f.s.w.w.6.1.) A m 6 + . + % & % : & - % * X @ * 6 q g l j 4 = q 3.y.g.y.} 7 a a w f.l.l.l.k.",
"g.g.f.f.s.y.0.6.1.1.O.} ` B 7 + . . + 5 t f c N A N m h e 9 > 5 4 > 6 [ 6.w.w.w.0.-.f + N j.k.j.d.s.",
"f.f.f.s.w.q.7.2.;.@.O./ Y A c 0 . - A 2.0.w.w.u.w.2.2.2.) B m e % * x K } O.O.O.} ~ n 7 O.j.j.g.w.q.",
"f.s.w.u.q.7.1.>.;.O.( ! K c x w + l 6.w.w.w.u.u.2./ +.2.+.~ A N > > k n N A n N n n f w 0.g.g.g.f.f."
};
