/* XPM */
static char *_2234834b4384f598203ca20ad57b78a2dLOofMFljFepUuT[] = {
/* columns rows colors chars-per-pixel */
"80 80 171 2 ",
"   c None",
".  c #2D2E2F",
"X  c #2C2F30",
"o  c #2C3232",
"O  c #333232",
"+  c #413433",
"@  c #563633",
"#  c #663935",
"$  c #603733",
"%  c #773933",
"&  c #634634",
"*  c #6A4736",
"=  c #664937",
"-  c #674A38",
";  c #694C39",
":  c #69453E",
">  c #6E513D",
",  c #71543F",
"<  c #63554B",
"1  c #725540",
"2  c #765943",
"3  c #7B5B46",
"4  c #625B50",
"5  c #577149",
"6  c #587149",
"7  c #536C45",
"8  c #7E614A",
"9  c #AA3F34",
"0  c #BE4033",
"q  c #CD4335",
"w  c #C14134",
"e  c #D34536",
"r  c #DA4738",
"t  c #DD4939",
"y  c #DC533E",
"u  c #E64738",
"i  c #E64B3B",
"p  c #EA493B",
"a  c #85684F",
"s  c #9E7C4E",
"d  c #876A51",
"f  c #8C6E55",
"g  c #95765B",
"h  c #997B5F",
"j  c #97795D",
"k  c #8C7055",
"l  c #AD6C47",
"z  c #BD6847",
"x  c #AC744C",
"c  c #BE714E",
"v  c #9B7D61",
"b  c #D25A42",
"n  c #E55542",
"m  c #E95442",
"M  c #E85B47",
"N  c #D77C5D",
"B  c #EB6A54",
"V  c #ED755C",
"C  c #EF7D62",
"Z  c #F07D63",
"A  c #24AF5F",
"S  c #27B061",
"D  c #28B162",
"F  c #29B966",
"G  c #2BBF69",
"H  c #34B56A",
"J  c #3BB971",
"K  c #729D5D",
"L  c #7B985C",
"P  c #70895D",
"I  c #59AD63",
"U  c #43BC6A",
"Y  c #55B065",
"T  c #4BBD7C",
"R  c #60B268",
"E  c #2EC06B",
"W  c #2DCA6F",
"Q  c #31C96F",
"!  c #3FC06B",
"~  c #2DCC71",
"^  c #27CF71",
"/  c #31CC71",
"(  c #3ACD74",
")  c #3FD078",
"_  c #4CC16F",
"`  c #49CE79",
"'  c #55CF7C",
"]  c #50C373",
"[  c #6CC076",
"{  c #869E67",
"}  c #A78A6B",
"|  c #A7886A",
" . c #B08F70",
".. c #B09473",
"X. c #B79C78",
"o. c #B79B78",
"O. c #AC906F",
"+. c #A3AD75",
"@. c #BBA07C",
"#. c #D08461",
"$. c #C39E7D",
"%. c #EA8668",
"&. c #F08569",
"*. c #F29374",
"=. c #55C183",
"-. c #5EC489",
";. c #7ECB83",
":. c #6AD183",
">. c #74D386",
",. c #64C68D",
"<. c #7FD0A1",
"1. c #A1B983",
"2. c #CCAE88",
"3. c #C6A783",
"4. c #D3B48D",
"5. c #D3B98F",
"6. c #D6B790",
"7. c #D6BC92",
"8. c #DABD94",
"9. c #CEB48C",
"0. c #E5A886",
"q. c #F6AE89",
"w. c #F7B68F",
"e. c #81CC84",
"r. c #89D68D",
"t. c #92D58F",
"y. c #94D590",
"u. c #A9D796",
"i. c #BBD398",
"p. c #82D1A3",
"a. c #9AD9B4",
"s. c #95D8B1",
"d. c #90D6AE",
"f. c #A3DDBB",
"g. c #DBC096",
"h. c #DEC399",
"j. c #D1C290",
"k. c #C2DA9E",
"l. c #D3CC97",
"z. c #E2C59A",
"x. c #E5C89C",
"c. c #E8CA9F",
"v. c #FBC69D",
"b. c #F1CD9F",
"n. c #C8DBA0",
"m. c #D4D7A0",
"M. c #EBCCA1",
"N. c #FBCCA1",
"B. c #EBDDAA",
"V. c #E8D9A8",
"C. c #F1D4A7",
"Z. c #FCD3A6",
"A. c #F5D6A9",
"S. c #F6DAAB",
"D. c #FCDCAE",
"F. c #FEDFB0",
"G. c #FFE0B1",
"H. c #A9E2C1",
"J. c #B6E4C9",
"K. c #C1EBD3",
"L. c #C3EBD4",
"P. c #DAF1E4",
"I. c #D7F0E2",
"U. c #E7F6ED",
"Y. c #E9F7EF",
"T. c #F1FAF5",
"R. c white",
"E. c #FEFEFE",
"W. c #FDFEFD",
"Q. c #F9FCFA",
"!. c #F7FCF9",
/* pixels */
"                                                                                                                                                                ",
"                                                                                                                                                                ",
"                                                                                                                                                                ",
"                                                                                                                                                                ",
"                                                                                                                                                                ",
"                                                                                                                                                                ",
"                                                                                                                                                                ",
"                                                                                                                                                                ",
"                                                                                                                                                                ",
"                                                      D D D S S D D D D D D S S D D D D D S D D D D D D D D                                                     ",
"                                            S S D D D D D D D S S S D D D D D D A D D D S S S S D D D D D D D A D D                                             ",
"                                        S S S S S D D D D D D D D D D D D D D D D D D D D D D D D D D D D D D D D A D D                                         ",
"                                      S S S D D D D D D D D D D D D D D D D D D D D D D D D D D D D D D D D D D D D A D D                                       ",
"                                    D D D D D D D D D D D D D D D D D D D D D D D D D D D D D D D D D D D D D D D D D D D D                                     ",
"                                    S S D D D D D D D D D D D D D A D D A D D D D D D D D D D D D D D D D D D D D D D D D D                                     ",
"                                  D D D D D D D D D D D D D D S D D D D D D D D D D D D D D S D D D D D D D D D D D D D D D                                     ",
"                                  D D D D D D D D D S D D D S S S A H =.p.s.a.s.a.a.s.p.=.D A A D D D D D D D D D D D D D D S                                   ",
"                                  D D D D D D D D D D D D D S S H -.d.J.I.Y.Y.Y.Y.Y.U.I.J.p.T S A D D D D D D D D D D D D D D                                   ",
"                                  D D D D D D D D D D D D S S S ,.J.T.Q.R.R.R.R.R.R.R.R.R.Y.a.=.D D D D D D D D D D D D D D D                                   ",
"                                  D D D D D D D D D D D S D D =.H.W.R.R.R.R.R.R.R.R.R.R.R.R.T.f.T D D A D D D D D D D D D D D                                   ",
"                                  D D D D D D D D D S D A S T H.!.R.W.R.R.R.R.R.R.R.R.R.R.R.R.U.f.H D D D D D D D D D D D D D                                   ",
"                                  D D D D D D D D D D D A H <.U.R.R.R.R.R.R.R.R.R.R.R.R.R.R.R.R.I.p.H A D D D D D D D D D D D                                   ",
"                                  D D S D D D D S S S S A J L.Q.R.R.R.R.R.R.R.R.R.R.R.R.R.R.R.R.!.L.U A D S S A S S S S S D D                                   ",
"                                  D S S D D D D S F S S S J H.L.K.K.K.K.K.K.K.K.K.K.K.K.K.K.K.L.L.f.J S D D F D D D D D S S S                                   ",
"                                  D D F F F F F F F F G W G G G G G E E E E E E W E E G G E G G G G G G G F G F G F F F S D F                                   ",
"                                  W W W W ~ W W W W W ~ ~ ~ ~ ~ W Q W ~ W W W W ~ ~ ~ ~ ~ / ~ ~ ~ ~ ~ ~ ~ ~ ~ ~ W W Q ~ Q W W                                   ",
"                                  ~ ~ ~ ~ / ~ ~ ~ ~ ~ ~ ~ ~ ~ ~ / ~ ~ ~ ~ ~ ~ / ~ / ~ ~ ~ ~ ~ ~ / ~ ~ ~ ~ ~ ~ ~ ~ ~ ~ ~ ~ ~ ~                                   ",
"                                  ~ ~ ~ ~ ~ ~ ~ ~ ~ ~ / ~ ~ ~ ~ ~ ~ ~ / ~ ~ ~ ~ ~ ~ ~ ~ ~ / ~ ~ ~ ~ ~ ~ ~ ~ ~ ~ ~ ~ ~ ~ ~ ~ ~                                   ",
"                                    ~ W / ~ ~ ~ / ~ ~ ~ ~ ~ ~ ~ ~ ~ ~ ~ / ~ ~ ~ ~ ~ ~ ~ ~ ~ ~ ~ ~ ~ ~ / ~ ~ ~ ~ ~ ~ ~ ~ ~ ~                                     ",
"                                    ~ ~ ~ ~ ~ ~ ~ ~ ~ ~ ~ ~ ~ ~ ~ ~ ~ ~ ~ ~ ~ ~ ~ ~ ~ ~ ~ ~ ~ ~ ~ ~ ~ ~ ~ ~ ~ ~ ~ ~ ~ ~ ~ ~                                     ",
"                                    ~ ~ ~ ~ / ~ / / / / / / ~ ^ / ~ / / / ~ / / ~ ~ ~ ~ ~ / ~ ~ ~ ~ / / ~ ~ ~ ~ / / ~ ~ / ~                                     ",
"                                      6 5 7 { i.n.i.n.i.n.i.n.n.k.k.k.k.k.k.k.k.k.k.n.n.i.n.n.i.n.n.i.n.n.n.i.n.n.1.P 6 6                                       ",
"                                      * * 3 $.F.G.G.G.G.G.G.G.F.G.G.G.G.G.G.G.G.F.G.G.G.G.G.G.G.G.F.G.G.G.G.G.G.G.M.| * *                                       ",
"                                      ; > } z.G.G.F.D.M.h.z.S.D.G.G.G.G.G.G.G.F.G.G.G.F.F.G.G.G.F.S.M.h.M.S.F.G.F.F.6.3 :                                       ",
"                                8.h...1 f 6.F.F.G.F.x...d g 9.A.G.G.G.G.G.G.G.G.F.G.G.F.G.F.G.G.A.4.g d O.z.F.F.F.G.M...2 ..g.7.                                ",
"                              7.7.8.X.d 2.A.G.G.F.F.o.8 > , g z.G.G.G.G.F.G.G.F.G.G.G.G.G.G.G.G.8.k 1 < 3 o.F.G.F.F.G.M.g @.g.7.7.                              ",
"                            7.7.7.7.7.6.C.F.G.F.G.F.v = = ; , 6.G.G.G.G.G.G.F.G.G.G.G.G.G.G.G.G.6.2 ; - ; v D.G.G.G.G.S.7.7.7.7.7.7.                            ",
"                            7.7.7.7.z.F.G.G.F.G.G.F.k & ; ; ; 4.G.F.G.G.F.G.G.G.F.G.F.G.G.G.G.G.4.: - ; & g F.F.G.G.G.F.D.z.7.7.7.7.                            ",
"                            7.g.7.7.z.G.F.F.F.G.F.F.v = ; ; , 5.G.G.G.F.F.S.S.S.S.S.D.G.G.G.G.G.6.1 ; - - h D.G.G.G.G.G.G.x.7.7.g.7.                            ",
"                            7.7.7.7.h.G.G.G.G.G.G.F...2 = > k g.G.G.F.F.F.C.M.z.h.h.V.G.G.G.G.G.8.k > - 2 ..D.G.F.G.G.F.D.h.7.7.7.7.                            ",
"                            7.7.7.7.h.D.F.F.F.F.F.F.x.| > 8 2.A.G.G.G.G.B.x.7.7.8.7.h.C.D.F.F.G.A.2.8 > | h.F.F.G.G.G.F.S.z.7.7.8.8.                            ",
"                              7.7.7.h.S.F.F.G.G.G.F.F.x.4.j.A.F.G.G.C.7.g.g.7.7.7.7.g.8.6.M.S.G.F.A.7.5.g.D.F.G.G.F.G.F.A.h.7.7.j.                              ",
"                                7.7.h.A.F.G.F.G.F.G.G.G.G.G.G.G.S.6.} v ..9.g.7.g.g.6.X.g | 6.S.G.G.G.G.F.F.G.F.G.G.G.D.A.h.7.7.                                ",
"                                  7.h.A.F.G.F.G.G.G.G.G.F.G.G.D.6.v = & d } X.o.X.X.O.k = & v 9.S.F.F.F.F.F.F.G.G.F.F.F.A.h.7.                                  ",
"                                      G.F.F.G.F.G.G.G.G.F.F.F.j.v & ; ; ; ; ; 1 ; ; ; ; ; ; = g 4.D.F.F.F.G.G.G.G.G.G.G.G.                                      ",
"                                        F.F.G.G.F.G.F.G.F.F.F.| 1 - ; ; ; ; ; ; ; ; ; ; ; ; = > | D.G.F.G.G.G.F.G.F.G.G.F.                                      ",
"                                        G.F.G.F.G.G.G.G.F.G.F.| = = - - ; ; ; ; ; ; ; ; ; ; = & j F.G.F.G.F.G.G.F.G.G.G.                                        ",
"                                        G.G.G.F.F.G.G.F.G.G.G.$.v a 2 & & & & & & & & & = 2 d v 3.F.G.G.G.G.F.F.F.G.G.G.                                        ",
"                                        m.S.F.G.G.G.G.G.F.G.G.D.z.$. .j g g j j j g j g h ..3.c.D.G.G.G.F.F.G.G.G.F.S.m.                                        ",
"                                      / ] j.v.Z.Z.Z.Z.Z.N.Z.B.B.B.B.B.B.B.B.B.B.B.B.B.B.B.B.B.B.B.A.A.Z.Z.Z.Z.Z.Z.N.j.[ (                                       ",
"                                  ~ ^ W / { #.&.&.&.&.&.&.%.+.[ >.>.>.>.>.>.>.>.>.>.>.>.>.>.[ >.;.+.%.V &.&.&.&.&.#.{ / ~ ~ /                                   ",
"                                W ~ ~ ~ W ! L c i m i i i y N I ( ( ( ( ( ( ( ( ( ( ( ( ( ( ( / Y c M m i i i i c L ! W ~ ~ ~ ~                                 ",
"                                ~ ~ ~ W ( ) _ K l t i i i i y | I W ^ ~ W W ^ W W W W W ^ ^ Q I | t i u i u t l K _ ) ) ^ W W W                                 ",
"                              W ~ / ` :.t.t.r.;.+.#.M i i i i i x K Y ! W ^ ^ ^ ^ ^ ~ Q J I K x i u i i i M #.+.;.r.t.r.:.` / ~ ~                               ",
"                              ~ / ' y.B.F.F.F.F.D.b.&.M u i i i i y z L Y ! U U _ ! U I { z y i i i i i M *.b.S.F.F.G.G.S.y.' / ~                               ",
"                              ~ ' u.G.F.F.G.G.F.D.D.Z.&.u i i i i i y y b y y z y b b y b i i i i i i i &.N.D.F.G.F.G.G.G.F.u.' ~                               ",
"                              ~ y.B.G.G.G.G.G.F.G.G.G.*.u p i m i i i i p p p p p p p p u i i i i i i u *.G.G.F.F.G.G.G.G.G.B.t.~                               ",
"                              ' k.G.G.G.G.G.G.F.G.G.G.*.u i i i i p i i i t t t t t t i i i i i i i i u *.G.G.F.G.G.F.G.F.G.G.k.-.                              ",
"                              u.B.G.F.G.G.G.F.G.G.G.G.*.u i i p p i i t r e e q q e e r t u i i i i i u *.G.F.G.F.G.F.G.F.F.G.B.u.                              ",
"                                F.F.G.F.F.G.G.G.G.G.N.&.i i i i i i e q q q q q q q q q q t t i i i i u &.Z.F.F.G.G.G.G.G.G.F.G.                                ",
"                                G.F.G.G.F.G.G.G.G.F.w.V u i i i i e q q q q q q q q q q q q r i i i i p V w.F.F.F.G.F.G.G.F.F.G.                                ",
"                                G.G.F.G.G.G.G.G.G.D.*.M i i i i r e q q q q q q q q q q q q q t i i i i M *.D.F.G.G.G.G.G.G.F.G.                                ",
"                                F.F.G.F.G.F.F.G.D.q.B u i i u u e q q q q q q q q q q q q q q e i i i i i B q.D.G.F.F.G.G.F.F.G.                                ",
"                                  F.F.G.G.G.G.D.v.V n u i i i e q q q q q q q q q q q q q q q q r i i i i i V v.G.G.G.G.G.F.G.                                  ",
"                                  G.G.F.F.S.D.N.*.m i i i i r e 0 0 0 q                 q 0 w q q t i i i i n *.w.F.D.D.F.F.G.                                  ",
"                                      D.g.7.0.C n i i i i i e q 0 % @                     @ % 9 e e i i i i n n C 0.7.h.D.                                      ",
"                                        4 4 < : # # # # # # # @ @ + O                     O + @ $ # # # # # # # 1 < 4 4                                         ",
"                                        . . . o o o o o o o o O o O O                     O O o o o o o o o o X o . . o                                         ",
"                                        O O O O O O O O O O O O O O O                     O O O O O O O O O O O O O O O                                         ",
"                                          O O O O O O O O O O O O O O                     O O O O O O O O O O O O O O                                           ",
"                                              O O O O O O O O O O                             O O O O O O O O O O                                               ",
"                                                                                                                                                                ",
"                                                                                                                                                                ",
"                                                                                                                                                                ",
"                                                                                                                                                                ",
"                                                                                                                                                                ",
"                                                                                                                                                                ",
"                                                                                                                                                                ",
"                                                                                                                                                                ",
"                                                                                                                                                                "
};
