/* XPM */
static char *_8829d5d4fa64bc3da36b0b1bfcf7d9efomJeSjoKGWLKAzu[] = {
/* columns rows colors chars-per-pixel */
"80 80 164 2 ",
"   c None",
".  c #2D3232",
"X  c #323232",
"o  c #473634",
"O  c #5D3834",
"+  c #513936",
"@  c #673A35",
"#  c #46433E",
"$  c #5D5A3E",
"%  c #634634",
"&  c #664937",
"*  c #6B4837",
"=  c #674A38",
"-  c #694C39",
";  c #63533B",
":  c #6E513D",
">  c #70533E",
",  c #775A44",
"<  c #785B45",
"1  c #4E6D45",
"2  c #556642",
"3  c #546C45",
"4  c #487649",
"5  c #7D6049",
"6  c #833D36",
"7  c #9E4B3F",
"8  c #AA4B3F",
"9  c #BF4639",
"0  c #CD4234",
"q  c #CD4739",
"w  c #D14435",
"e  c #D84737",
"r  c #DB4738",
"t  c #DD4839",
"y  c #D4483A",
"u  c #DB533E",
"i  c #E64C3C",
"p  c #E94B3B",
"a  c #E7503F",
"s  c #82654D",
"d  c #9E7C4E",
"f  c #8A6E5D",
"g  c #8F7258",
"h  c #94765B",
"j  c #987A5E",
"k  c #BD6847",
"l  c #AB744C",
"z  c #BD714E",
"x  c #9C7E62",
"c  c #C95F43",
"v  c #DC5542",
"b  c #D25A42",
"n  c #E45543",
"m  c #E85442",
"M  c #C8694A",
"N  c #D6694D",
"B  c #ED654F",
"V  c #EC6E56",
"C  c #EF6F58",
"Z  c #EA6651",
"A  c #EC735A",
"S  c #EF7D62",
"D  c #E37B61",
"F  c #F07C62",
"G  c #368E51",
"H  c #3F8B52",
"J  c #2D9A56",
"K  c #329253",
"L  c #359A58",
"P  c #399556",
"I  c #24A65B",
"U  c #22A85C",
"Y  c #2FA55C",
"T  c #30A35C",
"R  c #27AF61",
"E  c #29AF61",
"W  c #27B161",
"Q  c #28B162",
"!  c #46814E",
"~  c #7D9459",
"^  c #709E5D",
"/  c #69A15E",
"(  c #57AE64",
")  c #5AAB62",
"_  c #44BC6A",
"`  c #4BB667",
"'  c #58B368",
"]  c #56BF70",
"[  c #60B268",
"{  c #2DCB6F",
"}  c #3DC26C",
"|  c #31C96F",
" . c #36C56E",
".. c #27CF71",
"X. c #2CCC70",
"o. c #33CE73",
"O. c #39CD74",
"+. c #55CF7C",
"@. c #56D27F",
"#. c #4CC875",
"$. c #988B59",
"%. c #A48769",
"&. c #AA8C6D",
"*. c #A58869",
"=. c #AF9271",
"-. c #B19473",
";. c #B79C78",
":. c #B99D7A",
">. c #84AC6D",
",. c #A6AF77",
"<. c #BEA37E",
"1. c #DA8067",
"2. c #E48364",
"3. c #F18E6F",
"4. c #F08669",
"5. c #F18E70",
"6. c #F29777",
"7. c #E59B77",
"8. c #C0A27F",
"9. c #7ECB83",
"0. c #73D286",
"q. c #9EBF81",
"w. c #C4A682",
"e. c #D2B48D",
"r. c #DCBB8D",
"t. c #D6BC92",
"y. c #D9BD94",
"u. c #D6B790",
"i. c #F6AA86",
"p. c #F9BF97",
"a. c #94D590",
"s. c #9FC888",
"d. c #ADD897",
"f. c #ADDB9A",
"g. c #DAC096",
"h. c #DEC399",
"j. c #D8D49E",
"k. c #E3C59B",
"l. c #E6C89D",
"z. c #FAC199",
"x. c #FDC99F",
"c. c #F2C69B",
"v. c #CADAA0",
"b. c #D1D9A0",
"n. c #ECCEA2",
"m. c #FCCBA1",
"M. c #EFD2A5",
"N. c #ECDEAB",
"B. c #F1D3A6",
"V. c #FCD3A6",
"C. c #F4D6A8",
"Z. c #F4DAAA",
"A. c #FCDEAF",
"S. c #FDD7AA",
"D. c #FFDFB0",
"F. c #FDDFB0",
"G. c #FEDFB0",
"H. c #E6E1AC",
"J. c #FFE0B1",
"K. c #FEE0B0",
"L. c #FFE1B2",
"P. c #FFE2B2",
"I. c #FFE2B3",
"U. c #FFE1B2",
/* pixels */
"                                                                                                                                                                ",
"                                                                                                                                                                ",
"                                                                                                                                                                ",
"                                                                                                                                                                ",
"                                                                                                                                                                ",
"                                                                                                                                                                ",
"                                                                                                                                                                ",
"                                                                                                                                                                ",
"                                                                                                                                                                ",
"                                                      Q Q Q Q Q Q Q E Q Q E Q E Q Q E Q Q U Q Q Q E Q Q Q W                                                     ",
"                                            W W Q Q Q Q Q Q Q Q Q Q Q E Q Q Q Q Q Q Q E Q Q Q Q Q E Q Q Q Q W R Q E                                             ",
"                                        Q W R W Q E Q Q Q Q Q Q Q Q Q W Q Q Q Q Q Q Q W Q Q Q Q Q Q Q Q Q Q Q W Q Q Q Q                                         ",
"                                      Q Q Q Q Q Q Q Q Q Q Q Q Q Q Q Q Q Q Q Q Q Q Q Q Q Q Q Q Q Q Q Q Q Q Q Q Q Q Q W W Q                                       ",
"                                    Q Q Q Q Q Q Q Q Q Q Q Q Q Q Q Q Q Q Q Q Q Q Q Q Q Q Q Q Q Q Q Q Q Q Q Q Q Q Q Q Q Q Q Q                                     ",
"                                    R Q Q Q Q Q Q Q Q Q Q Q Q Q Q Q Q Q Q Q Q Q Q Q Q Q Q Q Q Q Q Q Q Q Q Q Q Q Q Q Q Q E Q                                     ",
"                                    Q Q Q Q Q Q Q Q Q Q Q Q Q Q Q Q Q Q Q Q Q Q Q Q Q Q Q Q Q Q Q Q Q Q Q Q Q Q Q Q Q Q Q Q                                     ",
"                                  Q Q Q Q Q Q Q Q Q Q Q Q Q Q Q Q Q Q Q Q Q Q Q Q Q Q Q Q Q Q Q Q Q Q Q Q Q Q Q Q Q Q Q Q Q Q                                   ",
"                                  Q Q Q Q Q Q Q Q Q Q Q Q Q Q Q Q Q Q Q Q Q Q Q Q Q Q Q Q Q Q Q Q Q Q Q Q Q Q Q Q Q Q Q Q Q Q                                   ",
"                                  Q Q Q Q Q Q Q Q Q Q Q Q Q Q Q Q Q Q Q Q Q Q Q Q Q Q Q Q Q Q Q Q Q Q Q Q Q Q Q Q Q Q Q Q Q Q                                   ",
"                                  Q Q Q Q Q Q Q Q Q Q Q Q Q Q Q Q Q Q Q Q Q Q Q Q Q Q Q Q Q Q Q Q Q Q Q Q Q Q Q Q Q Q Q Q Q Q                                   ",
"                                  Q Q Q Q Q Q Q Q Q Q Q Q Q Q Q Q Q Q Q Q Q Q Q Q Q Q Q Q Q Q Q Q Q Q Q Q Q Q Q Q Q Q Q Q Q Q                                   ",
"                                  Q Q Q Q Q Q Q Q Q Q Q Q Q Q Q Q Q Q Q Q Q Q Q Q Q Q Q W W Q Q Q Q Q Q Q Q Q Q Q Q Q Q Q Q Q                                   ",
"                                  Q Q Q Q Q Q Q Q Q Q Q Q Q Q Q Q Q Q Q Y L P ! P ! L Y E Q W W Q Q Q Q Q Q Q Q Q Q Q Q Q Q Q                                   ",
"                                  Q Q Q Q Q Q Q Q Q Q Q Q Q Q Q Q Q Q L 4 3 $ $ $ $ 3 ! L Q W W Q Q Q Q Q Q Q Q Q Q Q Q Q Q Q                                   ",
"                                  Q Q R R R R R R Q E R E R R R Q Q Y 1 ; = - - - - - ; 3 Y W R R R R E R E R R Q Q R R R E R                                   ",
"                                  U U I I I I I I U I I I I I I U J 4 ; - - - - = = - = ; 4 J U I I I U I I U I U R I I I I I                                   ",
"                                  I I I I I I I I I I I I I I I U K $ - * = - - - - = = : $ K U I I I I I I I I I I I I I I I                                   ",
"                                  I I I I I I I I I I I I I I I U K ; = * * * = * * * & = ; G I I I I I I I I I U U I I I I I                                   ",
"                                    I I I I I I I I I I I I I I I J 3 2 2 2 2 2 2 2 2 2 2 1 K I I I I I I I U U I I I I I I                                     ",
"                                    I I I U I I I U I I I I I I I I I I I I I I J I I I I I I I U I I I U U I I I I I I U I                                     ",
"                                    I I I I I I I I I I I I I I I I I I I I I I I I I I I I I I I I I I I J I I I I I I I I                                     ",
"                                      2 2 2 2 2 2 2 2 2 2 2 2 2 2 2 2 2 2 2 2 2 2 2 2 2 2 2 2 2 2 2 2 2 2 2 2 2 2 2 2 2 2                                       ",
"                                      * * * * * * * * * * * * * & * * * * * * * = * * * * * * * * * * * = * * * * * * * *                                       ",
"                                      - - - - - - - - - - - - - - * - - - - - - - - - - - - - - - - - - - - - - - - - = -                                       ",
"                                t.g.-.- - - - - - - - - - - - - - - - - - - - - - - - - - - - - - - - - - - - - - - - - - -.h.t.                                ",
"                              t.t.g.:.- = - - - - - - - - - - - - - - - - - - - - - - - - - - - - - - - - - - - - - - = - ;.g.t.t.                              ",
"                            t.t.t.g.:.- - - - - - - - - - - - - - - - - - - - - - - - - - - - - - - - - - - - - - - - - - ;.g.t.t.t.                            ",
"                            t.t.t.g.;.- = - - - - - - - - - - - - - - - - - - - - - - - - - - - - - - - - - - - - - - - - :.g.t.t.t.                            ",
"                            y.t.t.g.<.: - - - - - - - - - - - - - - - - - - - - - - - - - - - - - - - - - : - - - - - - : ;.g.y.t.t.                            ",
"                            t.t.t.g.<.5 - - - - - - - - - - - - - - - - - - - - - - - - - - - - - - - - - - - - & - - - , <.g.t.y.t.                            ",
"                            t.t.t.g.<.s : - - - - - = - - - = - - - - - - - - - - - - - - - - - - - - = - - = = - - - : s <.g.t.t.t.                            ",
"                              t.t.t.t.e.<.:.&.h 5 & % & & & = = - - - - - - - - - - - - - - - - = = = & & % = , h &.:.<.e.t.t.t.t.                              ",
"                                t.t.g.B.Z.B.l.u.w.;.%.%.h s < < , - & & % % % % % % % % % % = : , < 5 h x %.=.w.e.l.B.C.Z.h.t.t.                                ",
"                                  t.h.M.J.J.J.J.I.J.n.k.t.w.-.-.*.x h h h h h h h h h h h h j %.-.-.:.e.h.n.F.J.I.J.J.K.B.h.t.                                  ",
"                                        J.J.J.J.J.A.J.A.J.D.A.A.A.A.A.A.A.A.A.A.D.F.A.A.A.A.A.A.D.D.A.D.D.D.D.D.J.J.D.J.J.                                      ",
"                                        J.A.J.J.J.J.J.J.J.J.J.J.D.D.J.J.J.J.J.J.J.J.J.J.J.J.J.J.D.D.D.D.J.J.J.J.J.J.D.J.J.                                      ",
"                                        J.D.J.J.J.J.J.J.J.J.J.J.J.J.J.J.J.J.J.J.J.J.J.J.J.J.J.J.J.J.J.J.J.J.J.J.J.J.J.J.                                        ",
"                                        J.J.J.D.J.J.J.J.J.J.J.J.J.J.J.J.J.J.J.J.J.J.J.J.J.J.J.J.J.J.J.J.J.J.J.J.D.J.J.J.                                        ",
"                                        b.Z.D.D.J.J.J.I.J.I.J.J.J.J.J.J.J.J.J.J.J.J.J.J.J.J.J.J.J.J.J.I.A.J.J.J.I.J.C.j.                                        ",
"                                      | ] r.m.V.V.V.V.V.V.V.Z.N.N.N.N.N.N.N.N.N.N.N.N.N.N.N.N.N.N.Z.V.V.V.V.V.V.V.m.r.>. .                                      ",
"                                  X.X. .$.M A F S S S S S 2.,.9.0.0.0.0.0.0.0.0.0.0.0.0.0.0.0.0.9.,.2.S S S S S S C N $.} X.X.                                  ",
"                                X.X.X.} d u m m m m m m m n z [ o.O.O.O.O.O.O.O.O.O.O.O.O.O.O.O.[ z n m m m m m m a i M ` o.X.X.                                ",
"                                { X.X.` u i i i i i i p p i u d ) o.....X.X.X.X.X.X.X.X.....{ ) d u i i i i i i i i i u / } | {                                 ",
"                              { ..o.#.>.b p i i i i i i i i i a l ^ ( _ | X.X.X.....X.| } ( ^ l i p i m i i p i i i i u $.#.o.{ {                               ",
"                              X...@.s.7.n i i i i i i i i i i i i u k ~ ( _ Q _ _ _ ` ( ~ k u i i i i i i i i i i i i a 1.,.@.o.{                               ",
"                              X.@.f.c.3.a i i i i i i i i i i i i i u u b v N b b b b b u a i i i i i i i i p i i i a a A c.f.+.o.                              ",
"                              o.a.H.m.5.m i i i i i i i i i i i i i i p p p p p p p p p p p i i i i i i p p i i i i i a V z.H.a.X.                              ",
"                              +.v.I.m.5.m i i i i t t t i t t t i i i i p i i p i a p i i p i i t t t t t r e i i i i i V z.J.v.+.                              ",
"                              d.H.J.m.5.m i i i e w 0 w 0 w 0 0 r i i i i i p i i p i a i i p t w w w w w 0 w e i i i a V z.I.H.d.                              ",
"                                J.J.m.3.m i p i e 0 0 0 0 0 0 0 e i i i i p i i i i p i i i i t 0 0 0 0 0 0 0 e i i i a V z.J.J.                                ",
"                                J.J.m.6.a i i i t 0 0 0 0 0 0 0 t p a p p i i p a i i i i i i e 0 0 0 0 0 0 0 e i i i a A z.I.I.                                ",
"                                J.J.V.6.m i i i i 0 0 0 0 0 0 w i i i i a i i i p i i p i i i i e 0 0 0 0 0 w i i i i m 4.x.I.J.                                ",
"                                J.J.S.i.m i p i i r w w 0 w e t i i i i a p a p i i i i i i i i t w 0 0 0 w r i p i i m i.V.J.J.                                ",
"                                  J.D.p.Z i i i i p t e e e i i i i p i i i i i p i i i i i p i i i e e e i i i i i i B z.K.J.                                  ",
"                                  J.J.V.1.v i i i i i i i i i i i y y i                 i y y i i i i i i i i i i i v D V.J.J.                                  ",
"                                      n.f 7 q i i i t i i i i i 9 6 O                     @ 6 9 i i i i i t i i i q 8 f n.                                      ",
"                                        # o O @ @ @ @ @ @ @ @ @ O o X                     X o O @ @ @ @ @ @ @ @ @ @ + #                                         ",
"                                        X X . . . . . . . . . . . X X                     X . . . . . . . . . . . . X X                                         ",
"                                        X X X X X X X X X X X X X X X                     X X X X X X X X X X X X X X X                                         ",
"                                          X X X X X X X X . X X X X X                     X X X X X X X X X X X X X X                                           ",
"                                              X X X X X X X X X X                             X X X X X X X X X X                                               ",
"                                                                                                                                                                ",
"                                                                                                                                                                ",
"                                                                                                                                                                ",
"                                                                                                                                                                ",
"                                                                                                                                                                ",
"                                                                                                                                                                ",
"                                                                                                                                                                ",
"                                                                                                                                                                ",
"                                                                                                                                                                "
};
