/* XPM */
static char *_8b11ee0b6d446bde5aecaa81632080dsZqoZMKoiU6qRbfg[] = {
/* columns rows colors chars-per-pixel */
"80 80 200 2 ",
"   c None",
".  c #2D3232",
"X  c #333333",
"o  c #3B3633",
"O  c #3E3834",
"+  c #4A3634",
"@  c #443A34",
"#  c #4B3D35",
"$  c #593734",
"%  c #663A35",
"&  c #6B3B35",
"*  c #723D36",
"=  c #534236",
"-  c #5C4537",
";  c #5E5A3E",
":  c #5E543A",
">  c #644634",
",  c #664A37",
"<  c #694937",
"1  c #654B38",
"2  c #694C39",
"3  c #6A4736",
"4  c #734C39",
"5  c #7A4537",
"6  c #64543C",
"7  c #6E513D",
"8  c #61593E",
"9  c #71533F",
"0  c #79543D",
"q  c #5C5E40",
"w  c #605E41",
"e  c #735641",
"r  c #765943",
"t  c #795C46",
"y  c #7C5F48",
"u  c #5C6443",
"i  c #536C46",
"p  c #5B6946",
"a  c #576543",
"s  c #4A7A4B",
"d  c #537A4D",
"f  c #557249",
"g  c #7D6049",
"h  c #6A6F4E",
"j  c #8A3E37",
"k  c #923F37",
"l  c #8D4C39",
"z  c #834939",
"x  c #974438",
"c  c #AA4639",
"v  c #BA4B3A",
"b  c #B84739",
"n  c #C7493A",
"m  c #D2493A",
"M  c #DD4A3A",
"N  c #DB533E",
"B  c #ED473A",
"V  c #E64C3C",
"C  c #E94A3B",
"Z  c #E5503E",
"A  c #A55B46",
"S  c #82654D",
"D  c #876A51",
"F  c #8C7257",
"G  c #94765B",
"H  c #977A5E",
"J  c #986444",
"K  c #B86B48",
"L  c #B1714B",
"P  c #A07C4F",
"I  c #9B7D61",
"U  c #D55942",
"Y  c #CA5E43",
"T  c #E85442",
"R  c #E75845",
"E  c #C76547",
"W  c #D96A52",
"Q  c #EB644E",
"!  c #EC6B55",
"~  c #E66F56",
"^  c #ED745C",
"/  c #EE7E63",
"(  c #F07D63",
")  c #3F8B52",
"_  c #349C59",
"`  c #399657",
"'  c #2BAA5F",
"]  c #2AA95E",
"[  c #32A15B",
"{  c #2AAD60",
"}  c #3CAC63",
"|  c #27B162",
" . c #28B162",
".. c #29B966",
"X. c #2ABD69",
"o. c #36B968",
"O. c #38B468",
"+. c #3CB871",
"@. c #44834F",
"#. c #4C8A54",
"$. c #468651",
"%. c #439C5C",
"&. c #489157",
"*. c #528754",
"=. c #75995B",
"-. c #41A15E",
";. c #7D9E60",
":. c #55B468",
">. c #51B56F",
",. c #65A762",
"<. c #65BC72",
"1. c #2CC46C",
"2. c #2DC96F",
"3. c #33C36D",
"4. c #37C56E",
"5. c #2DCC71",
"6. c #27CE71",
"7. c #32CC72",
"8. c #3ACD74",
"9. c #26D173",
"0. c #41CD76",
"q. c #48CD78",
"w. c #5ED07F",
"e. c #57CF7D",
"r. c #978654",
"t. c #8A8757",
"y. c #8F8C68",
"u. c #AA8D6D",
"i. c #A48568",
"p. c #BB9C7A",
"a. c #B39574",
"s. c #AF9271",
"d. c #BFA17E",
"f. c #A9AD76",
"g. c #9E9662",
"h. c #DA9570",
"j. c #F29474",
"k. c #E68365",
"l. c #C4A07D",
"z. c #F4A07E",
"x. c #74B787",
"c. c #55C182",
"v. c #6AD284",
"b. c #73D286",
"n. c #76D689",
"m. c #6DCA8F",
"M. c #A49287",
"N. c #91BB80",
"B. c #AFA699",
"V. c #C8AB86",
"C. c #C5A783",
"Z. c #CDB28B",
"A. c #D3B48D",
"S. c #DCBD95",
"D. c #D7B991",
"F. c #F6A885",
"G. c #F9BC94",
"H. c #F8B892",
"J. c #F7B48E",
"K. c #88D48D",
"L. c #97D591",
"P. c #89CF89",
"I. c #A6D695",
"U. c #BAD99C",
"Y. c #A6CB8C",
"T. c #96D8B2",
"R. c #85D2A6",
"E. c #A8DFBF",
"W. c #9BE6BB",
"Q. c #9DE9BE",
"!. c #A0E8BE",
"~. c #D9C798",
"^. c #C2DA9E",
"/. c #E3C49A",
"(. c #E8C99E",
"). c #C9DBA1",
"_. c #D5DCA4",
"`. c #ECCEA2",
"'. c #EFD0A4",
"]. c #E4DDA8",
"[. c #ECDDAB",
"{. c #E1DCA7",
"}. c #F1D2A6",
"|. c #FCD3A6",
" X c #F4DBAB",
".X c #FBDCAE",
"XX c #F7D5A9",
"oX c #FEDFB0",
"OX c #F5CCA1",
"+X c #FFE0B1",
"@X c #EFE0AD",
"#X c #BFE7D0",
"$X c #C0D5C4",
"%X c #C9EBD7",
"&X c #EBF9F1",
"*X c #FFFFFF",
"=X c #FDFEFE",
"-X c #F6F5F4",
";X c #E9EAE6",
":X c #D8F3E4",
/* pixels */
"                                                                                                                                                                ",
"                                                                                                                                                                ",
"                                                                                                                                                                ",
"                                                                                                                                                                ",
"                                                                                                                                                                ",
"                                                                                                                                                                ",
"                                                                                                                                                                ",
"                                                    2 2 2 2 2 3 < < < < < 3 2 2 < 3 2 3 2 2 2 , < < < 2 <                                                       ",
"                                                1 3 % w w w q q 8 6 ; ; q q 6 q w q : w q : w q q : 6 1 1 2 3 2                                                 ",
"                                              3 2 1 w q q f s s $.$.@.$.s $.@.@.s @.@.s ) s s s $.@.f a q 6 6 6 2 2 2                                           ",
"                                            2 2 e i ` [ { ] { { { { ] { { { { { { { { { { { { { { [ ' [ _ ` s i w 2 2 1 2 2                                     ",
"                                          2 2 w s [ { | | { |  .{ | | { | | { |  . . . .| | { | | | | | { { { _ ` $.i : 2 2 2                                   ",
"                                          e e p [ | | |  .|  . . . . . . . . . . . . . . . . . .| |  . .| | | | | { _ $.f q 1 2 ,                               ",
"                                        1 % q s | | | |  .|  . . . . . . .|  . . . . . . . . . .| |  . . . . . .| | | | _ s q 2 2 ,                             ",
"                                        1 2 p `  .| | | | | | |  .{ |  . . . . . . . . . . . . . . . . . . . . .| | | | { { ) a 6 2 2                           ",
"                                        1 3 h >.c.+.| | | | | |  . .| |  . . . . . .{  . . . . . . . . . . . .| | | | | | | { ` i 2 2                           ",
"                                        2 3 y.$X%X%XT.m.+.| | | | { |  . . . . . . . . . . . . . . . . . . . . . . . .|  .| | { ` a 2 2                         ",
"                                        2 > M.;X=X=X&X%XT.c.| |  . . . . . . . .|  . . . . . . . . .|  . .|  . . . . . . .{ |  .{ ) ; , 2                       ",
"                                        3 > M.;X=X=X=X=X&XE.>...| |  . . . . . . . . . . . . . . . . . . . . . . . . . . . .| | | ] i 2 2                       ",
"                                        2 > M.-X=X=X=X=X=X&XT.>.| |  . . . . . . . . . . . . . . . . . . . . . . . . . . . . .| | { $.q , 2                     ",
"                                        2 > B.=X=X=X=X=X=X=X=Xn.+. . . .| | | |  . . .'  . . . . .{  . . . . . . . . . . . . . .| | _ i , 2                     ",
"                                  2 2 2 2 > B.=X=X=X=X=X=X=X=X#Xc. . . .| | | |  . .| |  . . . . .|  . . . .| |  . . . . . . . .| | { s 3 2                     ",
"                            , , , 3 1 6 6 : B.&X&X&X&X&X&X&X:X:Xm.] { | ] | | ] | | | | | | |  . . . . . .| | |  . . . . . .|  .{ | ..@.2 2                     ",
"                        , < , 6 w p f *.#.#.x.!.W.W.W.W.W.W.W.#Xm................... . . . .| | | |  . .{ { | | |  . . . . . . .| | | ) 8 2                     ",
"                      2 2 6 q *.%.o.5.5.5.5.5.7.7.5.7.5.7.5.7.5.9.5.5.5.5.5.1.1.1.1.1.X....... . . . . . . .|  . . .| |  . . . .| | | ) ; 1                     ",
"                    , 2 u &.} 3.3.5.5.5.5.5.5.5.5.5.5.5.5.5.5.5.5.5.9.7.5.5.5.5.2.5.2.2.2.2.2.2.1.1.X.X... . . . . . . . . . . .| | ..) ; 1                     ",
"                    2 3 *.o.2.5.5.5.5.5.5.5.7.5.5.7.5.5.7.5.5.5.5.5.7.7.5.7.5.5.5.5.5.5.2.5.5.5.5.2.2.2.1.2.1.1.X..... . . . . .| | ..@.2 2                     ",
"                    2 , #.5.5.6.5.5.5.5.5.5.5.5.5.5.5.5.5.5.5.7.5.5.5.5.5.5.5.5.5.7.5.5.2.7.5.5.7.5.5.5.5.2.5.5.2.1.1.X.X.X... .| | ] s , 2                     ",
"                    2 < f -.o.o.3.2.3.3.2.2.5.6.6.5.6.5.5.5.6.5.6.2.6.5.5.5.5.5.2.2.6.5.5.7.7.7.5.5.5.5.7.5.5.5.7.5.5.5.5.5.1.1.X. .{ d 2 2                     ",
"                      2 7 w *.*.%.-.-.-.-.} o.+.q.q.0.0.8.8.0.8.8.8.8.8.8.7.7.7.7.7.7.2.2.2.2.2.5.5.5.5.2.7.5.5.5.5.5.5.5.5.5.5.5.5.} d < 2                     ",
"                      2 2 2 6 6 6 6 6 6 6 6 ; t.{.].).U.U.U.U.I.L.K.K.K.K.b.c.w.w.e.0.7.7.5.8.2.7.2.5.5.2.2.5.2.5.5.2.2.5.6.5.2.7.5.} f < 2                     ",
"                          , 2 , , < 2 2 2 2 > G oX+X+X X X X@X[.].].{.{.{._._._._._.^.^.^.^.^.P.*.#.#.#.&.%.-.-.-.} O.o.O.o.O.O.o.} d 6 2                       ",
"                                          2 > G .XoX+X+X+X+X+X+X+X+X+X+X+X+X+X+XoXoXoX+X+X+X+XZ.h w w w q q p p p f f d d d d d d f 6 2 <                       ",
"                                          2 > G .X+X+XoXoX+XoX+X+X+X+X}.~.A.~..XoXoX+XoXoX+XoX/.u.e 3 % 1 1 3 3 3 1 2 3 2 2 2 3 < < 2 2 2                       ",
"                                          2 > G +X+X+X+X+X+X+XoX+X+X Xl.S 1 G S. XoX+X+X+XoX+XoXC.e e t t y t r e 1 3 2 > e 2 2 2 6 2 2 2                       ",
"                                          2 > G .X+X+XoX+X+X+X+X+X+X}.G 2 > e i. X+XoX+X+X+X+X+X`.s.C.`.`.'.`.Z.I e 1 1 1 2 2 2 2 2 2 2 2                       ",
"                                          2 > G .X+X+X+XoX+X+X+X+X+X`.y 2 2 2 S '.+X+X+X+XoXoX+XXX`. XoX+X+X+X.XS.I 3 2 2 2 2 2 2 7 2 2 2                       ",
"                                        2 , > F .X+X+X+X+X+X+XoX+X+X`.r 1 2 > r '.+X+X+X+X+X+XoXoXoX+XoXoXoX+X+XoXA.F 2 2 2 2 2 2 2 2 2 2                       ",
"                                      2 2 e t u..X+X+X+X+X+X+X+X+X+X`.S 2 2 2 D '.+XoX+X+XoXoX+XoXoXoXoX+X+X+X+XoXXXC.2 1 2 2 2 2 2 2 2 2                       ",
"                                    2 2 t H d./.+X+X+X+XoX+X+X+X+X+X'.I e 1 r u.XX+X+X+X+X+X+X+XoXoXoXoX+X+X+XoXoX+XA.2 2 1 > e 2 2 2 2 2                       ",
"                                    2 7 i.S. X.X+X.X.X.X.X+X.X.X+XoX XA.D 2 I `.oXoXoXoX+X+X+X+XoX+XoX+X+XoX+X+XoX+XA.2 2 2 2 2 2 2 2 2 2                       ",
"                                    > r Z. X+X.X(.p.i.i.s.s.p.V./.oX+XXX~.D.`. XoXoXoXoXoX+XoX+X+X+X+X+X+X+X+XoXoX Xp.4 2 2 2 2 2 2 2 2 2                       ",
"                                  2 2 r C.`.oX`.u.S 7 9 t t y D I p.`.+X+X+X+X+X+XoXoXoX+X+X+X+X+X+X+X+X+XoX+XoXoXV.D 3 2 2 2 2 2 2 2 2 2                       ",
"                                    2 7 G s.Z.a.e , , 2 , 2 , , > t p.`.oX+X+X+X+X+XoXoX+XoX+XoXoX+XoX+X+X+X+XoX XM.D r 2 , 2 1 2 2 2 2                         ",
"                                    2 2 2 2 2 2 2 2 2 2 2 2 2 2 1 1 r C.}.oXoX+X+XoXoX+X+X+X+X+X+XoX+X+X+X+XoXoXoX`.Z.u.D t e e e 2 2 2                         ",
"                                        1 1 2 2 2 2 2 2 2 2 2 2 2 2 2 S S.+X+X+X+X+X+X+XoX+X+XoX+X+X+X+X+X+X+X+XoXoX X}.`.D.p.u.i.y 2 2                         ",
"                                        2 2 2 2 2 2 2 2 2 2 , 2 1 2 2 e D.+X+X+X+X+X+X+X+XoX+X+X+X+XoX+X+XoX+X+XoX+X+X+X+X.X'.`./.F 7 ,                         ",
"                                          2 2 2 2 , , > > > > > 2 g F u.`.+X+X+X+XoX+XoX+X+X+X+X+XoX+X+X+X+XoX+XoX+X+XoX+X+X+X+X/.D 2 1                         ",
"                                          2 2 2 6 p F G H H G G i.p.A.|.oXoX+X+X+X+X+XoX+X+XoXoXoX+X+X+XoXoXoXoX+XoX+X+X+X+X+X`.a.9 ,                           ",
"                                            2 2 u <.I._.[.].[.[.[.[.[. X[.@X@X|.|.|.|.|.|.|.|.[.[.[.[.[.[.@X@X[.[.@XXX|.XX|.OXC.9 2 2                           ",
"                                            < 8 #.3.q.v.b.b.b.n.w.P.w.n.w.w.n.f.k.k.k.k.k.k.h.f.b.b.b.b.b.b.b.b.b.P.f./ / / W A 2 2                             ",
"                                          2 < p O.5.5.7.8.8.8.8.8.8.8.0.0.e.t.E Z Z T Z Z Z r.:.8.8.8.8.7.7.7.5.7.7.,.E R T T v 2 7                             ",
"                                          2 2 d 7.5.5.5.2.5.2.5.2.2.6.6.:.=.E M C C C V C V =.2.6.5.5.q.n.L.L.L.L.n.w.t.M V C n z 7                             ",
"                                          2 6 #.5.5.2.2.5.5.5.6.6.2.0.:.r.Y B M C Z Z C C M ,.9.5.5.v.L._.+X+X+X+X{.Y.y.U V C m x < ,                           ",
"                                          2 u %.5.5.5.5.5.2.4.3.4.:.r.Y Z V V V Z C V V V Z ,.2.5.e.U. X+XoX+X+X+X+X@X~.~ V C M c 9 1                           ",
"                                          < p -.2.7.2.7.4.,.=.r.K N N M V V V V V C V V V Z t.4.q.L.[.+X+X+X+XoX+X+XoX XH.! V T v 4 2                           ",
"                                          2 0 J L L L L L E E N M C C V V V V C V V V V V V r.:.v.].oX+XoX+X+X+X+X+X+XoX.Xj.Q M v 4 2                           ",
"                                        , 2 z v B B B B B B C C C V V V V V V V V C C V V V Y t.K.+XoXoX+X+XoX+X+X+XoXoXoXz.Q V v 4 2                           ",
"                                      2 2 , z v V V V V V V V V V V V V C Z V V C Z V V V V V i.Y.oX+XoXoX+X+X+X+X+X+X+XoXJ.! M v 4 1 2                         ",
"                                    2 , 1 - 5 b V V V V V V V V V V V V C C C C V V V C V V V W h.oX+XoX+X+X+X+X+X+XoX+XoXF.! M v < , , 2                       ",
"                                  2 2 - # o $ c V V V V Z C C C C V V C Z V V V V V Z V V V V V k.|.+X+XoX+XoX+X+X+X+X+XoXz.Q M c + + - 2 2                     ",
"                                < 2 1 = o X + j V V V V V V V Z Z V V Z C Z V V V V V V V V V C Q z.|.+X+XoX+X+X+X+X+XoXH.^ Z m k @ X # - 2                     ",
"                                < 2 > o X X @ j V V V V V V V V C V C V V V V V V V V V V V V C Z ! j.z.J.G.G.G.OXJ.F.z.^ Z C m * o . o = 2 2                   ",
"                                < < = X X X X & m V V V C Z C C Z V V Z C V V V V V V V V V V V C V Z Q ^ k.( ( ( ^ Q Z V V C b $ X X o = 2 2                   ",
"                                2 2 - @ X X X + k m V V V V V V V V V V V V V V V V V V V V V V V V V V V V V Z V V V V V V m k o X X o # 1 2                   ",
"                                  2 1 = X X X X $ k m V V V M V V V V V V V V V V V M V V V V V M V V V V M V V V V V V M m j + X X X @ > 2                     ",
"                                  2 1 - @ X X X o + % % % % % % & z l l z l l l l l l l l l l l l l l l l z & % % % % % % $ + X X X @ - 1 2                     ",
"                                    2 2 - # X X X . . . . . . . o = 1 1 , 1 1 1 1 1 1 1 6 1 1 2 1 1 1 1 , - o . . . . . . . X X X @ - 1 2                       ",
"                                      2 2 - # o X X X X X X X . O - 1 2 2 2 2 2 6 , 2 2 7 , 2 2 2 2 2 2 2 - @ X X X . X X X X o @ - 1 2 2                       ",
"                                        2 2 1 = O o X X X X X X # - ,                                   2 1 = X X X X X X X O = 1 , 2 2                         ",
"                                          2 2 1 - - @ o X X X @ - 2 2                                   2 , - @ X X X O @ = > 2 2 2                             ",
"                                            2 2 2 1 1 - - $ - - 1 2                                       2 , - - - - - - 2 2 2 2                               ",
"                                                2 2 2 2 2 2 2 2 2 2                                       2 2 2 2 2 7 2 2 2 2                                   ",
"                                                      2 2 2 2 2                                               2 2 2 2 2                                         ",
"                                                                                                                                                                ",
"                                                                                                                                                                ",
"                                                                                                                                                                ",
"                                                                                                                                                                ",
"                                                                                                                                                                ",
"                                                                                                                                                                "
};
