/* XPM */
static char *_e4d27d4be8043d5e23d4631ff2a9708FvJkIO4IeeJxrm5u[] = {
/* columns rows colors chars-per-pixel */
"80 80 202 2 ",
"   c None",
".  c #2D3232",
"X  c #333333",
"o  c #3B3633",
"O  c #3E3834",
"+  c #4A3634",
"@  c #443A34",
"#  c #4B3D35",
"$  c #583835",
"%  c #663A35",
"&  c #6B3B35",
"*  c #703E36",
"=  c #534236",
"-  c #5C4637",
";  c #5E5A3E",
":  c #5E543A",
">  c #644634",
",  c #664A37",
"<  c #694937",
"1  c #654B38",
"2  c #694C39",
"3  c #6A4736",
"4  c #734C39",
"5  c #7A4537",
"6  c #64543C",
"7  c #6E513D",
"8  c #61593E",
"9  c #71533F",
"0  c #79543D",
"q  c #5C5E40",
"w  c #605E41",
"e  c #735641",
"r  c #765943",
"t  c #795C46",
"y  c #7C5F48",
"u  c #5C6443",
"i  c #536C46",
"p  c #5B6946",
"a  c #576543",
"s  c #4A7A4B",
"d  c #537A4D",
"f  c #557249",
"g  c #7D6049",
"h  c #6A6F4E",
"j  c #8B3F37",
"k  c #923F37",
"l  c #844B39",
"z  c #8D4C39",
"x  c #804538",
"c  c #974438",
"v  c #A74639",
"b  c #BB4C3A",
"n  c #B54739",
"m  c #C6493A",
"M  c #D2493A",
"N  c #DD4A3A",
"B  c #DB533E",
"V  c #ED473A",
"C  c #E64C3C",
"Z  c #E94A3B",
"A  c #E5503E",
"S  c #A55B46",
"D  c #82654D",
"F  c #876A51",
"G  c #8C7257",
"H  c #94765B",
"J  c #97795E",
"K  c #986444",
"L  c #B86B48",
"P  c #B1714B",
"I  c #A07C4F",
"U  c #9B7D61",
"Y  c #D55942",
"T  c #CA5E43",
"R  c #E85442",
"E  c #E75845",
"W  c #C76547",
"Q  c #D96A52",
"!  c #EB644E",
"~  c #EC6B55",
"^  c #E66F56",
"/  c #ED745C",
"(  c #EE7E63",
")  c #F07D63",
"_  c #3F8B52",
"`  c #349C59",
"'  c #399657",
"]  c #2BAA5F",
"[  c #2AA95E",
"{  c #32A15B",
"}  c #2AAD60",
"|  c #3CAC63",
" . c #27B162",
".. c #28B162",
"X. c #29B966",
"o. c #2ABD69",
"O. c #36B968",
"+. c #38B468",
"@. c #3CB871",
"#. c #44834F",
"$. c #4C8A54",
"%. c #468651",
"&. c #439C5C",
"*. c #489157",
"=. c #528754",
"-. c #75995B",
";. c #41A15E",
":. c #7D9E60",
">. c #55B468",
",. c #51B56F",
"<. c #65A762",
"1. c #65BC72",
"2. c #2CC46C",
"3. c #2DC96F",
"4. c #33C36D",
"5. c #37C56E",
"6. c #2DCC71",
"7. c #27CE71",
"8. c #32CC72",
"9. c #3ACD74",
"0. c #26D173",
"q. c #41CD76",
"w. c #48CD78",
"e. c #5ED07F",
"r. c #57CF7D",
"t. c #978654",
"y. c #8A8757",
"u. c #88926A",
"i. c #AB8D6D",
"p. c #A48568",
"a. c #B19373",
"s. c #B99A79",
"d. c #BFA07D",
"f. c #A9AD76",
"g. c #9E9662",
"h. c #DA9570",
"j. c #F29474",
"k. c #E68365",
"l. c #C4A07D",
"z. c #F4A07E",
"x. c #74B787",
"c. c #55C182",
"v. c #63C68D",
"b. c #6AD284",
"n. c #73D286",
"m. c #76D689",
"M. c #73CD90",
"N. c #A49287",
"B. c #91BB80",
"V. c #AFA699",
"C. c #C7A984",
"Z. c #CCB38C",
"A. c #D3B48E",
"S. c #DCBD95",
"D. c #D7B991",
"F. c #F6A885",
"G. c #F9BC94",
"H. c #F8B892",
"J. c #F7B48E",
"K. c #88D48D",
"L. c #95D590",
"P. c #9ED693",
"I. c #89CF89",
"U. c #A6D695",
"Y. c #BAD99C",
"T. c #A6CB8C",
"R. c #96D8B2",
"E. c #85D2A6",
"W. c #A8DFBF",
"Q. c #9BE6BB",
"!. c #9DE9BE",
"~. c #A0E8BE",
"^. c #D9C798",
"/. c #C2DA9E",
"(. c #E3C49A",
"). c #E8C99E",
"_. c #C9DBA1",
"`. c #D5DCA4",
"'. c #ECCEA2",
"]. c #EFD0A4",
"[. c #E4DDA8",
"{. c #ECDDAB",
"}. c #E1DCA7",
"|. c #F1D2A6",
" X c #FCD3A6",
".X c #F4D6A9",
"XX c #F4DBAB",
"oX c #FBDDAE",
"OX c #FDD5A8",
"+X c #FEDFB0",
"@X c #F5CCA1",
"#X c #FFE0B1",
"$X c #EFE0AD",
"%X c #BFE7D0",
"&X c #C0D5C4",
"*X c #C9EBD7",
"=X c #EBF9F1",
"-X c #FFFFFF",
";X c #FDFEFE",
":X c #F6F5F4",
">X c #E9EAE6",
",X c #D8F3E4",
/* pixels */
"                                                                                                                                                                ",
"                                                                                                                                                                ",
"                                                                                                                                                                ",
"                                                                                                                                                                ",
"                                                                                                                                                                ",
"                                                                                                                                                                ",
"                                                                                                                                                                ",
"                                                      2 2 < < 2 < < < < < < < < < < < 3 2 2 2 3 < < < < 2 2                                                     ",
"                                                < < < 2 2 6 8 8 8 8 8 8 6 w 6 ; ; : w w w 6 q q w q w 1 2 3 3 ,                                                 ",
"                                          2 2 2 2 6 6 8 a i #.#.#.#.#.#.#.#.%.#.#.#.#.s #.#.s #.s s i a u 1 w & 2                                               ",
"                                    2 2 2 2 2 : i #.' { ] ] ] ] } } ] ] } } } } } } } } } } } } } } } } } ' s w 2 2                                             ",
"                                  1 1 2 6 i _ ` ` [ }  . .}  . . . . . ... .} .. . . . . . .}  . . . . .} } ` s 6 2 2                                           ",
"                              2 2 2 ; i %.` } .. . . . .}  ..... . .............} .............. .}  . ... . .{ i 2 2                                           ",
"                            < 2 2 u s {  ... . . . . . ............. ............... .} ........}  ...} .... . .s ; < 2                                         ",
"                          , 2 6 a %.}  .}  ......... ....... ...........} ............................ .......+.' p < 2                                         ",
"                          2 2 i ' }  . . . ................................... . ....... ...................@.c.,.h < 2                                         ",
"                        2 2 a ` ]  . ............. ............................................... . .@.v.R.*X*X&Xu.> 2                                         ",
"                      2 < ; %.}  . . . ... ....... ...................}  ....................... ...c.R.*X=X;X;X>XN.> 2                                         ",
"                      2 6 i ]  . . . . ...........} .......................................... .X.,.W.=X;X;X;X;X>XN.& 2                                         ",
"                    2 < ; #. . . . . . .........................................} ..........} ..,.R.=X;X;X;X;X;X:XN.3 3                                         ",
"                    2 < i `  .X............................... ............... . ........... .@.M.;X;X;X;X;X;X;X;XV.> 2                                         ",
"                    2 < s ]  . ............. ........... ..... ...........} .......... ... . .c.%X;X;X;X;X;X;X;X;XV.> < 2 2 2                                   ",
"                    , 6 #. . ............................... . .}  . . . . . ... . . . . . . .M.,X=X=X=X=X=X=X=X=XV.6 6 6 2 3 < < 2                             ",
"                    2 ; %. . ..... ................. . . . . . . . . . . .X.......X.X.X.X.X.X.v.!.Q.Q.Q.Q.Q.Q.Q.!.x.#.$.=.d p w 6 2 < <                         ",
"                    2 ; _  . ........... . . . . .}  . . . .....X...X.X.o.o.o.2.2.2.6.6.6.6.6.6.8.6.8.8.6.8.6.8.6.6.6.6.6.6.O.;.d 8 6 2 2                       ",
"                    2 ; _  . .....}  ....... . .......X.X.2.2.2.3.6.3.6.3.3.6.6.6.6.6.6.8.6.6.6.6.6.6.6.6.6.6.6.6.6.6.6.6.6.6.4.4.+.*.u < 2                     ",
"                    2 6 #. . . . . . .}  ...X.2.2.2.3.2.3.3.6.0.6.6.6.6.6.6.6.6.6.6.6.3.6.6.6.6.6.6.6.6.6.6.6.6.6.6.8.6.6.6.6.6.6.6.O.=.< 2                     ",
"                    2 3 s ]  ...X.X.o.o.2.2.2.3.3.8.6.8.6.6.8.8.6.6.6.6.6.8.6.6.6.6.6.6.6.6.6.8.6.6.6.6.8.6.6.6.6.6.6.6.6.6.6.6.6.7.3.$.< 2                     ",
"                    < < s ] X.o.o.2.3.6.6.6.3.6.6.6.6.6.6.8.6.6.6.6.6.6.6.6.6.6.3.6.6.6.3.7.6.6.6.6.6.7.6.6.6.7.6.3.6.6.6.4.4.4.O.O.{ f 2 2                     ",
"                    2 < f +.3.3.6.8.6.3.6.6.8.3.6.6.6.6.6.6.6.8.6.6.6.3.6.8.8.8.8.8.8.9.9.9.9.9.9.q.q.9.9.w.q.w.5.O.| ;.;.;.;.&.=.=.w 7 2                       ",
"                    2 < f | 6.8.6.6.3.8.6.6.6.6.3.3.8.3.6.3.6.8.8.8.8.6.8.q.c.b.b.r.M.K.K.K.K.L.U.Y.Y.Y.Y._.[.[.y.: 8 6 6 8 6 6 6 6 2 2 2                       ",
"                      2 6 d | O.O.O.O.O.O.+.| &.;.;.&.*.$.$.$.=.I././././._._._._.`.`.`.[.[.[.[.$XXX$XXXXX+X+X+XH > < < < < < < 2 < 2                           ",
"                      2 3 w f d d d d d d d f p p p p q 8 8 r h Z.+X+X#X#X#X#X#X#X#X#X#X#X#X#X#X#X#X#X#X#X#X#X+XH > 2                                           ",
"                      2 2 2 3 2 2 < < < < < < < 3 , > > 2 2 2 p.(.#X#X#X#X+X#X+XXX(.D.S.|.#X#X#X#X#X#X#X+X#X+X+XH - 2                                           ",
"                      2 2 2 1 2 2 2 2 2 < < 2 9 r y g t t 0 0 C.oX#X#X#X#X#X+X+XS.G , D C.XX#X#X#X#X#X#X#X#X+X+XH > 2                                           ",
"                      2 2 2 e 2 2 2 2 2 2 2 e J Z.).].].).C.a.(.oX+X#X+X+X+X#X|.p.e , 7 G ].#X#X+X#X+X#X+X#X+X+XH > ,                                           ",
"                      2 2 2 2 2 2 2 2 2 2 2 U S..X#X#X#XoXXX'.XX+X+X#X#X#X+X#X].D , , , g ].#X#X#X#X#X#X+X#X+X+XH > 2                                           ",
"                      2 2 2 2 2 2 2 2 2 2 G A.oX#X#X#X#X#X#X#X#X+X#X#X+X#X#X#X'.t > 2 , t ].#X#X+X#X#X+X#X#X+X+XG - , 2                                         ",
"                      2 2 2 2 2 2 2 2 2 2 C.XX#X#X#X#X#X#X#X#XoX#X#X#X#X#X#X#X].D 7 2 2 g ].#X#X#X#X+X#X#X#X#X+Xi.D y 2 7                                       ",
"                      2 2 2 2 2 2 2 2 2 2 A.#X#X#X#X#X#X#X#X#X#X#X#X#X+X#X+X#XXXi.t , 9 J |.#X#X#X#X#X#X+X#X+X+X).A.s.D 2 ,                                     ",
"                      2 2 2 2 2 2 7 2 2 2 A.#X#X#X#XoX#X#X#X#X#X+X#X+X#X#X#X#X+X'.U 2 F A.oXoXoX+X#XoXoX+XoX+X#XoXoX).a.e ,                                     ",
"                      2 2 2 2 2 2 2 2 2 2 s.|.#X#X#X#X#X#X#X#X#X#X#X#X#X+X#X#X+X+X(.A.S.oX#XoX(.C.a.a.a.p.p.s.).oX#X#X(.t ,                                     ",
"                        2 2 2 2 2 2 2 2 1 F C.+X#X#X#X#X#XoX#X#X#X+X+X#X#X#X+X#X#X#X#X#XoX).N.U F g t t 7 7 g i.).#XXXA.r , 2                                   ",
"                        2 2 2 2 2 , , 2 r D d.XXoX#X#X#X#X#X#X#X#X#X#X#X+X#X#X#X#X#X#X#X@Xs.D > , 2 , 1 2 2 2 e s.D.d.J 7 2                                     ",
"                        2 2 2 e e e t F p.Z.].+XoX#X#X#X#X#X#X#X#X+X+X#X#X#X#X+X#X#X#X{.C.e 3 2 2 2 2 2 2 2 2 2 2 7 7 2 2 2                                     ",
"                        2 2 D p.i.s.D.]..XXX+X+X#X#X#X#XoX#X#X#X#X#X#X#X#X+X#X#X#X#X#XS.g e 1 1 2 2 2 2 2 2 2 2 , 2 , ,                                         ",
"                        2 2 G ^.'.].oX#X#X#X+X+XoX#X#X#X#X#X#X#X#X#X#X#X#X+X#X+X#X#X#XD.e , , > 2 2 2 2 2 2 2 2 2 2 2 ,                                         ",
"                          2 F (.#X#X#X#X#X+X+X+X#X#X#X#X#X#X#X#X+X#X#X+X#X#X#X#X#X#X#X'.i.G y e > > > 1 > , < 2 2 2 2                                           ",
"                          1 e a.'.#X#X#X#X#X#X#X#X#X#X#X#X#X#X#X#X#X#X#X#X#X#X#X#X#XoXoX|.A.s.p.H J J J H G p 6 2 2 2                                           ",
"                          2 2 e l.|.OXOXOXXXXXoX{.{.{.{.{.{.{.{.XX X X X X X X XXX{.XXXX{.{.{.{.{.[.{.{.[.U.,.h 2 ,                                             ",
"                            2 2 S ^ k.k.k.f.I.e.n.n.n.n.n.m.n.n.f.h.k.k.k.k.k.k.f.I.e.n.n.n.n.n.n.n.n.n.b.q.4.$.8 <                                             ",
"                            2 < m Z A A W <.8.8.8.8.8.8.8.9.9.9.>.t.E A A Z A A W -.w.8.9.9.9.9.9.9.9.9.8.6.3.O.p , 2                                           ",
"                            2 l m Z Z B t.1.m.L.L.L.L.m.w.8.3.7.3.-.C C C C C Z C L y.,.7.3.7.3.2.3.3.7.3.6.6.8.d 2 2                                           ",
"                          1 9 c M C Z B u.T.`.#X#X#XoX`.P.e.8.6.0.<.C C C C C C Z V B t.>.@.6.6.7.6.6.6.8.3.6.3.$.8 2                                           ",
"                          , 4 v N C A ^ `.$X#X#X#X#X#X#X$XY.w.8.7.<.N C C C C C C C B B T y.>.5.5.4.8.3.6.3.6.3.&.u <                                           ",
"                          2 9 b N Z ~ H.oX#X#X#X#X#X#X#X#X{.U.w.5.-.C C C C C C C C C C C B Y L t.-.<.5.6.8.3.8.&.p <                                           ",
"                          2 4 b C E j.OX#X#XoX#XoX#X#X#X#X+X{.b.>.I C C C C C C C C C C Z Z Z C Y T L L P P P P K 0 ,                                           ",
"                          2 4 b N ~ F.oX#X#X#X#X#X#X#X#X#X#X#XK.:.B C Z C C C C C C C C C C C C Z V V V V V V V b z 2 <                                         ",
"                        1 2 4 b N ~ F.oX#X#X#X#X#X#X#XoX#X#X#XT.t.Z C C C C C C Z C C C C C C Z C C C C C C C C b l , 2 2                                       ",
"                      2 1 , < b C ~ J.#X#XoX#X#X#X#X#X#X#X#X#Xh.Q V C C C C Z Z Z R Z C C C R Z C C C C C C C C n 5 - , 2 2                                     ",
"                    2 2 - # + v N ! z.oX#X#X#X#X#X#X#X#X#X#XOXk.A Z C Z C C C C C C C C C C C Z C C C C C C Z C v % o # 1 , ,                                   ",
"                    < 1 # o o j M A / H.#X#X#X#X#X#X#X#X#XOXz.! C Z C Z C C C C C C C C C C C R C C C C C C C C k + X o # 1 2 <                                 ",
"                  2 < = o X X & m Z E / j.F.J.G.G.G.@XF.z.j.~ A C C A Z C C C C Z C C C C C C C C C C C C C C Z * + X X o - 2 2                                 ",
"                  2 2 # X X X + n C Z C E ! / k.) ) k./ E C C C C C Z A A C C C R Z C C C Z C Z C C C C C C C M & X X X X - 2 2                                 ",
"                  2 2 = o X X X j M C C C C C C C C C C C C C C C C C C C C C C C C C C C C C C C C C C C C M k + X X X O - 2 2                                 ",
"                    < - @ X X X + c M N C C C C C N C C C C C C C C C C N C C C C C N C C C C C C C C N C M k $ X X X X # , 2                                   ",
"                    2 1 - @ X . X + $ % % % % % % 3 l z z z z z z z z z z z z z z z z z z z x 3 % % % % % % + X X X X @ 1 2 2                                   ",
"                      2 , - @ o X X . . . . . . . o - 1 - 1 1 1 1 1 1 7 6 1 1 1 1 1 6 1 1 1 = o . . . . . . . X . o # - 1 2                                     ",
"                      2 2 1 1 @ o X X X X X X X X O > 2 2 2 2 2 2 2 2 2 2 2 2 2 , , 2 2 2 2 - O X . X X . X X X o # - 2 2                                       ",
"                        2 2 , , = @ X X X X X . X + 1 2                                   2 - @ X X X X X X X @ = , 2 2                                         ",
"                            2 2 1 > = + o X X X @ - 1 2                                   2 2 - @ X X X o # $ 1 2 2 2                                           ",
"                              2 < 2 1 - - - - - 1 2 2                                       2 , - - - = - 1 1 2 2 2                                             ",
"                                  2 2 2 2 2 2 2 2 2 2                                       2 2 2 2 2 < 2 2 2 2                                                 ",
"                                        2 2 2 2 2                                               2 1 2 2 2                                                       ",
"                                                                                                                                                                ",
"                                                                                                                                                                ",
"                                                                                                                                                                ",
"                                                                                                                                                                ",
"                                                                                                                                                                ",
"                                                                                                                                                                "
};
