/* XPM */
static char *e9b0a114cc0a4064a7217d33e1267855Q8lWpjmwYSd15n20[] = {
/* columns rows colors chars-per-pixel */
"50 50 203 2 ",
"   c None",
".  c #651904",
"X  c #6B1C05",
"o  c #751D0A",
"O  c #761F08",
"+  c #762105",
"@  c #7D2406",
"#  c #7C240A",
"$  c #7C290D",
"%  c #83240A",
"&  c #8A270A",
"*  c #8C2A09",
"=  c #872D0F",
"-  c #942D09",
";  c #942F07",
":  c #9D3406",
">  c #9B3209",
",  c #99340A",
"<  c #893615",
"1  c #963816",
"2  c #A23607",
"3  c #A53806",
"4  c #AB3B05",
"5  c #A03508",
"6  c #A53A0C",
"7  c #A93E0B",
"8  c #B03E06",
"9  c #A33D14",
"0  c #B44204",
"q  c #BB4505",
"w  c #B64A00",
"e  c #BA4C01",
"r  c #B5460C",
"t  c #BC4C0C",
"y  c #BF550B",
"u  c #AB431B",
"i  c #B24815",
"p  c #B74E26",
"a  c #AB5727",
"s  c #B65626",
"d  c #BB6B3B",
"f  c #C44B04",
"g  c #C94E03",
"h  c #CD5203",
"j  c #C55409",
"k  c #D55402",
"l  c #DC5A02",
"z  c #DB5E09",
"x  c #D65904",
"c  c #E25E01",
"v  c #DF640F",
"b  c #CE661A",
"n  c #D26314",
"m  c #D2661E",
"M  c #E56102",
"N  c #EC6400",
"B  c #E96509",
"V  c #F26B0B",
"C  c #EC6D19",
"Z  c #E86A17",
"A  c #F26E15",
"S  c #E9741A",
"D  c #F3721C",
"F  c #FF7B1B",
"G  c #C25A2F",
"H  c #C95F34",
"J  c #C75F32",
"K  c #DC7725",
"L  c #CC6133",
"P  c #D06633",
"I  c #D66B3C",
"U  c #C57C3C",
"Y  c #D97836",
"T  c #D86C27",
"R  c #EC7423",
"E  c #E3762D",
"W  c #F67D2C",
"Q  c #F37523",
"!  c #E7763B",
"~  c #F47F37",
"^  c #D96F41",
"/  c #DF7340",
"(  c #E87B47",
")  c #DD822D",
"_  c #DB8635",
"`  c #ED852A",
"'  c #FF8523",
"]  c #FF932F",
"[  c #ED833A",
"{  c #FC8236",
"}  c #FF8E34",
"|  c #F58139",
" . c #FA8D3C",
".. c #F78436",
"X. c #FF9333",
"o. c #FF9B3C",
"O. c #D7874F",
"+. c #DB9953",
"@. c #FB8E42",
"#. c #F68A4A",
"$. c #FD9244",
"%. c #FE9D45",
"&. c #FF964C",
"*. c #FE994C",
"=. c #F29E43",
"-. c #F68B54",
";. c #F78D58",
":. c #EC985E",
">. c #FF9553",
",. c #FF955D",
"<. c #DFAC5D",
"1. c #FFA142",
"2. c #FFA64B",
"3. c #FFAA4E",
"4. c #FFA843",
"5. c #FFB04A",
"6. c #FFAC54",
"7. c #FEAE5B",
"8. c #FEA55B",
"9. c #FFB454",
"0. c #FFBC56",
"q. c #FFBA5B",
"w. c #FAB25F",
"e. c #FE9E69",
"r. c #DBAE6A",
"t. c #DFBA7E",
"y. c #FFAB6D",
"u. c #F8A966",
"i. c #FFB464",
"p. c #FFB76D",
"a. c #FFBC67",
"s. c #FDAD73",
"d. c #E0B272",
"f. c #FFBA74",
"g. c #FFBB7C",
"h. c #FFB57D",
"j. c #FFC463",
"k. c #FFCB6C",
"l. c #F9C768",
"z. c #F5D06F",
"x. c #FFCB72",
"c. c #FAC97A",
"v. c #FFD37C",
"b. c #F8D677",
"n. c #DEBC82",
"m. c #FEBF83",
"M. c #F9B985",
"N. c #E6C488",
"B. c #FFCD8C",
"V. c #FFC585",
"C. c #FFDE84",
"Z. c #ECCF95",
"A. c #FFCC93",
"S. c #FDCA95",
"D. c #EED494",
"F. c #FFD49B",
"G. c #F8DB98",
"H. c #FFE183",
"J. c #FDEA86",
"K. c #FFE688",
"L. c #FFEE8B",
"P. c #FFF08F",
"I. c #FFEE91",
"U. c #FCE49D",
"Y. c #F9E698",
"T. c #FFF094",
"R. c #FFF19B",
"E. c #FFCFA3",
"W. c #FFD5AD",
"Q. c #FFDDBB",
"!. c #FFEEAC",
"~. c #FAE8A3",
"^. c #FFF2A4",
"/. c #FFFBA5",
"(. c #FFF3AB",
"). c #FFFFAC",
"_. c #FFEFB0",
"`. c #FFF5B1",
"'. c #FFFCB4",
"]. c #FFF6BC",
"[. c #FFFFBD",
"{. c #FFDFC3",
"}. c #FFEFCC",
"|. c #FFE6CC",
" X c #FFF7C5",
".X c #FFFCC2",
"XX c #FFFDCC",
"oX c #FFEDDC",
"OX c #FFE9D5",
"+X c #FFFED4",
"@X c #FFFADB",
"#X c #FFF6D8",
"$X c #FFF4E3",
"%X c #FFFCE2",
"&X c #FFF6E9",
"*X c #FFFDEB",
"=X c #FFFFF2",
"-X c #FFFEF6",
";X c #FFFDF5",
":X c #FFFFF9",
">X c white",
",X c #FFFFFD",
"<X c #FFFFFF",
/* pixels */
"                                      *.*.*.                                                        ",
"                                *.*.>.@.N N D @.&.                                                  ",
"                                        W N N N N D #.                                              ",
"                                        &.N N N N N N [                                             ",
"                                        &.N M.N N N N Z                                             ",
"                                        Q N &XN N N N N T                                           ",
"                                      $.N N $XN N N N N m                                           ",
"                                  *.W N N }.G.N N N N n                                             ",
"                              *.$.N N N #.-XA N N N n j                                             ",
"                          *.&.B N N N s.=X(.N N N f                                                 ",
"                        *.D N N N N #X:X`.N N e e                                                   ",
"                      $.N N N N S.=X,X`.C x e                                                       ",
"                  $...N N N #.-X.X,X`.R h e e e                                                     ",
"                  ~ N N N %X*X(.-X.XC M e M N j e                                                   ",
"                | M N S -X`.(.(.,XA N e M M e                                                       ",
"              [ M M =.@X(.(.(.=Xu.M c 0 M N w   w e e e j b ) _ +.d.D.~.                            ",
"            E B M ` (.(.(.(.(.:Xc M c 3 c c 0 M V F ' ] o.4.5.9.0.q.q.0.c.^.                        ",
"            E c M T.^.^.^.^.(.;XB l c c k c c g V F ] %.3.0.j.j.k.k.k.j.j.0.j.(.                    ",
"          m c c i.J.^.^.^.(.(.;Xc c l c c k l B D X.2.q.k.v.v.L.L.L.K.H.v.k.0.9.(.                  ",
"          b c l T.T.^.^.^.^.^.%X:.l l l l z l S } 6.x._.*X,X,X,X,X:X.X).T.H.k.q.6.!.                ",
"          z l S L.T.R.R.^.^.^.(.-Xl l l l v S  .!.-X,X,X,X,X,X,X,X,X,X,X%X).L.x.0.2.(.              ",
"        e l l l.L.T.R.R.R.^.^.(.XX&Xk k m c.`..X:X,X,X,X,X,X,X,X,X,X,X,X,X,X'.I.k.7.1.(.            ",
"        e l x J.J.P.T.T.R.^.^.(.(.`.-X,X-X[..X=X,X,X,X,X,X,X,X,X,X,X,X,X,X,X,X'.C.a.2.Y.            ",
"        e x x L.P.P.T.T.R.^.^.(.(.`.(.`.'.[.+X,X,X,X,X,X,X,X,X,X,X,X,X,X,X,X,X%X/.x.7.$.`.          ",
"        h k K J.P.L.P.T.T.R.^.(.(.(.(.`.'.[.*X,X,X,X,X,X,X,X,X,X,X,X,X,X,X,X,X,X.XC.i.%.(.          ",
"        k k ) J.J.L.P.P.R.R.^.^.(.(.`.`.`.[.,X,X,X,X,X,X,X,X,X,X,X,X,X,X,X,X,X,X*XR.a.*.8.          ",
"        h h K J.J.P.P.L.I.R.R.^.(.(.(.(.`..X,X,X,X,X,X,X,X,X,X,X,X,X,X,X,X,X,X,X,Xv.%.$.{ ~.        ",
"        h h m b.L.L.L.P.P.T.R.^.^.(.(.(.(.XX,X,X,X,X,X,X,X,X,X,X,X,X,X,X,X,X,X,X,X6.2. .{ G.        ",
"        f h j z.P.L.L.L.L.T.T.R.^.^.(.(.`.*X,X,X,X,X,X,X,X,X,X,X,X,X,X,X,X,Xf.,Xm.OXi.} ~ D.        ",
"        0 f f _ J.L.L.L.L.L.T.T.R.^.^.(.'.,X,X,X,X,X,X,X,X,X,X,X,X,X,X,X,X,X7.,X{.,X%. .| N.        ",
"        4 f f j z.P.P.J.L.L.P.T.R.R.^.^.'.,X,X,X,X,X,X,X,X,X,X,X,X,X,X,X,X,X;Xi.,XS.X.&.| N.        ",
"        3 q q q ) P.J.P.J.L.P.T.T.T.R.^.'.;X%.%.M.,X,X,X,X,X,X,X,X,X,X,X,X,X,X6.p.2.f.>.~ n.        ",
"        : w q q t z.L.L.J.J.P.P.P.P.T.R./. X%.7.m.2.,X,X6.,X,X,X,X,X,X,X,X,X,Xi.p.+Xc.>.~ n.        ",
"          : 0 0 8 t J.L.L.L.P.J.L.L.P.T.R..XX.6.&X<Xi.oX,Xg.,X,X,X,X,X,X,X,X,X,X,XXXh.$.! n.        ",
"          X 4 0 8 0 r I.L.J.J.J.L.L.L.P.I.R.X.o.i.Q.E.6.6.V.:X:X,X,X,X,X,XoX6.,X:X!.y.#.! t.        ",
"            : 2 8 8 8 r T.P.P.P.L.L.L.L.L.T.T.X.o.2.2.W.6.6.&X;X,X,X,Xm.;XS.6.,X%XA.,.( O.          ",
"            . + 4 4 4 0 i ^.I.J.L.J.L.L.J.P.P.P.%.X.o.2.6.B.#X$X|.6.Q.OX6.,X,X,X~.y.-.Y +.          ",
"              @ 4 4 4 4 0 0 ^.T.P.J.L.L.J.P.J.L.L.I.R.^.`.].XX%XQ.,XW.,X,X,X,X@XM.-.( I             ",
"              + : : 3 % 6 4 6 d R.P.L.L.J.P.J.P.L.I.T.^.(.]. X@X-X,X,X,X,X,X&Xg.;.( P a             ",
"              X : : : : X 2 2 : 3 s L.L.L.L.P.L.L.I.T.R.!.`. X#X:X,X,X,X,XF.s.-.! J < <             ",
"              . , > > 6 2 * 2 6 5 2 2 6 U b.P.P.P.P.P.T.^.!.].@X,X,X&XS.s.e.-.^ G 1 = $             ",
"              . - - - 6 > + : : : 5 2 4 2 2 7 s <.J.P.P.I.R.I.Z.F.M.e.;.( ^ G p = # - &             ",
"                & * - - ; ; > > > : : 2 , 5 5 5 3 _ P.J.L.L.r.p . H L H G p u X = - * %             ",
"                . & & * * - & - > - > > > > > > - - 1 r.G.Y.a , > 1 9 u 9 # . . o & % .             ",
"                  o % % & & . % - - - ; ; - > > , , , & > > - , , . & . . * * .   . .               ",
"                  . o % % #     . . . # * - . - - - ; ; & - - - - #       . .                       ",
"                    . . . .                   + - - - * . - - * & %                                 ",
"                                              . @ * * & . . % % # o                                 ",
"                                                  . o .     . o o .                                 ",
"                                                                                                    "
};
