/* XPM */
static char *result[] = {
/* columns rows colors chars-per-pixel */
"80 80 73 1 ",
"  c #6C8284",
". c #6D8385",
"X c #6E8385",
"o c #71888A",
"O c #738A8C",
"+ c #748B8D",
"@ c #758C8E",
"# c #789092",
"$ c #799193",
"% c #7A9294",
"& c #7D9597",
"* c #7D9698",
"= c #7E9698",
"- c #7E9799",
"; c #7F989A",
": c #7F999B",
"> c #80989A",
", c #80999B",
"< c #809A9C",
"1 c #819A9C",
"2 c #819B9D",
"3 c #829B9D",
"4 c #839D9F",
"5 c #849D9F",
"6 c #849EA0",
"7 c #849FA1",
"8 c #859FA1",
"9 c #86A0A2",
"0 c #86A1A3",
"q c #87A2A4",
"w c #88A3A5",
"e c #89A3A5",
"r c #89A4A6",
"t c #89A5A7",
"y c #8AA5A7",
"u c #8AA6A8",
"i c #8BA7A9",
"p c #8CA8AA",
"a c #8DA9AB",
"s c #8EAAAC",
"d c #8EABAD",
"f c #8FABAD",
"g c #8FACAE",
"h c #90ADAF",
"j c #91AEB0",
"k c #92AEB0",
"l c #92AFB1",
"z c #93B0B2",
"x c #93B1B3",
"c c #94B1B3",
"v c #94B2B4",
"b c #95B3B5",
"n c #96B3B5",
"m c #96B4B6",
"M c #97B5B7",
"N c #97B6B8",
"B c #98B6B8",
"V c #98B7B9",
"C c #99B7B9",
"Z c #99B8BA",
"A c #9AB8BA",
"S c #9AB9BB",
"D c #9CBBBB",
"F c #9BBABC",
"G c #9BBBBC",
"H c #9BBBBD",
"J c #9CBABC",
"K c #9CBBBC",
"L c #9CBABD",
"P c #9CBBBD",
"I c #9CBCBE",
"U c #9DBCBE",
"Y c None",
/* pixels */
"YYYYYYJDKKPPPPPPPPPPPPPPPPPPPPPPPPPPPPPPPPPPPPPPPPPPPPPPPPPPPPPPPPPPPPKKDJYYYYYY",
"YYYYGPPPPPPPPPPPPPPPPPPPPPPPPPPPPPPPPPPPPPPPPPPPPPPPPPPPPPPPPPPPPPPPPPPPPPPPYYYY",
"YYYPPANbczllllllllllllllllllllllllllllllllllllllllllllllllllllllllllllzcbMZPHFYY",
"YYPFBzgpurwwwwwwwwwwwwwwwwwwwwwwwwwwwwwwwwwwwwwwwwwwwwwwwwwwwwwwwwwwwwrupflmSLYY",
"YPPMstrrrrrrrrrrrrrrrrrrrrrrrrrrrrrrrrrrrrrrrrrrrrrrrrrrrrrrrrrrrrrrrrrrrrrimJLY",
"JPClrrwwwwrrrrrrrrrrrrrrrrrrrrrrrrrrrrrrrrrrrrrrrrrrrrrrrrrrrrrrrrrrrrwwwwwrhBPY",
"JPnawwwrrrrrrrrrrrrrrrrrrrrrrrrrrrrrrrrrrrrrrrrrrrrrrrrrrrrrrrrrrrrrrrrrrwwrpbPD",
"JPcurwr92;-;;;;;;;;;;;;;;;;;;;;;;;;;;;;;;;;;;;;;;;;;;;;;;;;;;;;;;;;;;-;:7rwryxPJ",
"LPxtrwr3#++++++++++++++++++++++++++++++++++++++++++++++++++++++++++++++@:rrrwlPL",
"LPlwrrr;@@+@@@@@@@@@@@@@@@@@@@@@@@@@@@@@@@@@@@@@@@@@@@@@@@@@@@@@@@@@@@@+;rrrwlPL",
"PPlwrrr;+@@@@@@@@@@@@@@@@@@@@@@@@@@@@@@@@@@@@@@@@@@@@@@@@@@@@@@@@@@@@@@+-rrrwlPP",
"PPlwrrr-+@@@@@@@@@@@@@@@@@@@@@@@@@@@@@@@@@@@@@@@@@@@@@@@@@@@@@@@@@@@@@@+;rrrwlPP",
"PPlwrrr;+@@@@@@@@@@@@@@@@@@@@@@@@@@@@@@@@@@@@@@@@@@@@@@@@@@@@@@@@@@@@@@+;rrrwlPP",
"PPlwrrr;+@@@@@@@@@@@@@@@@@@@@@@@@@@@@@@@@@@@@@@@@@@@@@@@@@@@@@@@@@@@@@@+;rrrwlPP",
"PPlwrrr;+@@@@@@@@@@@@@@@@@@@@@@@@@@@@@@@@@@@@@@@@@@@@@@@@@@@@@@@@@@@@@@+;rrrwlPP",
"PPlwrrr;+@@@@@@@@@@@@@@@@@@@@@@@@@@@@@@@@@@@@@@@@@@@@@@@@@@@@@@@@@@@@@@+;rrrwlPP",
"PPlwrrr;+@@@@@@@@@@@@@@@@@@@@@@@@@@@@@@@@@@@@@@@@@@@@@@@@@@@@@@@@@@@@@@+;rrrwlPP",
"PPlwrrr;+@@@@@@@@@@@@@@@@@@@@@@@@@@@@@@@@@@@@@@@@@@@@@@@@@@@@@@@@@@@@@@+;rrrwlPP",
"PPlwrrr;+@@@@@@@@@@@@@@@@@@@@@@@@@@@@@@@@@@@@@@@@@@@@@@@@@@@@@@@@@@@@@@+;rrrwlPP",
"PPlwrrr;+@@@@@@@@@@@@@@@@@@@@@@@@@@@@@@@@@@@@@@@@@@@@@@@@@@@@@@@@@@@@@@+;rrrwlPP",
"PPlwrrr;+@@@@@@@@@@@@@@@@@@@@@@@@@@@@@@@@@@@@@@@@@@@@@@@@@@@@@@@@@@@@@@+;rrrwlPP",
"PPlwrrr;+@@@@@@@@@@@@@@@@@@@@@@@@@@@@@@@@@@@@@@@@@@@@@@@@@@@@@@@@@@@@@@+;rrrwlPP",
"PPlwrrr;+@@@@@@@@@@@@@@@@@@@@@@@@@@@@@@@@@@@@@@@@@@@@@@@@@@@@@@@@@@@@@@+;rrrwlPP",
"PPlwrrr;+@@@@@@@@@@@@@@@@@@@@@@@@@@@@@@@@@@@@@@@@@@@@@@@@@@@@@@@@@@@@@@+;rrrwlPP",
"PPlwrrr;+@@@@@@@@@@@@@@@@@@@@@@@@@@@@@@@@@@@@@@@@@@@@@@@@@@@@@@@@@@@@@@+;rrrwlPP",
"PPlwrrr;+@@@@@@@@@@@@@@@@@@@@@@@@@@@@@@@@@@@@@@@@@@@@@@@@@@@@@@@@@@@@@@+;rrrwlPP",
"PPlwrrr;+@@@@@@@@@@@@@@@@@@@@@@@@@@@@@@@@@@@@@@@@@@@@@@@@@@@@@@@@@@@@@@+;rrrwlPP",
"PPlwrrr;+@@@@@@@@@@@@@@@@@@@@@@@@@@@@@@@@@@@@@@@@@@@@@@@@@@@@@@@@@@@@@@+;rrrwlPP",
"PPlwrrr;+@@@@@@@@@@@@@@@@@@@@@@@@@@@@@@@@@@@@@@@@@@@@@@@@@@@@@@@@@@@@@@+;rrrwlPP",
"PPlwrrr;+@@@@@@@@@@@@@@@@@@@@@@@@@@@@@@@@@@@@@@@@@@@@@@@@@@@@@@@@@@@@@@+;rrrwlPP",
"PPlwrrr;+@@@@@@@@@@@@@@@@@@@@@@@@@@@@@@@@@@@@@@@@@@@@@@@@@@@@@@@@@@@@@@+;rrrwlPP",
"PPlwrrr;+@@@@@@@@@@@@@@@@@@@@@@@@@@@@@@@@@@@@@@@@@@@@@@@@@@@@@@@@@@@@@@+;rrrwlPP",
"PPlwrrr;+@@@@@@@@@@@@@@@@@@@@@@@@@@@@@@@@@@@@@@@@@@@@@@@@@@@@@@@@@@@@@@+;rrrwlPP",
"PPlwrrr;+@@@@@@@@@@@@@@@@@@@@@@@@@@@@@@@@@@@@@@@@@@@@@@@@@@@@@@@@@@@@@@+;rrrwlPP",
"PPlwrrr;+@@@@@@@@@@@@@@@@@@@@@@@@@@@@@@@@@@@@@@@@@@@@@@@@@@@@@@@@@@@@@@+;rrrwlPP",
"PPlwrrr;+@@@@@@@@@@@@@@@@@@@@@@@@@@@@@@@@@@@@@@@@@@@@@@@@@@@@@@@@@@@@@@+;rrrwlPP",
"PPlwrrr;+@@@@@@@@@@@@@@@@@@@@@@@@@@@@@@@@@@@@@@@@@@@@@@@@@@@@@@@@@@@@@@+;rrrwlPP",
"PPlwrrr;+@@@@@@@@@@@@@@@@@@@@@@@@@@@@@@@@@@@@@@@@@@@@@@@@@@@@@@@@@@@@@@+;rrrwlPP",
"PPlwrrr;+@@@@@@@@@@@@@@@@@@@@@@@@@@@@@@@@@@@@@@@@@@@@@@@@@@@@@@@@@@@@@@+;rrrwlPP",
"PPlwrrr;+@@@@@@@@@@@@@@@@@@@@@@@@@@@@@@@@@@@@@@@@@@@@@@@@@@@@@@@@@@@@@@+;rrrwlPP",
"PPlwrrr;+@@@@@@@@@@@@@@@@@@@@@@@@@@@@@@@@@@@@@@@@@@@@@@@@@@@@@@@@@@@@@@+;rrrwlPP",
"PPlwrrr-O++++++++++++++++++++++++++++++++++++++++++++++++++++++++++++++O-rrrwlPP",
"PPlwrrr6-;;;;;;;;;;;;;;;;;;;;;;;;;;;;;;;;;;;;;;;;;;;;;;;;;;;;;;;;;;;;;;-6rrrwlPP",
"PPlwrrwrrrrrrrrrrrrrrrrrrrrrrrrrrrrrrrrrrrrrrrrrrrrrrrrrrrrrrrrrrrrrrrrrrwrrwlPP",
"PPlwwwrrrrrrrrrrrrrrrrrrrrrrrrrrrrrrrrrrrrrrrrrrrrrrrrrrrrrrrrrrrrrrrrrrrrwwwlPP",
"PPlwrrrrrrrrrrrrrrrrrrrrrrrrrrrrrrrrrrrrrrrrrrrrrrrrrrrrrrrrrrrrrrrrrrrrrrrrwlPP",
"PPNksrwwwwwwwwwwwwwwwwwwwwwwwwwwwwwwwwwwwwwwwwwwwwwwwwwwwwwwwwwwwwwwwwwwwwrskNPP",
"PPFAMzllllllllllllllllllllllllllllllllllllllllllllllllllllllllllllllllllllzMAFPP",
"PPVmVJIUUUUUUUUUUUUUUUUUUUUUUUUUUUUUUUUUUUUUUUUUUUUUUUUUUUUUUUUUUUUUUUUUUIJVmVPP",
"PPh0abBVVVVVVVVVVVVVVVVVVVVVVVVVVVVVVVBNNBVVVVVVVVVVVVVVVVVVVVVVVVVVVVVVVBba0hPP",
"PPs,34555555555555555555555555555555563&&36555555555555555555555555555555543,sPP",
"PPs>,,,,,,,,,,,,,,,,,,,,,,,,,,,,,,,,,,=##=,,,,,,,,,,,,,,,,,,,,,,,,,,,,,,,,,,>sPP",
"PPs,1111111111111111111111111111111111-$$-1111111111111111111111111111111111,sPP",
"PPs,1111111111111111111111111111111111-$$-1111111111111111111111111111111111,sPP",
"PPs,1111111111111111111111111111111111-$$-1111111111111111111111111111111111,sPP",
"PPs,1111111111111111111111111111111111-$$-1111111111111111111111111111111111,sPP",
"PPs,1111111111111111111111111111111111-$$-1111111111111111111111111111111111,sPP",
"PPs,1111111111111111111111111111111111-$$-1111111111111111111111111111111111,sPP",
"PPs,1111111111111111111111111111111111-$$-1111111111111111111111111111111111,sPP",
"PIs,1111111111111111111111111111111111-$$-1111111111111111111111111111111111,sIP",
"FPs;,,,,,,,,,,,,,,,,,,,,,,,,,,,,,,,,,1-##-1,,,,,,,,,,,,,,,,,,,,,,,,,,,,,,,,,;sPF",
"sf1O++++++++++++++++++++++++++++++++++OooO++++++++++++++++++++++++++++++++++O1fs",
"qw% ...............XX..................XX..................XX............... %wq",
"sf1O++++++++++++++OooO++++++++++++++++++++++++++++++++++++OooO++++++++++++++O1fs",
"FPs;,,,,,,,,,,,,,1-##-1,,,,,,,,,,,,,,,,,,,,,,,,,,,,,,,,,,1-##-1,,,,,,,,,,,,,;sPF",
"PIs,11111111111111-$$-111111111111111111111111111111111111-$$-11111111111111,sIP",
"PPs,11111111111111-$$-111111111111111111111111111111111111-$$-11111111111111,sPP",
"PPs,11111111111111-$$-111111111111111111111111111111111111-$$-11111111111111,sPP",
"PPs,11111111111111-$$-111111111111111111111111111111111111-$$-11111111111111,sPP",
"PPs,11111111111111-$$-111111111111111111111111111111111111-$$-11111111111111,sPP",
"PPs,11111111111111-$$-111111111111111111111111111111111111-$$-11111111111111,sPP",
"PPf11,111111111111-$$-111111111111111111111111111111111111-$$-111111111111,11fPP",
"KPj51,111111111111-$$-111111111111111111111111111111111111-$$-111111111111,15jPK",
"FPvw,,111111111111-$$-111111111111111111111111111111111111-$$-111111111111,,wvPF",
"GPCf31,,1111111111-$$-111111111111111111111111111111111111-$$-1111111111,,13fCPG",
"YPPme3,11111111111-$$-111111111111111111111111111111111111-$$-11111111111,3emPPY",
"YYPSna8<>,,,,,,,,,*##*,,,,,,,,,,,,,,,,,,,,,,,,,,,,,,,,,,,,*##*,,,,,,,,,><8anSPYY",
"YYJPFMlfsssssssssdy11ydssssssssssssssssssssssssssssssssssdy11ydsssssssssflMFPJYY",
"YYYLLPPPPPPPPPPPPUMrrMUPPPPPPPPPPPPPPPPPPPPPPPPPPPPPPPPPPUMrrMUPPPPPPPPPPPPLLYYY",
"YYYYYJGPPPPPPPPPPPmrrmPPPPPPPPPPPPPPPPPPPPPPPPPPPPPPPPPPPPmrrmPPPPPPPPPPPGJYYYYY"
};
