/* XPM */
static char *result[] = {
/* columns rows colors chars-per-pixel */
"80 80 163 2 ",
"   c #424F51",
".  c #435052",
"X  c #445153",
"o  c #4B5A5B",
"O  c #4C5A5B",
"+  c #4C5B5C",
"@  c #4C5B5D",
"#  c #4D5B5D",
"$  c #4C5C5C",
"%  c #4C5C5D",
"&  c #4D5C5D",
"*  c #4D5C5E",
"=  c #4D5D5E",
"-  c #4E5D5E",
";  c #4E5D5F",
":  c #4E5E5F",
">  c #4F5E5F",
",  c #4F5E60",
"<  c #4F5F60",
"1  c #4F5F61",
"2  c #505F61",
"3  c #506061",
"4  c #506062",
"5  c #516062",
"6  c #516162",
"7  c #516163",
"8  c #516263",
"9  c #526264",
"0  c #536264",
"q  c #526364",
"w  c #526365",
"e  c #536365",
"r  c #536465",
"t  c #536466",
"y  c #546466",
"u  c #546566",
"i  c #546567",
"p  c #556567",
"a  c #556667",
"s  c #556568",
"d  c #556668",
"f  c #566668",
"g  c #566769",
"h  c #576769",
"j  c #56676A",
"k  c #56686A",
"l  c #57686A",
"z  c #58686A",
"x  c #58696B",
"c  c #596A6B",
"v  c #596A6C",
"b  c #596B6C",
"n  c #596B6D",
"m  c #5A6B6D",
"M  c #5A6C6E",
"N  c #5B6D6E",
"B  c #5B6D6F",
"V  c #5B6E6F",
"C  c #5C6D6F",
"Z  c #5C6E6F",
"A  c #5B6E70",
"S  c #5C6E70",
"D  c #5D6F70",
"F  c #5C6F71",
"G  c #5D6F71",
"H  c #5D7071",
"J  c #5D7072",
"K  c #5E7072",
"L  c #5E7172",
"P  c #5E7173",
"I  c #5F7173",
"U  c #5E7273",
"Y  c #5F7273",
"T  c #5E7274",
"R  c #5F7274",
"E  c #5F7374",
"W  c #5F7375",
"Q  c #607374",
"!  c #607375",
"~  c #607475",
"^  c #617475",
"/  c #607575",
"(  c #617575",
")  c #607476",
"_  c #617476",
"`  c #607576",
"'  c #617576",
"]  c #617577",
"[  c #637476",
"{  c #627577",
"}  c #637577",
"|  c #617677",
" . c #627677",
".. c #657577",
"X. c #627678",
"o. c #637779",
"O. c #647779",
"+. c #667678",
"@. c #64787A",
"#. c #65787A",
"$. c #65797A",
"%. c #64797B",
"&. c #65797B",
"*. c #66797B",
"=. c #667A7B",
"-. c #657A7C",
";. c #667A7C",
":. c #667B7D",
">. c #677B7D",
",. c #677C7E",
"<. c #68787A",
"1. c #697A7C",
"2. c #687B7D",
"3. c #6A7B7D",
"4. c #687C7E",
"5. c #687D7F",
"6. c #697D7F",
"7. c #6A7E7F",
"8. c #697E80",
"9. c #6A7E80",
"0. c #6A7F80",
"q. c #6B7F80",
"w. c #6A7F81",
"e. c #6C7F81",
"r. c #6B8082",
"t. c #6B8182",
"y. c #6B8183",
"u. c #6C8081",
"i. c #6E8081",
"p. c #6C8082",
"a. c #6C8183",
"s. c #6D8183",
"d. c #6F8082",
"f. c #6E8182",
"g. c #6C8283",
"h. c #6D8283",
"j. c #6C8284",
"k. c #6D8284",
"l. c #6D8385",
"z. c #6E8384",
"x. c #6F8384",
"c. c #6E8385",
"v. c #6E8486",
"b. c #6F8486",
"n. c #6F8587",
"m. c #708384",
"M. c #708385",
"N. c #708485",
"B. c #718485",
"V. c #728485",
"C. c #708486",
"Z. c #718586",
"A. c #728586",
"S. c #728587",
"D. c #738687",
"F. c #748687",
"G. c #708688",
"H. c #748788",
"J. c #728A8B",
"K. c #748B8D",
"L. c #768E90",
"P. c #789092",
"I. c None",
/* pixels */
"I.I.I.I.I.I.a.y.n.K.c.a.k.k.k.k.k.k.k.k.k.k.k.k.k.k.k.k.k.k.k.k.k.k.k.k.k.k.k.k.k.k.k.k.k.k.k.k.k.k.k.k.k.k.k.k.k.k.k.k.k.k.k.k.k.k.k.k.a.c.L.P.J.t.I.I.I.I.I.I.",
"I.I.I.I.9.a.g.a.l.b.k.k.k.k.k.k.k.k.k.k.k.k.k.k.k.k.k.k.k.k.k.k.k.k.k.k.k.k.k.k.k.k.k.k.k.k.k.k.k.k.k.k.k.k.k.k.k.k.k.k.k.k.k.k.k.k.k.k.k.k.n.G.v.a.a.j.I.I.I.I.",
"I.I.j.a.p.a.k.k.a.a.a.w.,.&.&.&.;.;.;.;.;.;.;.;.;.;.;.;.;.;.;.;.;.;.;.;.;.;.;.;.;.;.;.;.;.;.;.;.;.;.;.;.;.;.;.;.;.;.;.;.;.;.;.;.&.&.&.,.w.a.a.a.a.k.k.k.c.k.I.I.",
"I.I.k.k.k.k.s.k.k.k.a.8.%.] R P P P P P P P P P P P P P P P P P P P P P P P P P P P P P P P P P P P P P P P P P P P P P P P P P P R ] %.8.a.k.k.k.k.k.k.k.r.I.I.",
"I.0.k.a.a.k.k.k.k.k.k.a.a.6.o.! R T P R R R R R R R R R R R R R R R R R R R R R R R R R R R R R R R R R R R R R R R R R R P T R ! o.6.a.a.k.k.k.k.k.k.a.a.p.4.I.",
"I.w.a.r.a.a.k.k.k.k.k.k.a.a.r.,.X.R I P P P P P P P P P P P P P P P P P P P P P P P P P P P P P P P P P P P P P P P P P P I R X.,.r.a.a.k.k.k.k.k.k.a.a.r.a.8.I.",
"&.r.9.&.@.8.a.k.k.k.k.k.k.k.k.r.8.;._ A A A A A A A A A A A A A A A A A A A A A A A A A A A A A A A A A A A A A A A A A A _ ;.8.r.k.k.k.k.k.k.k.k.a.8.@.@.8.w.' ",
",.r.,.) W o.:.w.a.k.k.a.k.a.k.k.a.&.G g r q q q q q q q q q q q q q q q q q q q q q q q q q q q q q q q q q q q q q q r g G &.a.k.k.a.k.a.k.k.a.w.:.o.W W >.r.=.",
"6.a.:.W P P ! @.5.r.j.k.k.k.a.9.&.K l u 3 = + o o o o o o o o o o o o o o o o o o o o o o o o o o o o o o o o o o + = 3 u l K &.9.a.k.k.k.j.r.5.@.! P P P ;.a.8.",
"a.k.;.P R R R T ) -.w.a.a.a.8._ n g l g g e , + + + o + + + + + + + + + + + + + + + + + + + + + + + + + + o + + + , e g g l g n _ 8.a.a.a.w.-.) T R R R P ;.k.a.",
"k.k.&.P R R P P R ! X.4.8.#.S x l g g l l g i 8 = + o o + + + + + + + + + + + + + + + + + + + + + + + + o o + = 8 i g l l g g l x S #.8.4.X.! R P P R R P *.k.k.",
"k.k.;.P R R R I P P R ] F k l g g l l l l l g d t 3 $ o o + + + + + + + + + + + + + + + + + + + + + + o o $ 3 t d g l l l l l g g l k F ] R P P I R R R P ;.k.k.",
"k.k.;.P R R R R R P P R d = 7 p g l l l l g l l h i 7 : + o o + + + + + + + + + + + + + + + + + + o o + : 7 i h l l g l l l l g p 7 = d R P P R R R R R P ;.k.k.",
"k.k.;.P R R R R R R R R a o & 5 y g l l l l l g l l g r < & + o o + + + + + + + + + + + + + + o o + & < r g l l g l l l l l g y 5 & o a R R R R R R R R P ;.k.k.",
"k.k.;.P R R R R R R R R d o + + : 9 d g g l l l l l g l d 8 = + + o + + + + + + + + + + + + o + + = 8 d l g l l l l l g g d 9 : + + o d R R R R R R R R P ;.k.k.",
"k.k.;.P R R R R R R R R d o o o + + : e g l j l l l l l g g i 4 & o + + + + + + + + + + + + o & 4 i g g l l l l l j l g e : + + o o o d R R R R R R R R P ;.k.k.",
"k.k.;.P R R R R R R R R d o + + o o + - 6 a l l l l l g l l g d q , o o o + + + + + + o o o , q d g l l g l l l l l a 6 - + o o + + o d R R R R R R R R P ;.k.k.",
"k.k.;.P R R R R R R R R d o + + + + o o & < q d l l l g l l l l g y 4 ; + o o + + o o + ; 4 y g l l l l g l l l d q < & o o + + + + o d R R R R R R R R P ;.k.k.",
"k.k.;.P R R R R R R R R d o + + + + + o o o = 8 i g k l g l l g l l g w , & o o o o & , w g l l g l l g l k g i 8 = o o o + + + + + o d R R R R R R R R P ;.k.k.",
"k.k.;.P R R R R R R R R d o + + + + + + + o o + : e d g l l l l l l g g p 5 & + + & 5 p g g l l l l l l g d e : + o o + + + + + + + o d R R R R R R R R P ;.k.k.",
"k.k.;.P R R R R R R R R d o + + + + + + + + o + + & 3 i l g g l l l l l g d e 1 1 e d g l l l l l g g l i 3 & + + o + + + + + + + + o d R R R R R R R R P ;.k.k.",
"k.k.;.P R R R R R R R R d o + + + + + + + + + o o o & > 9 d g l g l l l l l g p p g l l l l l g l g d 9 > & o o o + + + + + + + + + o d R R R R R R R R P ;.k.k.",
"k.k.;.P R R R R R R R R d o + + + + + + + + + + + o o + = 3 t g l l l l l l l l l l l l l l l l g t 3 = + o o + + + + + + + + + + + o d R R R R R R R R P ;.k.k.",
"k.k.;.P R R R R R R R R d o + + + + + + + + + + + + + o o + , q d g g l l l l l l l l l l g g d q , + o o + + + + + + + + + + + + + o d R R R R R R R R P ;.k.k.",
"k.k.;.P R R R R R R R R d o + + + + + + + + + + + + + + + + + & 4 i g l l l l l l l l l l g i 4 & + + + + + + + + + + + + + + + + + o d R R R R R R R R P ;.k.k.",
"k.k.;.P R R R R R R R R d o + + + + + + + + + + + + + + + + + + > r g l l l l l l l l l l g r > + + + + + + + + + + + + + + + + + + o d R R R R R R R R P ;.k.k.",
"k.k.;.P R R R R R R R R d o + + + + + + + + + + + + + + o o & 4 y f g l l l l l l l l l l g f y 4 & o o + + + + + + + + + + + + + + o d R R R R R R R R P ;.k.k.",
"k.k.;.P R R R R R R R R d o + + + + + + + + + + + O o o + < 9 d j l l l l l l l l l l l l l l j d 9 < + o o O + + + + + + + + + + + o d R R R R R R R R P ;.k.k.",
"k.k.;.P R R R R R R R R d o + + + + + + + + + o o o + = 3 i g l l l l l l l g p p g l l l l l l l g i 3 = + o o o + + + + + + + + + o d R R R R R R R R P ;.k.k.",
"k.k.;.P R R R R R R R R d o + + + + + + + + o o + @ 1 t g g g l l l l l g d e 1 1 e d g l l l l l g g g t 1 @ + o o + + + + + + + + o d R R R R R R R R P ;.k.k.",
"k.k.;.P R R R R R R R R d o + + + + + + + o + + & 9 d g g l l l l l g g p 5 & + + & 5 p g g l l l l l g g d 9 & + + o + + + + + + + o d R R R R R R R R P ;.k.k.",
"k.k.;.P R R R R R R R R d o + + + + + o o o * 4 y f g l l l l g l l g w , & o o o o & , w g l l g l l l l g f y 4 * o o o + + + + + o d R R R R R R R R P ;.k.k.",
"k.k.;.P R R R R R R R R d o + + + + o o % < 9 p l l l g l l l l g y 4 ; + o o + + o o + ; 4 y g l l l l g l l l p 9 < % o o + + + + o d R R R R R R R R P ;.k.k.",
"k.k.;.P R R R R R R R R d o + + o o + = 3 i g l l l l g l l g d q , o o o + + + + + + o o o , q d g l l g l l l l g i 3 = + o o + + o d R R R R R R R R P ;.k.k.",
"k.k.;.P R R R R R R R R d o o o + + : q g l g l l l l l g g i 4 & o + + + + + + + + + + + + o & 4 i g g l l l l l g l g q : + + o o o d R R R R R R R R P ;.k.k.",
"k.k.;.P R R R R R R R R d o + + = 8 d g g l l l l l g l d 8 = + + o + + + + + + + + + + + + o + + = 8 d l g l l l l l g g d 8 = + + o d R R R R R R R R P ;.k.k.",
"k.k.;.P R R R R R R R R a o & 5 t d l l l h l g l l g r < & + o o + + + + + + + + + + + + + + o o + & < r g l l g l h l l l d t 5 & o a R R R R R R R R P ;.k.k.",
"k.k.;.P R R R R R P P R d = 7 p g l l l l g l l h i 7 : + o o + + + + + + + + + + + + + + + + + + o o + : 7 i h l l g l l l l g p 7 = d R P P R R R R R P ;.k.k.",
"k.k.;.P R R R I P P R ] F k l g g l l l l l g d t 3 $ o o + + + + + + + + + + + + + + + + + + + + + + o o $ 3 t d g l l l l l g g l k F ] R P P I R R R P ;.k.k.",
"k.k.;.P R R P P R ! X.4.8.#.S x l g g l l g i 8 = + o o + + + + + + + + + + + + + + + + + + + + + + + + o o + = 8 i g l l g g l x S #.8.4.X.! R P P R R P ;.k.k.",
"k.k.;.P R R R T ) -.w.a.a.a.8._ n g l g g e , + + + o + + + + + + + + + + + + + + + + + + + + + + + + + + o + + + , e g g l g n _ 8.a.a.a.w.-.) T R R R P ;.k.k.",
"k.k.;.P P P ! @.5.r.j.k.k.k.a.9.&.K l y 3 * o o o o o o o o o o o o o o o o o o o o o o o o o o o o o o o o o o o o * 3 y l K &.9.a.k.k.k.j.r.5.@.! P P P ;.k.k.",
"a.k.&.P W X.:.w.a.k.k.a.k.a.k.k.a.&.K b g a a d d d d d d d d d d d d d d d d d d d d d d d d d d d d d d d d d d a a g b K &.a.k.k.a.k.a.k.k.a.w.:.X.W P &.k.a.",
"k.k.;.) @.8.a.k.k.k.k.k.k.k.k.a.8.;.{ R R R R R R R R R R R R R R R R R R R R R R R R R R R R R R R R R R R R R R R R R R { ;.8.a.k.k.k.k.k.k.k.k.a.8.@.) ;.k.k.",
"M.z.6.>.r.a.k.k.k.k.k.k.k.a.r.5.X.R R R R R R R R R R R R R R R R R R R R R R R R R R R R R R R R R R R R R R R R R R R R R R X.5.r.a.k.k.k.k.k.k.k.a.r.>.6.z.M.",
"M.M.h.a.a.k.k.k.k.k.k.a.a.8.o.! R T P R R R R R R R R R R R R R R R R R R R R R R R R R R R R R R R R R R R R R R R R R R P T R ! o.8.a.a.k.k.k.k.k.k.a.a.h.M.M.",
"u.B.S.N.z.h.a.a.a.a.j.w.-.] R P P P P P P P P P P P P P P P P P P P P P P P P P P P P P P P P P P P P P P P P P P P P P P P P P P R ] -.w.j.a.a.a.a.h.z.N.S.B.u.",
"$.u.A.D.A.C.C.C.C.x.e.2.O.[ [ [ } } } } } } } } } } } } } } } } } } } } } } } } } } } } } } } } } } } } } } } } } } } } } } } } [ [ [ O.2.e.x.C.C.C.C.A.D.A.u.$.",
"~ $.q.m.Z.D.H.F.V.d.3.<.<.<.<.<.<.<.<.<.<.<.<.<.<.<.<.<.<.<.<.<.<.<.<.<.<.<.<.<.<.<.<.<.<.<.<.<.<.<.<.<.<.<.<.<.<.<.<.<.<.<.<.<.<.<.<.<.<.3.d.V.F.H.D.Z.m.q.$.~ ",
"' '  .$.7.f.m.i.1.+.........................................................................................................................+.1.i.m.f.7.$. .' ' ",
"' ~ ' ' ' Q C c z z z z z z z z z z z z z z z z z z z z z z z z z z z z z z z z z z z z z z z z z z z z z z z z z z z z z z z z z z z z z z z z c C Q ' ' ' ~ ' ",
"' ' / R V x f p p p p p p p p p p p p p p p p p p p p p p p p p p p p p p p p p p p p p p p p p p p p p p p p p p p p p p p p p p p p p p p p p p f x V R / ' ' ",
"' ' L m l s p p f f f p f f f f f f f f f f f f f f f f f f f f f f f f f f f f f f f f f f f f f f f f f f f f f f f f f f f f f f f f p f f f p p s l m L ' ' ",
"' ' B p p p f f f f f f 0 2 2 2 2 2 2 2 2 2 2 2 2 2 2 2 2 2 2 2 2 2 2 2 2 2 2 2 2 2 2 2 2 2 2 2 2 2 2 2 2 2 2 2 2 2 2 2 2 2 2 2 2 2 2 0 f f f f f f p p p B ' ' ",
"' ' B p f f f f f f f f # . X X X X X X X X X X X X X X X X X X X X X X X X X X X X X X X X X X X X X X X X X X X X X X X X X X X X . # f f f f f f f f p B ' ' ",
"' ' N p f f f f f f f f @ . . . . . . . . . . . . . . . . . . . . . . . . . . . . . . . . . . . . . . . . . . . . . . . . . . . . . . @ f f f f f f f f p N ' ' ",
"' ' B p f f f f f f f f # . X X X X X X X X X X X X X X X X X X X X X X X X X X X X X X X X X X X X X X X X X X X X X X X X X X X X . # f f f f f f f f p B ' ' ",
"' ' B p f f f f f f f f # . X X X X X X X X X X X X X X X X X X X X X X X X X X X X X X X X X X X X X X X X X X X X X X X X X X X X . # f f f f f f f f p B ' ' ",
"' ' B p f f f f f f f f # . X X X X X X X X X X X X X X X X X X X X X X X X X X X X X X X X X X X X X X X X X X X X X X X X X X X X . # f f f f f f f f p B ' ' ",
"' ' B p f f f f f f f f # . X X X X X X X X X X X X X X X X X X X X X X X X X X X X X X X X X X X X X X X X X X X X X X X X X X X X . # f f f f f f f f p B ' ' ",
"' ' B p f f f f f f f f # . X X X X X X X X X X X X X X X X X X X X X X X X X X X X X X X X X X X X X X X X X X X X X X X X X X X X . # f f f f f f f f p B ' ' ",
"' ' B p f f f f f f f f # . X X X X X X X X X X X X X X X X X X X X X X X X X X X X X X X X X X X X X X X X X X X X X X X X X X X X . # f f f f f f f f p B ' ' ",
"' ' B p f f f f f f f f # . X X X X X X X X X X X X X X X X X X X X X X X X X X X X X X X X X X X X X X X X X X X X X X X X X X X X . # f f f f f f f f p B ' ' ",
"' ' B p f f f f f f f f # . X X X X X X X X X X X X X X X X X X X X X X X X X X X X X X X X X X X X X X X X X X X X X X X X X X X X . # f f f f f f f f p B ' ' ",
"' ' B p f f f f f f f f # . X X X X X X X X X X X X X X X X X X X X X X X X X X X X X X X X X X X X X X X X X X X X X X X X X X X X . # f f f f f f f f p B ' ' ",
"' ' B p f f f f f f f f # . X X X X X X X X X X X X X X X X X X X X X X X X X X X X X X X X X X X X X X X X X X X X X X X X X X X X . # f f f f f f f f p B ' ' ",
"' ' B p f f f f f f f f # . X X X X X X X X X X X X X X X X X X X X X X X X X X X X X X X X X X X X X X X X X X X X X X X X X X X X . # f f f f f f f f p B ' ' ",
"' ' B p f f f f f f f f # . X X X X X X X X X X X X X X X X X X X X X X X X X X X X X X X X X X X X X X X X X X X X X X X X X X X X . # f f f f f f f f p B ' ' ",
"' ' B p f f f f f f f f # . X X X X X X X X X X X X X X X X X X X X X X X X X X X X X X X X X X X X X X X X X X X X X X X X X X X X . # f f f f f f f f p B ' ' ",
"' ' N p f f f f f f f f # . X X X X X X X X X X X X X X X X X X X X X X X X X X X X X X X X X X X X X X X X X X X X X X X X X X X X . # f f f f f f f f p B ' ' ",
"~ ' B p f f f f f f f f # . X X X X X X X X X X X X X X X X X X X X X X X X X X X X X X X X X X X X X X X X X X X X X X X X X X X X . # f f f f f f f f p B ' ' ",
"U ~ B f f f f f f f f f @   . . . . . . . . . . . . . . . . . . . . . . . . . . . . . . . . . . . . . . . . . . . . . . . . . . . .   @ f f f f f f f f p N ' ~ ",
"U ~ S h f p f f f f f f 5 @ # # # # # # # # # # # # # # # # # # # # # # # # # # # # # # # # # # # # # # # # # # # # # # # # # # # # @ 5 f f f f f f p f f Z '  .",
"~ ` J x p p f f f f f p f f f f f f f f f f f f f f f f f f f f f f f f f f f f f f f f f f f f f f f f f f f f f f f f f f f f f f f f p f f f f f p f x H | o.",
"~ ) E V f f p p f f f f f f f f f f f f f f f f f f f f f f f f f f f f f f f f f f f f f f f f f f f f f f f f f f f f f f f f f f f f f f f f p p p f M Y ' ) ",
"I.^ ' P v f p f f f f f f f f f f f f f f f f f f f f f f f f f f f f f f f f f f f f f f f f f f f f f f f f f f f f f f f f f f f f f f f f f f f f h J ` ^ I.",
"I.I.~ ~ L M l f p p p p p p p p p p p p p p p p p p p p p p p p p p p p p p p p p p p p p p p p p p p p p p p p p p p p p p p p p p p p p p p p f l n G ~ ~ I.I.",
"I.I.U ! ~ Y G C N B B B B B B B B B B B B B B B B B B B B B B B B B B B B B B B B B B B B B B B B B B B B B B B B B B B B B B B B B B B B B B N Z D P ~ W U I.I.",
"I.I.I.P ~ ` ~ ~ ' ' ' ' ' ' ' ' ' ' ' ' ' ' ' ' ' ' ' ' ' ' ' ' ' ' ' ' ' ' ' ' ' ' ' ' ' ' ' ' ' ' ' ' ' ' ' ' ' ' ' ' ' ' ' ' ' ' ' ' ' ' ' ' ~ ~ ` ( P I.I.I.",
"I.I.I.I.I.~ U E ' ' ' ' ' ' ' ' ' ' ' ' ' ' ' ' ' ' ' ' ' ' ' ' ' ' ' ' ' ' ' ' ' ' ' ' ' ' ' ' ' ' ' ' ' ' ' ' ' ' ' ' ' ' ' ' ' ' ' ' ' ' ' ' E U ~ I.I.I.I.I."
};
