/* XPM */
static char *ffa8e70ce4b74c29eecbf8abb0b54801xIcykFp1s7UesCA4[] = {
/* columns rows colors chars-per-pixel */
"80 80 236 2 ",
"   c None",
".  c #020200",
"X  c #060902",
"o  c #0A0C02",
"O  c #0B0806",
"+  c #140603",
"@  c #170903",
"#  c #0D1201",
"$  c #0B1B0A",
"%  c #101601",
"&  c #141C02",
"*  c #18140A",
"=  c #1A1713",
"-  c #050E15",
";  c #240C06",
":  c #241A15",
">  c #241D19",
",  c #2B1508",
"<  c #0C250B",
"1  c #1A2502",
"2  c #1E2903",
"3  c #192609",
"4  c #113914",
"5  c #0E2F10",
"6  c #212E03",
"7  c #262807",
"8  c #253403",
"9  c #2A3A02",
"0  c #2C3D0C",
"q  c #253409",
"w  c #343609",
"e  c #2A2815",
"r  c #362617",
"t  c #313116",
"y  c #0A1922",
"u  c #0E2534",
"i  c #1B303B",
"p  c #2B2722",
"a  c #323228",
"s  c #48170A",
"d  c #541B0B",
"f  c #6B1E0E",
"g  c #452A1A",
"h  c #592713",
"j  c #57351B",
"k  c #6A2611",
"l  c #792612",
"z  c #63391A",
"x  c #6E371B",
"c  c #782F16",
"v  c #46362D",
"b  c #5E3F2E",
"n  c #563B2B",
"m  c #4E3C33",
"M  c #553E33",
"N  c #432C22",
"B  c #623F2E",
"V  c #7D3421",
"C  c #1A531A",
"Z  c #2E4103",
"A  c #2E410D",
"S  c #314405",
"D  c #354A06",
"F  c #384E07",
"G  c #324408",
"H  c #354A09",
"J  c #394E09",
"K  c #3D5409",
"L  c #3F590C",
"P  c #395007",
"I  c #364B11",
"U  c #334630",
"Y  c #29632A",
"T  c #1D5521",
"R  c #425C0D",
"E  c #40530A",
"W  c #494D13",
"Q  c #425C11",
"!  c #4D561B",
"~  c #575A19",
"^  c #4A4111",
"/  c #684E19",
"(  c #45600F",
")  c #456211",
"_  c #486613",
"`  c #4B6B16",
"'  c #4D681A",
"]  c #4F7018",
"[  c #52741A",
"{  c #567A1B",
"}  c #597E1D",
"|  c #517316",
" . c #556B1E",
".. c #5F402E",
"X. c #5E492B",
"o. c #5E542A",
"O. c #5A5B25",
"+. c #5B4539",
"@. c #584538",
"#. c #474535",
"$. c #60412F",
"%. c #614A2F",
"&. c #634533",
"*. c #6B4D3B",
"=. c #644A35",
"-. c #6A5639",
";. c #70523F",
":. c #784B38",
">. c #566724",
",. c #5C7829",
"<. c #5F7334",
"1. c #616628",
"2. c #607923",
"3. c #627138",
"4. c #143548",
"5. c #163955",
"6. c #122B42",
"7. c #2A4154",
"8. c #1B4568",
"9. c #1C507C",
"0. c #295177",
"q. c #325677",
"w. c #545947",
"e. c #535249",
"r. c #6C5243",
"t. c #735443",
"y. c #7C5D4C",
"u. c #775947",
"i. c #715648",
"p. c #4C734B",
"a. c #69635A",
"s. c #7F6150",
"d. c #7A7A5A",
"f. c #6C704D",
"g. c #777469",
"h. c #842B13",
"j. c #943219",
"k. c #892B11",
"l. c #AF371A",
"z. c #A53F27",
"x. c #8E3820",
"c. c #954017",
"v. c #975926",
"b. c #AE4E2D",
"n. c #C64221",
"m. c #C84322",
"M. c #C75539",
"N. c #836453",
"B. c #866959",
"V. c #8A6C5B",
"C. c #896755",
"Z. c #8E705F",
"A. c #976152",
"S. c #B36B53",
"D. c #8E7161",
"F. c #927464",
"G. c #997D6C",
"H. c #977A69",
"J. c #AD7C65",
"K. c #A25C49",
"L. c #D17058",
"P. c #D87A62",
"I. c #C17A6B",
"U. c #3EA526",
"Y. c #3C9F23",
"T. c #5D831F",
"R. c #5E8421",
"E. c #499C20",
"W. c #608522",
"Q. c #628922",
"!. c #678D2A",
"~. c #6C942B",
"^. c #6A9329",
"/. c #70992E",
"(. c #729A31",
"). c #48A525",
"_. c #54A733",
"`. c #7AA437",
"'. c #4E9150",
"]. c #758A4E",
"[. c #6FA94D",
"{. c #748D74",
"}. c #62B058",
"|. c #76C966",
" X c #828E5C",
".X c #8B9768",
"XX c #9E8272",
"oX c #908D78",
"OX c #979E77",
"+X c #8C8A6E",
"@X c #A28575",
"#X c #A68C7C",
"$X c #AA8D7D",
"%X c #A08779",
"&X c #A68D72",
"*X c #98A779",
"=X c #CB8C7E",
"-X c #2A669B",
";X c #3678B4",
":X c #1F5A8C",
">X c #3D83C4",
",X c #4E93D2",
"<X c #67A4DC",
"1X c #AA9684",
"2X c #B59A8B",
"3X c #B59989",
"4X c #B78C81",
"5X c #8EB681",
"6X c #A5B28D",
"7X c #ADAA96",
"8X c #BCA292",
"9X c #B4AF99",
"0X c #B1B69A",
"qX c #B7B8A5",
"wX c #978E8B",
"eX c #C5AB9D",
"rX c #C5AB9C",
"tX c #CAB2A3",
"yX c #C9BAAA",
"uX c #D2BBAC",
"iX c #D5BFB1",
"pX c #C0978D",
"aX c #B6C3A0",
"sX c #91D484",
"dX c #CBC9B9",
"fX c #D9C3B5",
"gX c #DECABC",
"hX c #DDC8BA",
"jX c #D8C7B9",
"kX c #C4C0AE",
"lX c #D1D4C9",
"zX c #E9E4DE",
"xX c #FBF1EE",
"cX c #F6F8F5",
"vX c #EBEEE6",
"bX c #E0E5D1",
/* pixels */
"                                                                                                                                                                ",
"                                                                                                                                                                ",
"                                                                                                                                                                ",
"                                                                                                                                                                ",
"                                                                                                                                                                ",
"                                                                                                                                                                ",
"                                                                                                                                                                ",
"                                                                                                                                                                ",
"                                                                                                                                                                ",
"                                                                                                                                                                ",
"                                                                                                                                                                ",
"                                            ..                                                      ..$.                                                        ",
"                                          t.B.N.                                                    B.B.                                                        ",
"                                      ;.*.u.3XF.b                                                 =.@X@X*.*.;.                                                  ",
"                            ..b ....s.8X3X%XG.y.B                                                 &.N.G.$X2X1Xr.b ..b                                           ",
"                            N.V.F.F.%XuX8X@Xy.*...                                                $.t.C.$XrXrXG.F.D.V.y.                                        ",
"                          *.$XtXhXhXuXeXXXu.=.B         9 8 9 9 9 9 9 9 9 9 9 9 9 9 9 8 9 8         ..*.N.#XtXfXhXiXeXH.&.                                      ",
"                      ..*.u.s.B.Z.G.G.N.u.*.        9 9 D D D D D L L L L L L L K D D D D S 9 9       =.*.u.B.@XG.V.B.y.u.=.                                    ",
"                      B y.G.B.r...;.t.&...b       0 Z D K R R R R ` ] | ] [ [ ` ) R R R R P G Z G     ..b $.=.t.*.=.u.V.G.t.$.                                  ",
"                      B G.fXrXG...$...b ......B X.W R ) _ ` _ ` ` ` { Q.T.R.R.[ ` ` ` _ ` ` ) L W B b b ..B $...B *.$XtXtXB.$.                                  ",
"                    =.r.G.eXG.F.G.H.XX#X1X#X1XXXF.-.! _ ` ` ` | } !.^.~.Q.^.~.R.} T.] ` ` ` _ ! u.G.@X$X1X#X#XXXG.G.F.#XtXZ.;.B                                 ",
"                  B =.N.G.1XB.F.eXeXuXhXhXhXhXiX8Xs.o.' ' ` | T.^.~.(.~.Q.Q.(.Q.T.R.{ ] ' ' O.X.D.tXfXhXgXgXfXtXrX3XB.Z.1XZ.u.B                                 ",
"                  B B y.y.u.@X8XeXuXfXgXgXgXgXhXtXH.;.X.' | T.~.~.,.[ >.] ] [ ] { T.T.T.| ~ %.u.%XjXhXhXgXgXhXhXuXrX2XG.t.y.u.B                                 ",
"                  B &.N.t.&.F.3XrX8X8XuXuXuXuXfXfX3XB.B >.} T.^.^.R.R.T.R.R.{ { T.T.T.T.{ O.=.H.8XgXfXuXuXuXtX2X2X8X#XB.&.u.u.b                                 ",
"                    &.t.=.n u.H.8XD.B.1X2X8X8XtXfXtXXX=.1.T.T.T.^.(.^.R.(.^.T.R.T.Q.T.T.T.1.;.1XtXfXeX8X8X2XXXy.G.3XD.t.n *.r.B                                 ",
"                      : = : r.C.D.v > p i.F.F.1XtXeX#Xu.-.O.| } Q.Q.T.[ { { [ T.Q.Q.}  .o.-.C.3XtXtX%XF.F.e.p : =.F.C.M * = >                                   ",
"                      . . O v m m e % & r +.y.H.1X8X4Xs.*.o.| T.T.Q.R.R.R.R.R.R.T.Q.}  .%.;.V.3X2X$XD.t.m r 1 % r m m p . .                                     ",
"                            . . . 1 S E 1 = r.s.C.3X$Xs.*.o.W.Q.Q.Q./.`.`.`.`.^.Q.Q.W.2.%.:.V.3X$XN.y.@.X q P 9 & . . .                                         ",
"                                  6 S K S q e @.B.F.F.N.*.o.W.^.(./.`.`.~.^.^.Q.Q./.^.2.X.t.B.H.Z.N.v e 9 H F 9 2                                               ",
"                                  9 9 K K D 7 a +.+.+.+.%.1.T./.`.`.(./.Q.R.Q.R.^./.^.} O.X.+.+.+.M r 6 K K F 9                                                 ",
"                                  8 Z K K E ) q O O . O Q W.Q./.`.`./.Q.Q.T.Q.T.Q.Q.Q.W.W.I . . O O H Q K K F 9                                                 ",
"                                  9 Z K K R ` L 0 0 0 0 ] W.T.^.^./.^././././.^.R.Q.R.Q.W.Q A 0 A A Q ) K K F 9                                                 ",
"                                  9 Z K K L _ ` ` ` ` ` { T.T.T.T.Q.Q.~./././.!.T.T.T.T.T.| ` ` ` ` ` ) K K P Z                                                 ",
"                          9 9 9   9 Z K K L _ _ ` ` ` ` ] ` ] ` T.T.T.] [ [ ] T.T.] ` ] ] ` ` ` ` ` ` ) K K P 9     9 9 9                                       ",
"                          9 S S 9 8 Z K K L ) ) ) ) ( ( ( ) R _ ` { { T.R.R.{ { [ ` ) Q ) R ) ( ) ( ) R K K P 9 9 9 Z Z 9                                       ",
"                          9 P D 9 9 Z K K K K K K L R ( ( R R ) _ ` { Q./.~.R.[ ` ` Q R ) ) R R K R K K K K D 9 9 Z K D 8                                       ",
"                          Z R R F Z Z K K K K ) ` { R.~.~.W.' Q R _ [ R.R.R.R.] ) L ) [ !.~.!.T.| _ L K K K P 9 S K ) P 9                                       ",
"                          9 L Q R D S D K K R ) ` { R.!.~.~.W.' ) ` [ T.` ] T.] ` Q [ Q.~.^.!.} { ` ) L K P D S P Q ) F 9                                       ",
"                          9 D Q ` ( F 9 D L _ ` ` ` ` ` } Q.`.,.` ` ` ` ` ` _ ` ' ` !.(.Q.[ ` ` _ ` ` ) K Z Z P ) ` R D 9                                       ",
"                            Z L T.) D 9 D K L P D G S D F K R R R ` ) R ` ) R ) ) Q L Q K J S D D D K L K D Z P _ [ D Z                                         ",
"                            2 H } ) K S D K F S 8 2 1 1 1 2 9 S L ) R K ) R K ) ) K S 8 2 1 2 1 6 9 S F K D D K ] | q 6                                         ",
"                            . 3 ` ` ) K K P 9 9 q O . . . # 8 H K K K K K K K K K K S 6 X . . . % 9 9 S K K L ` ` Q $ .                                         ",
"                            . 1 ( R R K E ' f.d.f.T < . . X % 6 D K R ) ) ) ) K P S 2 < 4 $ . . a d.d.3.K K K R R J # .                                         ",
"                            . & S F K P K 1.OX0X0Xp.4 . X $ p q S K ) ] ] ] ` ) P Z t 4 T 5 . X w.yX9X.XQ K P K D 9 #                                           ",
"                                o 9 F 9 L ,.1XdXbXw.< . $ U OX3.K _ ` ` R.[ ` ` ) K f.g.T $ . < g.cXaX.X' D Z P 6 o                                             ",
"                                . 1 2 & G <.*XlXvX'.5 . 4 p.lX].) ` R.R.R.{ [ ] ` ) 5XaXY < X C {.cXdX.X' 0 1 2 &                                               ",
"                                  . . . q ,.OXdXvX'.C < C }.cX*X` ` Q.(.} R.R.[ ` ` aXlX'.C < Y 5XcXqX X' 3 . .                                                 ",
"                                      . q Q >.6XvX|.U.Y._.|.cX*X] T.^.`.(.!.R.T.{ ` aXbX}.U.Y.).sXcX.XO.L 1 .                                                   ",
"                                      . 1 9 F ].6X_.E.).).[.0X].` T.R.!.^.R.{ T.T.] .X*X_.).).E.[.6X<.H 8 &                                                     ",
"                                        . # D P P K R ' ` ` ` ` ] R.R.` ] ` ` T.T.| | ` ' ` _ R H J K q .                                                       ",
"                                        . o 9 Z S P E R ) ` ` ` ` [ { R.!.R.{ [ ` ` ` ` ` ( R E D Z Z 2 .                                                       ",
"                                          X 1 2 9 P E E ) ) ) ` ` Q ` R.!.!.T._ R ` _ _ ( R K K D 8 2 1 .                                                       ",
"                                            . & 9 F P K K K K ) Q Z P ` ` ` ` H D ` L K K K K K D 8 # .                                                         ",
"                                              O # 1 8 S P K K ) Q S A P _ Q H Z D ` R K E D 9 6 1 % o                                                           ",
"                                              + + @ * 2 9 S K ) R D S S L L Z Z J _ R K 0 9 & ; + .                                                             ",
"                                            . ; s s , + o 1 P K R ) L K K K P ) ) L K S % O @ f l                                                               ",
"                                            . v B.x.f f , ; 6 2 5 8 2 3 2 2 3 q q 2 2 7 s B g.4XI.                                                              ",
"                                            . a.tXb.l.m.k.s + . # = = # # o o = = O O ; f A.7XlXpXz.                                                            ",
"                                          2 X g.zXL.n.m.l.f r r #.H.f.G A H H d.d.r r , ; : p a a.3X:.d                                                         ",
"                                        Z 9 2 w.wXJ.S.S.j.k j g b J.oX.XOX.XOX&XA.N r t 7 3 3 2 #.a.N ,                                                         ",
"                                      9 D K K 6 = oX1X+X%.h z j h j.=XxXxXxXvXS.h.g w Z P K L _ G . . .                                                         ",
"                                    Z D K K K D 9 a a p s h z j x l.M.P.P.P.P.M.j.w J R K ) _ { _ 9 # .                                                         ",
"                                  9 Z P K K K G 8 % + @ d k z z V b.m.m.m.m.m.m.c.9 K ( K _ { R.| F & .                                                         ",
"                                  9 Z K K K K 7 .     d h.k.z z x.l.m.m.m.m.m.m.c.9 D K K | W.R.| J & .                                                         ",
"                                  # 2 P K D 2 o .     d k.b.9X2XH.l.l.m.m.m.n.l.K.7Xw.7 Z K _ _ H 1 #                                                           ",
"                                    & 9 0 8 X . .     g f A.zXlX1XV h.j.j.j.j.l K.zXg.e 2 8 Z A 1 .                                                             ",
"                                      X X X . .       i - m qX7XD.: @ @ @ + + + #.kXwXf.= X X X X                                                               ",
"                                                      4.5.7.e.e.U 5.8.8.5.5.5.5.7.w.@.7.5.u y O                                                                 ",
"                                                      4.9.8.y y 6.-X>X,X;X-X:X:X5.O . y 9.8.4.                                                                  ",
"                                                        5.8.9.-X;X>X,X<X,X-X5.u - . . - 4.4.4.                                                                  ",
"                                                          5.5.8.0.0.q.q.0.5.y 3 3 3 3 3 y u                                                                     ",
"                                                            . . X O O X X X . q J E J 0 o                                                                       ",
"                                                            2 8 9 9 0 9 8 1   % e ^ 7 %                                                                         ",
"                                                            w ^ ~ / / ~ w w     , j ,                                                                           ",
"                                                            r j / v.v.v.j g                                                                                     ",
"                                                                                                                                                                ",
"                                                                                                                                                                ",
"                                                                                                                                                                ",
"                                                                                                                                                                ",
"                                                                                                                                                                "
};
