/* XPM */
static char *_7567d08725f4f3edeaa7ffbe861eb50yzeHhpyBk5c0xbfU[] = {
/* columns rows colors chars-per-pixel */
"80 80 230 2 ",
"   c None",
".  c #010100",
"X  c #060A02",
"o  c #090D02",
"O  c #04090A",
"+  c #140C09",
"@  c #0D1202",
"#  c #071507",
"$  c #131B02",
"%  c #151507",
"&  c #091416",
"*  c #1B1714",
"=  c #040C13",
"-  c #2A0E07",
";  c #221915",
":  c #381306",
">  c #172102",
",  c #192403",
"<  c #1E2A04",
"1  c #1E2A09",
"2  c #103512",
"3  c #212D03",
"4  c #243204",
"5  c #293700",
"6  c #2A3B02",
"7  c #25340B",
"8  c #2A3C0C",
"9  c #273906",
"0  c #333A05",
"q  c #353B0B",
"w  c #242419",
"e  c #3A2A18",
"r  c #373B16",
"t  c #2C3916",
"y  c #0C1B27",
"u  c #0E222C",
"i  c #16212B",
"p  c #122836",
"a  c #16333A",
"s  c #2A2925",
"d  c #362D22",
"f  c #3B3B31",
"g  c #3A3729",
"h  c #561D0C",
"j  c #4E1609",
"k  c #6A1E0D",
"l  c #472E1D",
"z  c #48381A",
"x  c #593919",
"c  c #433305",
"v  c #79250D",
"b  c #672615",
"n  c #63391A",
"m  c #78391A",
"M  c #732C0F",
"N  c #46342B",
"B  c #5F3F2E",
"V  c #543D26",
"C  c #4F3C32",
"Z  c #453831",
"A  c #4D3629",
"S  c #653B24",
"D  c #164415",
"F  c #2E4104",
"G  c #2E410F",
"H  c #2A480F",
"J  c #324505",
"K  c #364B06",
"L  c #384E07",
"P  c #364C09",
"I  c #3A4D0A",
"U  c #34430C",
"Y  c #3C5409",
"T  c #3F580C",
"R  c #354B11",
"E  c #334512",
"W  c #3C5512",
"Q  c #244C13",
"!  c #3C5C22",
"~  c #257424",
"^  c #415C0D",
"/  c #43550B",
"(  c #464816",
")  c #425E11",
"_  c #47551C",
"`  c #535B1F",
"'  c #564117",
"]  c #674819",
"[  c #7B4D1E",
"{  c #45610F",
"}  c #456312",
"|  c #496613",
" . c #4B6B16",
".. c #4E6E19",
"X. c #4C6619",
"o. c #54691E",
"O. c #4F7118",
"+. c #4F7017",
"@. c #517216",
"#. c #527419",
"$. c #567A1C",
"%. c #597E1D",
"&. c #58731F",
"*. c #534924",
"=. c #5E412E",
"-. c #5A4A2A",
";. c #575829",
":. c #474538",
">. c #5C4639",
",. c #5D5332",
"<. c #4B5022",
"1. c #65442C",
"2. c #624331",
"3. c #6B4C3B",
"4. c #654837",
"5. c #66553C",
"6. c #6D512E",
"7. c #5B7E21",
"8. c #5D7522",
"9. c #4F6923",
"0. c #696A36",
"q. c #696B32",
"w. c #132F45",
"e. c #143446",
"r. c #183D5A",
"t. c #184363",
"y. c #1B4C72",
"u. c #1E5179",
"i. c #254967",
"p. c #28557B",
"a. c #2F516E",
"s. c #584D45",
"d. c #4A4841",
"f. c #735544",
"g. c #7A5C4A",
"h. c #745849",
"j. c #6B5244",
"k. c #77664C",
"l. c #7B6558",
"z. c #6D6A54",
"x. c #982C14",
"c. c #983417",
"v. c #A02D13",
"b. c #BD3D1E",
"n. c #A9381C",
"m. c #8D3722",
"M. c #845B1F",
"N. c #8F4E2B",
"B. c #A25F28",
"V. c #AD4D31",
"C. c #826453",
"Z. c #866B5A",
"A. c #8B6D5C",
"S. c #836A55",
"D. c #8B725D",
"F. c #877C5E",
"G. c #927058",
"H. c #A3745D",
"J. c #8E7262",
"K. c #8A7B6C",
"L. c #927464",
"P. c #957A6A",
"I. c #9B7E6D",
"U. c #947A67",
"Y. c #B57A66",
"T. c #CC7860",
"R. c #CE684D",
"E. c #468A1A",
"W. c #5C821E",
"Q. c #5E8322",
"!. c #469320",
"~. c #638A23",
"^. c #668C28",
"/. c #638826",
"(. c #6C942C",
"). c #689127",
"_. c #739C32",
"`. c #6F8C36",
"'. c #45B72A",
"]. c #79A336",
"[. c #76854F",
"{. c #73A151",
"}. c #82895B",
"|. c #858765",
" X c #9E8271",
".X c #918A6E",
"XX c #A18575",
"oX c #A58A7A",
"OX c #A98D7D",
"+X c #A6907B",
"@X c #9AAD7B",
"#X c #CA8E7B",
"$X c #235C8F",
"%X c #2E6698",
"&X c #2A6CA7",
"*X c #3777B1",
"=X c #467EAF",
"-X c #406C8E",
";X c #5D8DB8",
":X c #6392BB",
">X c #3F86C5",
",X c #498BC7",
"<X c #909584",
"1X c #AC9383",
"2X c #A99B87",
"3X c #B59A8A",
"4X c #B49989",
"5X c #BC978A",
"6X c #8EB48F",
"7X c #BCA293",
"8X c #B5AB97",
"9X c #A7AD8D",
"0X c #BCBCB7",
"qX c #C6AE9F",
"wX c #C3A99A",
"eX c #C9AFA0",
"rX c #CAB3A4",
"tX c #CFB7A8",
"yX c #C5BCAB",
"uX c #D2BBAC",
"iX c #D5BFB1",
"pX c #A1DE94",
"aX c #C9C2B3",
"sX c #D6C1B3",
"dX c #DAC4B6",
"fX c #DDC8BA",
"gX c #E8E6DF",
"hX c #F1F1EC",
"jX c #EEEFE9",
"kX c #F0DAD4",
/* pixels */
"                                                                                                                                                                ",
"                                                                                                                                                                ",
"                                                                                                                                                                ",
"                                                                                                                                                                ",
"                                                                                                                                                                ",
"                                                                                                                                                                ",
"                                                                      2.2.                                                                                      ",
"                                                                    f.g.3.4.                                                                                    ",
"                                                B 2.2.            =.J.4XJ.3.1.                                                                                  ",
"                                              J.oXI.Z.B         f.L.I.I.g.3.                                                                                    ",
"                                            g.oXiX7XP.2.      2.h.3XXXg.4.                                                                                      ",
"                                          g.7XrX7XC.3.        1.h.5XP.2.                                                                                        ",
"                                        =.g.rX7XL.f.          r *.k.5.( 0                                                                                       ",
"                                        =.g.rX X2.          5 6 6 6 6 6 6 6 6 6 F 6 6 5                                                                         ",
"                                        B h.7XP.B     5 5 F P Y L L / { ^ { { ) ^ L L K 6 6 8 V =.2.                                                            ",
"                                        B h.4X1XJ.f.( J q ( ( ( _ ( _ ` ;.` ` | | ^ ^ ^ L K 0 ( z z V                                                           ",
"                                        B f.4XuXtXC.*./ *.B =.2.B B 2.=.2.2.=.;. . . . . .{ Y 0 6 6 V =.2.                                                      ",
"                                        B 3.J.4XwXg.V *.A.OX4XOXL.3.k.oX1X1X X0.-.-.o.%...| { ^ Y K U ,. XC.                                                    ",
"                                        l A 3.L.I.A.C.Z.4XtXiX7XXXC.oXtXdXsXeX XC.C.q.8.@.+. . .} ^ K ;..XA.g.                                                  ",
"                                        . * V 2.j.1XeXiXdXiXeXL.g.4XtXfXfXfXfXsXeXwXS.,.7.$. .X. .| T K U F.OX5.                                                ",
"                                      5 o % 4.C.I.eXiXfXuXwX Xg.f.4X3X4XqXtXuXdXdXuX4XG.q.8.^.%.#. .} T P ;.k.U.C.                                              ",
"                                      5 , w >.L.7XuXiXtX1XK.j.B >.P.Z.h.oX3X3XuXdXdXtX4Xg.0.`.~.%.$.$...^ J <.+XA.=.                                            ",
"                                      5 R R * C L.7X4XJ.Z * + & + * * ; h.D.G.3XeXeXsXwXA.3.,.o.Q._._.^.| K E S.f.2.                                            ",
"                                    6 J ) } R r N s.s.N t 7 7 8 G G E t N >.S. XXXXXwXqXoXC.-.&.^.].].(. .T ( *.-.B                                             ",
"                                  5 F T } O.W.R # o o o R  . .$.Q.Q.W.$.1 d h.h.h.C.XX7XwXA.1.8.^._._.^. .) L 6 z =.                                            ",
"                                  5 J }  .O.W.$.| W W W }  . .O.O.O.%.W.O.R ; * N C.A.L.L.g.-.o.$.8.7.#. .) L 6 q                                               ",
"                                  F L |  .O.Q.Q.$...|  . . . . .O. .O.%.%.} 7 7 t C C C C ,.q.&.O.$.Q.Q.Q. .Y 6                                                 ",
"                                6 L ^ |  .O.W.$. . . . . . . . . . .O. . .$.Q./.) X . X . _ _.~.Q.Q._.].].Q.} 6                                                 ",
"                                6 K T  . .O.O.O. . . . . . . . . . . . . . .#.#. .H U R W $.).W.~.Q.).~.7.O.) F                                                 ",
"                                6 L T  . . . . . . . . . . . . . . . . . . . . . . . .O.%.W.W.W.W.W.W.Q.7.@.) 6                                                 ",
"                                6 T  . . . . . . . . .|  . . . . . . . . . . . . . . . . .O.+. . .O.W.).].Q.} 6                                                 ",
"                                6 Y  . . . . . .| } ^ }  .|  . . . . . . .O.%.%.#. .} { ) T ) ^ ) } @.W.(.#.Y 6                                                 ",
"                                6 T |  . . .{ ) { Y Y Y { | } | | | |  . .@.W.W.$.| { T { }  .| { / } +.W.} L 6                                                 ",
"                                5 L )  . .} J F F 6 J Y T T T T T T }  . .O.O.O.} T {  .%.).(._./.| ^ { ..{ L 6                                                 ",
"                                5 K T  . .) F F J K K K J J J L Y Y T }  .O.$.O.} }  . .$.Q.^.(.(./...}  .{ L 6                                                 ",
"                                6 K T  .| ) F J T  .^ F F F 6 K L Y T T | O.W.O. . .| | } } | $./.(.$.| | ^ K 6                                                 ",
"                                6 K T  .{ Y F J T #.W.#. .T K F F Y ^ |  .O.O. .| T L F J F F K P Y } | T K 6                                                   ",
"                                5 K T { T Y J J L +.W.$.$. .} K F T }  . . . .} T K 6 6 6 < , , < 5 Y { T F 5                                                   ",
"                                6 K Y Y Y Y Y J F ) |  .W.W. .L J }  . . . . .T P 6 6 9 F $ . . $ 6 K Y T F 6                                                   ",
"                                6 K Y Y Y Y Y J 6 Y }  .O.O. .T Y |  . . . . .) Y L 0.|.}.:.# 2 Q K Y / } K 5                                                   ",
"                                6 J K Y Y Y Y L J K Y } } |  .} )  . . .@.O. .) T Y [.8XaXz.# 2 Q Y T | 7.Y 5                                                   ",
"                                  6 F Y Y Y Y Y L F J Y T ^ | .. . . .O.W.$. . .} T [.aXjX<X2 X , T } 7._.| 5                                                   ",
"                                  $ < L Y Y Y Y Y L 6 , J T ^ }  . . . .#.$.$.$.#.} |.aXhX6XD @ 1 } | 7.(...Y 9                                                 ",
"                                  . $ K Y Y Y Y Y Y 6 @ 4 F J W }  . . . .@.W.W.%.+.[.9XhX6X~ D H  . .@.%.7...P F                                               ",
"                                      6 L Y Y Y Y Y Y K , o X 9 ) |  . . . .O.O.+. .X.[.gXpX'.'.!.| .. .O.^.^.| L 6                                             ",
"                                      $ 6 Y Y Y Y Y Y Y 9 < < P }  . . . . . . .+.$.7.`.6X{.!.E.E.|  . . .O. .W L K 6                                           ",
"                                      . 3 K Y Y Y Y Y Y Y Y / |  . . . . . . . .@.W.(.(.$.| ^ / }  .| .. .R F 6 K Y F 5                                         ",
"                                        @ , L Y Y T Y Y Y ^ }  . . . . . . . . . .O.Q.).(.).$. .|  ...|  .} } } | T F 5                                         ",
"                                          o 3 J Y Y Y Y Y T { |  ...|  . . . . . . .%.).(.^.$.O. . .| } } | | } } T 3 >                                         ",
"                                            . < L Y Y Y Y / Y { | | .. . . . . . . .%.W.W.$.|  .|  .^ Y Y } } Y L J @ .                                         ",
"                                              @ $ $ 3 Y Y Y Y T ^ ^ |  . . . . . . .O.O.$.+. . .} ^ Y Y T ^ L , $ $                                             ",
"                                                . . $ 9 9 9 9 P Y Y ^ } } } | |  . . . . .| } } ) Y J 9 9 9 3 o . .                                             ",
"                                                      . X . . 4 Y Y Y Y / L / |  . . . . .} Y Y Y Y $ . . . .                                                   ",
"                                                          . . o , , , , 3 $ > , 1 1 1 1 1 , , , , $ @                                                           ",
"                                                            * s s - - - - + O s w @ o X . . . . . .                                                             ",
"                                                            5..XoXm.v.n.x.b d |..XY 6 3                                                                         ",
"                                                            d :.l.5X5XT.N.S A g..X9X|.z.k.                                                                      ",
"                                                            o o f 0XyX<Xz.C l x S.kXsX+Xk.                                                                      ",
"                                                            < 6 G g s s * e x n N.R.V.N.n                                                                       ",
"                                                          F F ^ ) G 1 $ : h m n m V.n.v.v v                                                                     ",
"                                                        5 F Y @.W.~.{ 0 v x.x.m 1.6.n.b.x.v h                                                                   ",
"                                                        5 0 Y #.~.~. .L c M x.H.8XaXT.b.v.v h                                                                   ",
"                                                        , 5 L +.%.%. .L 6 c k I.aXgXI.x.k j :                                                                   ",
"                                                        X $ L {  . .{ L 0 , . z.+X0Xs.. . . .                                                                   ",
"                                                      6 < > > F ^ ^ q > $ & u s ! d.a.$Xt.w.y                                                                   ",
"                                                    J L K 8 & 1 8 6 > . O u r.e.p p %X>X&Xy.e.                                                                  ",
"                                        5 5 5 5 5 5 Y W.Q.9.a & X X . O u r.$X*X>X>X,X>X&Xy.e.                                                                  ",
"                              5 5 6 5 5 T } } ^ T ) | $.O.! e.e.r.y.a.p.-X;X,X%Xp.i.%X&Xu.t.                                                                    ",
"                            6 6 F F F F  .W.W.@.| .. .W P t p t.$X*X*X=X;X:X;Xi.y . e.y.w.                                                                      ",
"                          X F Y } O.+.} |  .} ^ Y 1 $ @ # # O & y y y y i i i & O . = & =                                                                       ",
"                          X 1 4 G E E 8 8 8 4 3 1 @ . . . . . @ $ , 3 , < > $ , , , $ @ X                                                                       ",
"                            . . . . . . . . . . .             5 0 I / / / L 0 K / / U 0                                                                         ",
"                                                              e z x ] M.M.M.[ ' z x ] ] l                                                                       ",
"                                                                l x M.B.B.B.B.S l x [ [ l                                                                       ",
"                                                                                                                                                                ",
"                                                                                                                                                                ",
"                                                                                                                                                                ",
"                                                                                                                                                                ",
"                                                                                                                                                                ",
"                                                                                                                                                                "
};
