/* XPM */
static char *_085f1108c9e4bf0b867c11786e6c502hAVin8LrfSjWSfOP[] = {
/* columns rows colors chars-per-pixel */
"80 80 212 2 ",
"   c None",
".  c #010200",
"X  c #0A0D01",
"o  c #050707",
"O  c #0D1303",
"+  c #0A1909",
"@  c #111603",
"#  c #131B04",
"$  c #17180D",
"%  c #050D12",
"&  c #08141A",
"*  c #1C1913",
"=  c #211813",
"-  c #2A1C14",
";  c #2C1C0D",
":  c #0B260D",
">  c #1A2303",
",  c #1F2B04",
"<  c #1B2B0B",
"1  c #172A14",
"2  c #143812",
"3  c #212E05",
"4  c #25270B",
"5  c #243303",
"6  c #2A3605",
"7  c #293901",
"8  c #24340B",
"9  c #2A3B0B",
"0  c #27380B",
"q  c #333B0A",
"w  c #333A06",
"e  c #2C2819",
"r  c #352717",
"t  c #2C3612",
"y  c #393719",
"u  c #3B2C04",
"i  c #0B1D2A",
"p  c #091826",
"a  c #0D212A",
"s  c #132826",
"d  c #0D2537",
"f  c #102B3A",
"g  c #3C3726",
"h  c #342B28",
"j  c #5B1A0A",
"k  c #492509",
"l  c #442C1C",
"z  c #4A2F1A",
"x  c #4D321C",
"c  c #483B1A",
"v  c #51321B",
"b  c #5A3B19",
"n  c #512112",
"m  c #702311",
"M  c #653C1B",
"N  c #453627",
"B  c #5C3F2C",
"V  c #533D27",
"C  c #4B3C34",
"Z  c #663B28",
"A  c #1C4A1D",
"S  c #2E4103",
"D  c #2E410A",
"F  c #324605",
"G  c #354A06",
"H  c #384E07",
"J  c #33460C",
"K  c #364C08",
"L  c #3A4E0A",
"P  c #39470A",
"I  c #3C540A",
"U  c #3F580C",
"Y  c #395007",
"T  c #3A4612",
"R  c #3E5912",
"E  c #3E5616",
"W  c #336917",
"Q  c #3F4333",
"!  c #246C2D",
"~  c #454D0D",
"^  c #42520C",
"/  c #4C550E",
"(  c #415C0D",
")  c #484916",
"_  c #534813",
"`  c #425D12",
"'  c #435518",
"]  c #535B1F",
"[  c #6F4E1B",
"{  c #44610F",
"}  c #466311",
"|  c #486613",
" . c #4B6B16",
".. c #4C6619",
"X. c #4D6C19",
"o. c #526B1D",
"O. c #4F7118",
"+. c #4F7116",
"@. c #527419",
"#. c #567A1C",
"$. c #597E1D",
"%. c #527317",
"&. c #554525",
"*. c #5D412C",
"=. c #5A4B28",
"-. c #4E5B28",
";. c #5A5A29",
":. c #57453A",
">. c #5B5F31",
",. c #64412B",
"<. c #7B4921",
"1. c #624432",
"2. c #694D39",
"3. c #6C533B",
"4. c #695E33",
"5. c #5A6423",
"6. c #5A7D20",
"7. c #5B7425",
"8. c #5F663B",
"9. c #6A6734",
"0. c #112E46",
"q. c #143444",
"w. c #15374D",
"e. c #163953",
"r. c #0F2C46",
"t. c #19466B",
"y. c #1A4A75",
"u. c #1B4E7B",
"i. c #1D517B",
"p. c #5F5D54",
"a. c #5B544A",
"s. c #6F5745",
"d. c #735442",
"f. c #7B5C4B",
"g. c #755848",
"h. c #6C594D",
"j. c #79614D",
"k. c #6E7943",
"l. c #7E6450",
"z. c #777351",
"x. c #6B7646",
"c. c #73726B",
"v. c #8E5A23",
"b. c #A64E37",
"n. c #A36028",
"m. c #826554",
"M. c #866959",
"N. c #8B6C5B",
"B. c #846B57",
"V. c #8D705F",
"C. c #867356",
"Z. c #836E63",
"A. c #8A7663",
"S. c #917463",
"D. c #997D6D",
"F. c #967868",
"G. c #C5654D",
"H. c #338921",
"J. c #5C831E",
"K. c #5E8421",
"L. c #4A9F21",
"P. c #618524",
"I. c #638A23",
"U. c #658A29",
"Y. c #6B932B",
"T. c #6C942B",
"R. c #6F9730",
"E. c #739C33",
"W. c #6E8E32",
"Q. c #48AC2B",
"!. c #7AA437",
"~. c #748449",
"^. c #98846C",
"/. c #9F8272",
"(. c #A58979",
"). c #AA8E7E",
"_. c #A28676",
"`. c #A29179",
"'. c #1E5684",
"]. c #245B8D",
"[. c #23649D",
"{. c #336693",
"}. c #2767A0",
"|. c #3477B4",
" X c #3A82C3",
".X c #4B90CE",
"XX c #66A5DD",
"oX c #AD9283",
"OX c #B39A8A",
"+X c #B5998A",
"@X c #BA9F90",
"#X c #9DA396",
"$X c #AFAA93",
"%X c #BEA394",
"&X c #B5AC97",
"*X c #ABB992",
"=X c #C4AC9D",
"-X c #C5AA9B",
";X c #C1B09D",
":X c #C8AFA0",
">X c #CFB8AA",
",X c #CEB6A8",
"<X c #D2BBAC",
"1X c #D5BFB1",
"2X c #B3C7B5",
"3X c #BEE0B8",
"4X c #A7CE93",
"5X c #D9C4B6",
"6X c #DBC6B8",
"7X c #D4D4C5",
"8X c #E6D6CD",
"9X c #E7E5DE",
/* pixels */
"                                                                                                                                                                ",
"                                                                                                                                                                ",
"                                                                                                                                                                ",
"                                                                                                                                                                ",
"                                                                                                                                                                ",
"                                                                        1.*.1.                                                                                  ",
"                                                                      1.3.M./.f.              B 1.B                                                             ",
"                                                                      1.d.S.oXS.f.            f.f.M.                                                            ",
"                                                                        1.d.N.)._.1.        3.).=X,XM.*.                                                        ",
"                                                                          2.d.)._.1.        3.M.oX,XOXD.1.                                                      ",
"                                                                          c &.A.S.&.c         1.m.OX>XOX1.                                                      ",
"                                                            7 7 7 7 7 7 7 6 q ) T w w 7         3.g.-XOX1.                                                      ",
"                                                          F F F G K L L L L K G G F F F 7         1.OXoX1.                                                      ",
"                                              B B V ) 7 7 F I U ( | ...... ...' ^ ^ ^ P w 7 7     d.oX_.1.                                                      ",
"                                          B B c q q q L ^ { } | |  .] =.=.=.=.&.&.&.&.V &.) P &.A.%X%X_.1.                                                      ",
"                                        f.j.&.c F G U ( | +.%...] ] 9.N.A.S.m.2.3.m.S.S.B.4.) *.S.<X@XS.1.                                                      ",
"                                      1.D.`.T G ( | |  . .%.P.4.B B F.:X5X1X%Xl.m.%X1X1X:XS.1.B Z.-XS.d.B                                                       ",
"                                    f./.z.;.L U | |  . .#.#.5.C.oXOX:X1X6X6X1XOXF.m.oX,X1X:X+X(.F.m.d.B =                                                       ",
"                                  f.B.^.>.F U }  .%.@.$.7.9.j.).,X6X5X1X1X<X:X%X(.1.S.@X<X6X6X>XoXf.d.l . O                                                     ",
"                                1./.^.T P U |  . .$.T.!.9.f.@X>X6X7X>X:X:XoXM.OX(.1.f.F.@X<X6X7X>X@XF.C . > 7                                                   ",
"                                B N.l.9 Y  .P.U.U.$.7.9.3.S.,X<X,X<X@XD.D.h.h :.C - e N a.l.oX:X%XD.:.g 0 7 7                                                   ",
"                                B 3.;.F U #.E.!.E.J.;.1.m.).1X=X+X+XD.m.s.C $ > $ $ $ O O g h.F.Z.2.e 8  .Y S                                                   ",
"                                B c J Y ` 6.E.!.E.U.5.1.D.-X=X(.N.N.N.g.e t O.O.7.O.} R R t $ * * * E O. .R K 7                                                 ",
"                                1.q S Y } o.P.U.U.$.5.,.V._.(.S.g.C N N T R K.J.#.#.O. . .T 8 8 8 J o.6. .} U S                                                 ",
"                                  7 7 U | O.@.O.X.X.5.1.d.g.g.g.B = X : X.K.J.%. . . . . . . . .#.J.J.$. . .} S 7                                               ",
"                                  7 F } K.R.R.U.$.J.U.W.y * * = e ] ....X.%.O.X. . . . . . . . .O.O.J.J. . .} Y F 7                                             ",
"                                  7 F | K.Y.T.T.J.I.U.T.E 8 < 3 0 O.$.#.O. . . . . . . . . . . . . .#.@. . .| U F 7                                             ",
"                                  7 G |  .@.J.K.K.J.I.I.I.J. . . . . . .|  . . . . . . . . . . . . . . . . .| ^ F 7                                             ",
"                                  7 F | K.Y.P.$.%.%.%.%.@.%. . . . . . . . . . . . . . . . . . . . . . . . . .| H 6                                             ",
"                                  7 F { P.Y.K.%.| | | } } | | | O.@.O.@.O. . . . . . . . .| } } |  . . . . . . .Y 7                                             ",
"                                  7 S U %.K.X.} U I ^ I U ^ U { O.J.K.J.%. . . . . . . . .} U U }  . . . . . . .Y 7                                             ",
"                                  7 7 I | %.{ { | $.I.K.#. .{ { } %.#.@.X. .| } ( { ( ( { U I S G K K U |  . .` G 7                                             ",
"                                  7 F Y } | ( | $.R.E.E.K.$. .} { | O.O. .| | U I I Y Y Y Y G G S 7 7 G  . .| ( F 7                                             ",
"                                  7 7 I }  .| K.E.U.K.O.O.O. .| |  .@.J.%.} U U I I F 7 7 7 F ( ( H S G |  .| ( F 7                                             ",
"                                    7 G U }  . .X.| U Y I I Y U }  .O.@.O.| { U Y G F G U U { @.| I S F { | } I F 7                                             ",
"                                      7 G U | Y 7 5 5 5 5 7 7 G U }  . .|  .| { Y 7 G (  .#.J.J.%.Y S F I { } ( F 7                                             ",
"                                      7 G U U F 5 O X X , 7 7 7 F U }  . . . .| U 7 Y  .J.#.%.@.( S F Y U U ( I F 7                                             ",
"                                      7 Y R U H S 2 + . Q 8.8.' G Y {  . . . . .} F R O.@.@.| } Y 7 H I I I I I F 7                                             ",
"                                      7 R | U I I W 2 o c.&X$Xx.I U {  . .O. . .} U }  . . .| U G 7 Y I I I ( Y F 7                                             ",
"                                      7 O.K.O.R K : : 1 #X7X$Xx.U { | O.#.@. . . .} | | { U U F F G Y U I I Y F 7                                               ",
"                                    S G #.Y.O.} I # + A 2X9X&X~.{ %.@.@.$.@. . . . .| } U F 7 S H I ^ I Y U G 3                                                 ",
"                                  7 J | #.K.X. .R > : ! 2X9X&X~. .J.J.J.@. . . . . .U U I , O D I I I I I U S X                                                 ",
"                                7 K | U.K.@.X. . .W H.Q.3X7X~.7.O.@.#.@.O.|  . .| } 9 > > , 7 Y I I I I I G 7                                                   ",
"                              7 7 U X.U.6. . . .+.L.Q.Q.4X*XO. .O. . . . . . . .| U 5 O O 7 I I I I I I ( 7 ,                                                   ",
"                            7 S K F S G R  . . . .W { W 6.W.E.U.J. . . . . . . .| | U G K Y I I I I I I U > X                                                   ",
"                            7 G } R I Y ` |  . . .} | %.K.U.T.K.#. . . . . . . . . .| R U I I I I ( I F 3 #                                                     ",
"                            5 S | | |  . .| |  . . .@.K.Y.R.K.#. . . . . . . . . . . .} U I I I I I Y 7 .                                                       ",
"                            X , U ( {  .{ U ( }  . .O.@.K.K.K.#. . . . . . . . . . .} U I I I U I Y , X                                                         ",
"                              # 5 3 D ` ( U U ( }  . . .@.6.#.O. . . . . . . .{ } { ( U U U K 9 5 3 @                                                           ",
"                                . . @ K K H L I ^ {  . . . . . . . . .|  . . .( I I Y K H Y J O . .                                                             ",
"                                    O @ # # # 7 U U ( ( .. . . . . .} ( ( ( ( ^ I ^ 5 # # # @                                                                   ",
"                                      . . . . # 7 9 7 7 D J J J J J D 9 7 7 9 7 7 7 # . . . .                                                                   ",
"                                                . . . . . . . . o . . . . . . . . .                                                                             ",
"                                                          O > , 3 - - e p.s.j m m j n                                                                           ",
"                                                            -.E P u y N A.F.b.G.G.b.Z l                                                                         ",
"                                                        j.C.$Xx.7 w 6 6 * a.;X8X8X;Xj.l                                                                         ",
"                                                        B 4.z.-.K I Y L 8 g p.c.c.p.Q h                                                                         ",
"                                                        k k 7 K `  .O. .{ 7 X X X . i w.                                                                        ",
"                                                      j u w H ( | $.J.J.O.U D F 8 . a q.                                                                        ",
"                                                      r 4 3 Y } %.K.K.K.%.R G 0 1 f q.q.                                                                        ",
"                                                      q.& # H (  .J.J.$. .L 5 + f }.y.w.                                                                        ",
"                                                      q.d a # S ( { | ` 3 # O w.[. X[.i.w.                                                                      ",
"                                                      a e.w.& < 7 7 6 8 s d d {. X.X|.'.f s                                                                     ",
"                                                      o t.'.w.& . . . & i.[.[..XXX.X|.i.% # 7 7 7                                                               ",
"                                                      . p e.u.t.e.d % % w.'.}.|.{.e.w.i o , U | U 7 7 7 7 7 7 7                                                 ",
"                                                    4 O O s y.y.t.f i i i w.y.y.e.> @ @ @ 8 R @. .K G G F G K G G                                               ",
"                                                l b _ G G 0 % % % . 0.u.p o % % 1 R ^ P Y 3 @ E @.J.J.#.| @.J.J.R 7 7 7 7 7 7 7                                 ",
"                                                x M [ [ / G 3 , > o p r.p X # , 9 ` ( ^ _ r 4 L |  .%.%. .O.#.@.} I L U } U K G >                               ",
"                                                l <.<.<._ ~ ^ ~ w @ X .   w w ~ / / ~ ~ b v l J J J I R R R R R R R R | o.} L F # .                             ",
"                                                  x x v b _ b c z z ; . r x b <.v.v.[ b x l   @ O O O O # O @ O O O O $ + @ O O X                               ",
"                                                    l l v M M v v M ; o - v M v.n.n.v.b l       . . . . . . . . . . . . . . . .                                 ",
"                                                                                                                                                                ",
"                                                                                                                                                                ",
"                                                                                                                                                                ",
"                                                                                                                                                                ",
"                                                                                                                                                                ",
"                                                                                                                                                                ",
"                                                                                                                                                                ",
"                                                                                                                                                                ",
"                                                                                                                                                                "
};
