/* XPM */
static char *_9dc27c443734302fbd4819fe5af90e1Q2PEsHG6BRYPFueb[] = {
/* columns rows colors chars-per-pixel */
"80 80 203 2 ",
"   c None",
".  c #010200",
"X  c #060900",
"o  c #0A0D01",
"O  c #070605",
"+  c #120D0B",
"@  c #1E0904",
"#  c #0D1301",
"$  c #131B02",
"%  c #1C1E0C",
"&  c #141702",
"*  c #08141D",
"=  c #1B1912",
"-  c #2C0C05",
";  c #250C05",
":  c #330D05",
">  c #281707",
",  c #391308",
"<  c #291B11",
"1  c #261B14",
"2  c #172104",
"3  c #1A2402",
"4  c #1E2A00",
"5  c #1E2A08",
"6  c #152210",
"7  c #212E03",
"8  c #282408",
"9  c #3A250A",
"0  c #243302",
"q  c #2A3B01",
"w  c #293906",
"e  c #33370A",
"r  c #372D1E",
"t  c #091924",
"y  c #0D2333",
"u  c #132B38",
"i  c #0D232C",
"p  c #3C3724",
"a  c #2E2F32",
"s  c #541C0B",
"d  c #5B1C0B",
"f  c #4C1609",
"g  c #651F0C",
"h  c #422607",
"j  c #4B2F0A",
"k  c #432C1C",
"l  c #492E1C",
"z  c #592814",
"x  c #4A3E1D",
"c  c #54341B",
"v  c #5A361B",
"b  c #49340A",
"n  c #6B220E",
"m  c #622C15",
"M  c #692916",
"N  c #792A13",
"B  c #712F16",
"V  c #623A1B",
"C  c #783318",
"Z  c #493424",
"A  c #43332B",
"S  c #5E3F2D",
"D  c #533D28",
"F  c #603F2E",
"G  c #6C3320",
"H  c #2E4103",
"J  c #2E4008",
"K  c #324505",
"L  c #354B06",
"P  c #384E07",
"I  c #33440A",
"U  c #394D09",
"Y  c #374B09",
"T  c #3D5509",
"R  c #3F580B",
"E  c #395007",
"W  c #3A4811",
"Q  c #415C0D",
"!  c #484516",
"~  c #425E11",
"^  c #5D5214",
"/  c #554A13",
"(  c #655716",
")  c #44600F",
"_  c #466311",
"`  c #486613",
"'  c #4B6B16",
"]  c #4E6F18",
"[  c #476518",
"{  c #4F7018",
"}  c #4F7016",
"|  c #517419",
" . c #567B1B",
".. c #597E1D",
"X. c #517316",
"o. c #484B28",
"O. c #5F402E",
"+. c #544A29",
"@. c #5C4538",
"#. c #525233",
"$. c #60412E",
"%. c #6A4020",
"&. c #634433",
"*. c #6C4C3B",
"=. c #674938",
"-. c #6E533E",
";. c #70503F",
":. c #7D4A21",
">. c #112D46",
",. c #173B57",
"<. c #13344A",
"1. c #18425D",
"2. c #2A4B49",
"3. c #374040",
"4. c #194563",
"5. c #235177",
"6. c #2F4E69",
"7. c #39626E",
"8. c #565757",
"9. c #575043",
"0. c #745544",
"q. c #745A45",
"w. c #755A4A",
"e. c #7B5C4B",
"r. c #785947",
"t. c #6B5547",
"y. c #7D614E",
"u. c #676454",
"i. c #7B6455",
"p. c #67624F",
"a. c #696862",
"s. c #787466",
"d. c #757371",
"f. c #87240F",
"g. c #93270F",
"h. c #872A13",
"j. c #972912",
"k. c #87391C",
"l. c #943E1E",
"z. c #AA3318",
"x. c #B23619",
"c. c #B73A1C",
"v. c #BA3E20",
"b. c #C23F20",
"n. c #8B5223",
"m. c #995A26",
"M. c #834D22",
"N. c #B94C2E",
"B. c #C54322",
"V. c #C84322",
"C. c #836453",
"Z. c #8A6C5C",
"A. c #866957",
"S. c #83775E",
"D. c #A96A53",
"F. c #8E7160",
"G. c #927464",
"H. c #967A6A",
"J. c #9A7C6C",
"K. c #CD674B",
"L. c #D47159",
"P. c #5C831E",
"I. c #5E8521",
"U. c #618723",
"Y. c #628A22",
"T. c #668C28",
"R. c #698F2B",
"E. c #6C942B",
"W. c #6B942A",
"Q. c #70992E",
"!. c #749D32",
"~. c #77A135",
"^. c #79A336",
"/. c #7BA538",
"(. c #9D8272",
"). c #978C79",
"_. c #9C806F",
"`. c #A68776",
"'. c #AE907C",
"]. c #1D5381",
"[. c #295A87",
"{. c #205C90",
"}. c #296598",
"|. c #3D6C81",
" X c #3477B2",
".X c #456885",
"XX c #4A94D8",
"oX c #5098D9",
"OX c #6AA7DF",
"+X c #AE9182",
"@X c #B59A8B",
"#X c #B39888",
"$X c #BA9F90",
"%X c #BCA495",
"&X c #C4AB9C",
"*X c #CAB2A3",
"=X c #C6B0A1",
"-X c #D2BDAE",
";X c #D4BFB1",
":X c #C7AFA0",
">X c #D7C4B5",
",X c #ECDDDA",
"<X c #F7E7E3",
/* pixels */
"                                                                                                                                                                ",
"                                                                                                                                                                ",
"                                                                                                                                                                ",
"                                                                                                                                                                ",
"                                                                                                                                                                ",
"                                                                                                                                                                ",
"                                                                                                                                                                ",
"                                                                                                                                                                ",
"                                                O.                                                      O.                                                      ",
"                                          F S C.H.0.                                                  r.H.y.F &.                                                ",
"                                        0.w.q.G.+X0.$.                                              S e.@XF.0.r.0.                                              ",
"                                O.O.O.S (.=X$X`.Z.=.$.      q q q 0 q q q q q w q 0 q q 0 q q       S 0.Z.`.$X*XJ.O.O.O.O.                                      ",
"                              e.F.H.(.(.%X*X'.F.;.=.x     H H K K K Y U U E U U E E I K K K K q     D =.;.G.#X*X@X(.(.H.F.q.                                    ",
"                            =.Z.$X*X-X>X&X+XA.;.$.    q H K R Q Q Q [ ] | | ] ] { { _ ~ Q Q T K q q     S 0.Z.#X=X;X-X=X@XC.*.                                  ",
"                          =.J.J.r.C.Z.J.Z.0.*.=.  w K P R ` | Y.E.R.E.Q.Q.T.....I.Q.E.T...} ` _ T P K e   =.*.w.Z.H.A.y.e._.H.O.                                ",
"                          =.@X@XA.0.*.0.*.F F x   H U Q ' P.W.~.^.!.Q.R.R.U.....I.R.E.Q.Y...} ' ` R P H   D F S *.0.;.w.Z.%X`.&.                                ",
"                          *.%X;X&XH.r.F         q P R ] P.T.^.^.~.T. .] ' ' ' ' ' ' P.P.P.P.P.{ ' ' R P q       O.=.r._.&X-X#X$.                                ",
"                      &.*.C.$X$XH.e.C.J.A.D e K E _ ` ' ] P.T.R.T.I.T.R.E.I.P. .I.R.Q.Q.Y.P.| X.' ' ` R Y H e O.Z.J.0.C._.&X#Xr.=.                              ",
"                      S 0.A.`.J.r.C.Z.+Xy.x K L R ` } |  .I.P.P.P.P.I.Q.E.T.P.P.I.E.E.R.P.P.X.X.{ ' ' ` T Y I ! A.'.A.e.e.`.`.C.*.&.                            ",
"                      S *.C.A.r.&.J.+XZ.+.q U T R ` | P.Q.Q.I. .' ' ] { { { { { { { ] ] '  .Y.P. .' ' _ T T U q #.F.#XH.&.e.C.C.*.S                             ",
"                      S *.C.0.t.;.F.H.A.+.H E R ` X.I.Q.~.~.Q.I.I.I.R.T.P.P.P.I.I.......P.P.P.Y.P. .} ` _ R E q +.A.J.Z.;.;.0.C.*.S                             ",
"                      &.F t.D &.C.C.y.-.! K T ) ]  .W./.^.^.~.W.I.!.~.!.Y.Y.P.W.Q.I.I.I.P.Y.P.P.P.P.{ ' ' ) E H +.0.C.C.C.S D *.=.O.                            ",
"                        1 + + r C.C.-.W Y E T ) ' ] I.^./.~.Y.Y.I.Y.I.T.Y.P.I.Y.Y.P.I.I.Y.Y.P.X.] ] ' ' ' ) E E W ! 0.C.e.r + +                                 ",
"                          . . 1 Z Z p q L T T ) ]  .I.Q.~.~.Q.T.Y.P.W.W.I.W.Q.W.Q.Q.Q.W.Y.P.P.P.{ ' ' ' ' ) T T H w p A p = . .                                 ",
"                                . . # 0 L T T ) } ..P.P.E.~.~.W.P.Y.Q.!.Y.Q.~.^.^.^.^.Q.P.P.P.P.| ' ' ' ' ) T T K 7 o . .                                       ",
"                                      0 L T T ) ' } X.| | I.T.Y.Y.Y.Y.Y.Y.Y.W.Y.Y.W.W.P. . .{ { } ' ' ' ' ) T T K q                                             ",
"                                      q L T T ) ' ' ' ' }  .P.Y.P.Y.Y.W.W.W.W.W.W.W.T.P. .{ ' ' ' ' ' ' ' ) T T K 0                                             ",
"                                      q L T T ) ' ' ' ' P.Y.Y.P.Y.Y.Q.^.^.^.^.^./.^.W.P.P. .' ' ' ' ' ' ' Q T T K q                                             ",
"                                      q K T T ) ' ' ' ' {  .I.Y.Y.Y.Y.W.W.W.W.W.W.T.Y.P.| ] ' ' ' ' ' ' ' Q T T K 0                                             ",
"                                      q L T T ) ' ' ' ' ' { ....P.P.Y.Y.P.Y.Y.P.P.P.P. .} ' ' ' ' ' ' ' ' ) T T K q                                             ",
"                            q q q     q L T T ) ' ' ' ' ' ' ' ] X.P.P.Y.Y.P.P.Y.P.' ] ' ' ' ' ' ' ' ' ' ' Q T T K q     0 q q                                   ",
"                            q q K H q 0 K T T ) ' ' ' ' ' ' ' ' } X.X.X.P.X.X.P.{ ' ' ' ' ' ' ' ' ' ' ' ' ) T T K q q H L q q                                   ",
"                            q H T K q H L E T Q ' ' ' ' ' ' ' ' ' ' ' ' } } } } ` ' ' ' ' ' ' ' ' ' ' ' ` Q E E K H H L E H q                                   ",
"                            q K T T T E K H T T T ) ' ' ' ' ' ' ' ' ' } P.P.P.P.P.} ' ' ' ' ' ' ' ' ' _ R R E H K E E E E H q                                   ",
"                              H K R Q R K q E T Q _ ' ' ' ' ' ' ' ' _ _ ' } } } ` _ ` ' ' ' ' ' ' ' ' _ T T L H K T ) R K H                                     ",
"                                0 T ) Q K H E T Q ) ' ' ' ' ' ' ' ' ) R R R Q R R R _ ' ' ' ' ' ' ' ' ) R E E H L Q _ E 0                                       ",
"                                o H ~ ` R E T T T Q ) ' ' ' ' ' ' ' ' _ ` } P.` ` ` ` ' ' ' ' ' ' ' ) R T T E E R _ ~ w o                                       ",
"                                . w T _ T L T T T T Q ) ` ' ' ' ' ' ' ' _ ' X.` _ ' ' ' ' ' ' ' ` Q R T T T E K T _ T 0 .                                       ",
"                                . w E T K H E T T T T T ) ' ` ` ' ' ' ` Q T T T Q } ` } ` ' ' ' _ T T T R T E H I T T 7 .                                       ",
"                                  $ 3 H q q H L T T T T Q Q Q Q ) ` ' } ` _ _ _ ` ` } ` Q Q Q Q R T T T T L H q q q 2 &                                         ",
"                                    o 3 3 4 0 K P E T T T T T Q R _ _ _ ` ` ` ` ) ` ) ) R T T R T T T E P H 0 4 4 2 o                                           ",
"                                      . . o 0 q q P T T T Q T T T T T T T T T T T R R T T T T T T T T P q 0 4 X . .                                             ",
"                                        . o 7 q Y T T T T T T T T T Q _ ) _ _ _ _ _ R T T T T T T T T E L q 4 X .                                               ",
"                                          X 4 q P T T T T T T T T T Q ` ` ` ` ` ` ` Q T T R T T T R T T E q 2 X                                                 ",
"                                            X 2 q P T T T T T Q T T R R R R R R R R R T T T T T T T T P q $ X                                                   ",
"                                            . & q K L T T T T T T R T T T T T T T T T T T T R T T T L H q # .                                                   ",
"                                            . & 0 q K T T T T T T T R T T T T R T T R T T T T T T T H 0 0 # .                                                   ",
"                                              X o 7 K T T T T T T T T T T T T T T T T T R T T T T T H 7 o X                                                     ",
"                                                X & 4 0 H P T T T T T T T T T T T T T T T T E P q 0 3 & .                                                       ",
"                                                  . . . 3 q P E T E T T T T T T R T T E T E P q 3 . . .                                                         ",
"                                                    ; , & & $ 7 H H L T T T T T T T L H H 7 & # ; , ;                                                           ",
"                                                    N N f : - > 3 4 0 q K P P L K q 4 4 3 > : : s N n                                                           ",
"                                                  s h.b.z.g.j.f . . . X 0 q q q 4 X . . . f g.j.z.v.N s                                                         ",
"                                                = A.D.V.c.z.j.d 1 < > , , h h h 9 : < < 1 n j.x.v.B.D.i.O                                                       ",
"                                                = s.`.L.K.N.g.m l k z g g g g g g g z k Z M j.N.K.L.'.u.#                                                       ",
"                                                7 = a.<X>X`.m z v k M g.g.g.g.g.g.g.M k v z G '.>X,X8.6 0                                                       ",
"                                              H I J #.d.a.@.s v v c k.x.x.c.x.x.x.x.C v m z z 9.a.d.o.w K H                                                     ",
"                                            q L R [ I # o ; d m V V l.V.b.V.V.b.V.V.M.V V m s @ o # W _ Q L q                                                   ",
"                                          H P R [ ' ~ e h d h.B V V l.b.V.V.V.V.B.B.l.V V C f.s 9 I _ ' ` T L q                                                 ",
"                                        q q P ) ' ' ~ T j n j.B c c k.c.b.V.V.V.B.c.C v v N f.n b R ` ' ' Q P q                                                 ",
"                                        q q E _ ' ' ~ T j g f.M Z Z M j.c.v.v.v.z.h.M Z Z B f.d b R [ ` ' Q P q                                                 ",
"                                        q J E _ [ E Y T 7 @ - w.).S.@.- , , , , , - p.).F.D ; @ 7 T Y T ' Q P q                                                 ",
"                                        q q E R R 0 7 w * * y 8.s.p.p $ $ $ 5 % $ # 9.d.u.3.i * 6 w 5 w _ Q P q                                                 ",
"                                        q q E T Y $ . . i 1.}.>.. . $ q Y Q ' T L 0 $ O . <.{.1.t . . $ T T P q                                                 ",
"                                          7 3 2 $ X .   u ,.4.5.[.[.3.q Q ' ..' T w 2.[.[.5.4.<.u   . X $ 2 3                                                   ",
"                                            . . . .     y u 1. XoXoX7.7 Q [ [ [ T 5 |.oXXX}.,.u u   . . . . .                                                   ",
"                                                        O y ]. XoXOX7.o I w # J e o .XOXoX X].t O                                                               ",
"                                                          t <.1.6.6.u X $ 7 w 5 $ . <.6.4.,.>.*                                                                 ",
"                                                            X o o o o o . 5 ` 2 X o o o o o X                                                                   ",
"                                                            7 w I I I q # 3 T $ # K K K I w 7                                                                   ",
"                                                            e ! ( ( ( / < 5 7 1 9 / ( ( ( ! e                                                                   ",
"                                                            l V n.m.n.:.c < O < D M.m.m.n.V k                                                                   ",
"                                                                                                                                                                ",
"                                                                                                                                                                ",
"                                                                                                                                                                ",
"                                                                                                                                                                ",
"                                                                                                                                                                ",
"                                                                                                                                                                ",
"                                                                                                                                                                ",
"                                                                                                                                                                "
};
