/* XPM */
static char *a6e4a8bd13324152dec6d4f104a2f945r27xC0Q947jC5UIf[] = {
/* columns rows colors chars-per-pixel */
"80 80 91 1 ",
"  c None",
". c black",
"X c #010101",
"o c #020202",
"O c gray1",
"+ c #040404",
"@ c gray2",
"# c #060606",
"$ c #070707",
"% c gray3",
"& c #090909",
"* c gray4",
"= c #0B0B0B",
"- c #0C0C0C",
"; c gray5",
": c #0E0E0E",
"> c gray6",
", c #101010",
"< c #111111",
"1 c gray7",
"2 c #131313",
"3 c gray8",
"4 c #151515",
"5 c #161616",
"6 c gray9",
"7 c #181818",
"8 c #191919",
"9 c gray10",
"0 c #1B1B1B",
"q c gray11",
"w c #1D1D1D",
"e c #1E1E1E",
"r c gray12",
"t c #202020",
"y c gray13",
"u c #222222",
"i c #232323",
"p c gray14",
"a c #252525",
"s c gray15",
"d c #272727",
"f c #282828",
"g c gray16",
"h c #2A2A2A",
"j c gray17",
"k c #2C2C2C",
"l c #2D2D2D",
"z c gray18",
"x c #2F2F2F",
"c c gray19",
"v c #313131",
"b c #323232",
"n c gray20",
"m c #343434",
"M c #353535",
"N c gray21",
"B c #373737",
"V c gray22",
"C c #393939",
"Z c #3A3A3A",
"A c gray23",
"S c #3C3C3C",
"D c gray24",
"F c #3E3E3E",
"G c #3F3F3F",
"H c gray25",
"J c #414141",
"K c gray26",
"L c #434343",
"P c #444444",
"I c gray27",
"U c #464646",
"Y c gray28",
"T c #484848",
"R c #494949",
"E c gray29",
"W c #4B4B4B",
"Q c #4C4C4C",
"! c gray30",
"~ c #4E4E4E",
"^ c gray31",
"/ c #505050",
"( c #515151",
") c gray32",
"_ c #535353",
"` c gray33",
"' c #555555",
"] c #565656",
"[ c gray34",
"{ c #585858",
"} c #5A5A5A",
/* pixels */
"                                                                                ",
"                                                                                ",
"                                                                                ",
"                                                                                ",
"                                                                                ",
"                                                                                ",
"                                                                                ",
"                                                                                ",
"                                                                                ",
"                                                                                ",
"                                ^))^^W                                          ",
"                              )'))W^                                            ",
"                            '{{)))^                                             ",
"                          '{{''^^^^                                             ",
"                         '{'))WW)^WU   KKKKKKKGGGG                              ",
"                        {'))WUWW^^WWWUUUUKKGGKKGGG                              ",
"                      ))''^WKGKGW^WWUKUWKKKKGKZGGK                              ",
"                     )))))^KZKGWWWWWWUUKKKKGGGKGZZ                              ",
"                    ^))''^UGKWWW^WUWUWUGGGKKKGGGGGGGG                           ",
"                    ^^)))WZBUWUWWWUUKGcBZGGGBBBcZGGGKGGG                        ",
"                   ^WW^^^UxKWKWUKGGGZccZBcxhshxBGGKGGGKGK                       ",
"                  WWW^^WWZcUUUGZZGZZBcccxiiirisxcBBBBGGKG                       ",
"                  WUWUWWUBZUKZBxxccxxxhssirrs99ixxcccZKKKG                      ",
"                 UU WWUUZxGKGBxcsshhsssihsisssssxcBcBZGKKKK                     ",
"                 UKUUUUKBcKKZxchi3r9iisrsrisiiishxBBBZKKGKKKUK                  ",
"                KK UUUUGccZZBhxsi393rririr33rriiishhxcGKUKUKKUU                 ",
"                K  UUGKZxhBxxhhi99r3993939<<r399iiishxcGKUKKUUUW                ",
"                KKKKKZZcsrxissi33933<<333<3<<><3risxxhhxBGUUU  WW               ",
"                KKKKGBxchriiii9>393<>=<<<<>><><33iishhhhhxGKUU WW               ",
"                KGGKZchcsrrirr3>333>>$<<===><<<><33riihxsxBGUUW UW              ",
"                GKKGZhshi3rrir<<3<>$=$>=====>>><33333rihcxcGKUUW WW             ",
"                GGZGZhhhr<rr93=$<>=$$$$$O$$=><<>>33393<rsBcKKUUWWWW             ",
"                GGKZZhssr39rr<>$==$$O$OOOO$$==$=><39ir39iixBUUUWWUWW            ",
"                ZGGGZxshr3393<>$$$$OOOOOOOO$OO$==<39rriiriicBKWUUWWU            ",
"               ZGGGGBhhsi333<<>$OO$OOOOOOOOOOO$$>>9<9iiiixcxcZKWWWWW            ",
"              GGGGGZchhhi3<3<<==OOOOOOOOOOOOOOOO$$><3riiihBZccZUWUWUW           ",
"              GGGZZBchssi9<3====OOOOOOOOOOOOOOOOO$O$<3ishhBGGxcKUWWWW           ",
"              GGGBccccrii9<<>=$$OOOOOOOOOOOOOOO$$=><><3isxcZGGxcGUUUU           ",
"               GGZcBxchrir<<<<$$OOOOOOOOOOOOOOOO$==<<<3rhxxBGGZxBGUWU           ",
"               GGGccxxsi333<>>>$OOOOOOOOOOOOOOOO$$>>333rihxcZZKcxZGKU           ",
"               GGGZcxxsi3<<>>==$$OOOOOOOOOOOOOOOO$><3399ishhBGGZcBKGK           ",
"                GGGBhisii3><<>=$$OOOOOOOOOOOOOOO$$=<93933rsxZKZGccZGK           ",
"                GZZBsrsrir9<>==$OOOOOOOOOOOOOO$O$$=><333risxZGZZxcZGK           ",
"               GGGcxs3iir9<3>===OOOOOOOOOOOOOOO$=>=>33<3ihcBZGGBxBZGK           ",
"             ZZGZGZxhrssir<3<<==$$OOOOOOOOOOOO$$=<<<39r9shBBGGGGBZZGG           ",
"             GGGZGGBhriiiir333<<=$$OOOOOOOOOOO$==>3399iihxBZZGGGZZBGK           ",
"              GGGGGGBsrriiir933<=$$OOOO$OOO$$$==><<99rssxccZGGGGGGZGG           ",
"              GGKZKGGBiissiir3<==$O$$$OOOOO$====><<rrrisxhBGGZGGKGGGG           ",
"               KGGGGKZcxhssir3<><==>=$OO$$$=<=<>>3<risihhxcKGKZGGZGGG           ",
"                GGGKGGZBxhssir3933<>=$$$==$><>><<<<rrishcxcGGZG K GGG           ",
"                KGGKKZcccchii333393<>$=>>==><<>><r3sir9hBBZGGG    GGG           ",
"                 KKUKKGcBcxhr3rr993<>$<<<<><<<3<3irisrrxZZGGGG    GG            ",
"                  KKKUUKGZcxsr3933<3<<<93339<39<iiiisiscGGGGGZ    G             ",
"                   KKKUUKZZBhrrii339r9rr93339ririssi9rsBGGGGZG                  ",
"                    KKUWUGGBhssshhssiiiir93rihiihhsrixcGGGGZG                   ",
"                    UUUUUUKBxxcBchxsiiii93isxhihxchhccBGGZGGG                   ",
"               K   KUUUUUWUGGccxxBxshir39ihcBxhZBcccZBGKKKGK                    ",
"                UKKKUUWUUWUUUZGGGZBchrirhhcccxBZBZGKUGKKKGG                     ",
"                UUUUUWUGKKKUKKKKUKGcshxccchxBBZZZZGUKUKKKKK                     ",
"                UUUWUUKGBGKWWUKWKZBxxcZBxcBZKUKKZGKWUKKKGKG                     ",
"                 UWUWKKGGZZZZZcBcBBBGGBBcBKW^WWUKUUWU   KK                      ",
"                   WWUWWKZBZBBZKKKKWWKKKKW)^WW^^WWUW    U                       ",
"                    WW^UUWUUUUU^^^^^^UW^W)^^^^^WWWW                             ",
"                      W^^WW^^))^)))^^)^^^^W^^^^W^W                              ",
"                       ^^^))^^)))^)))^)^^^^^^   ^                               ",
"                          )))))))^^^    ^^))                                    ",
"                            ))))^))))))^))                                      ",
"                               ^)))) )))                                        ",
"                                                                                ",
"                                                                                ",
"                                                                                ",
"                                                                                ",
"                                                                                ",
"                                                                                ",
"                                                                                ",
"                                                                                ",
"                                                                                ",
"                                                                                ",
"                                                                                ",
"                                                                                "
};
