/* XPM */
static char *_ebcda406f65419cc97cbed91e60b9cdWoYgzpD9KIURAqSw[] = {
/* columns rows colors chars-per-pixel */
"24 80 229 2 ",
"   c None",
".  c #010101",
"X  c #020202",
"o  c gray2",
"O  c #060606",
"+  c #060607",
"@  c #060707",
"#  c #070707",
"$  c gray3",
"%  c #09090A",
"&  c #0C0C0D",
"*  c #0F0F11",
"=  c #101012",
"-  c #131314",
";  c #131315",
":  c #141516",
">  c #151516",
",  c gray9",
"<  c #161618",
"1  c #17171B",
"2  c #181818",
"3  c #191919",
"4  c gray10",
"5  c #1B1B1E",
"6  c gray11",
"7  c #1D1D1D",
"8  c #1C1D1F",
"9  c #1D1D1F",
"0  c #1D1E1F",
"q  c gray12",
"w  c #1E1E20",
"e  c #1F1F20",
"r  c #1F1F21",
"t  c #202020",
"y  c #202022",
"u  c #222222",
"i  c #232324",
"p  c gray14",
"a  c #252525",
"s  c #272727",
"d  c #272729",
"f  c #282828",
"g  c gray16",
"h  c #28282B",
"j  c #29292B",
"k  c #2A2A2A",
"l  c gray17",
"z  c #2B2B2D",
"x  c #2C2C2C",
"c  c #2D2D2D",
"v  c gray18",
"b  c #2E2E30",
"n  c #2F2F31",
"m  c #2F2F32",
"M  c gray19",
"N  c #313131",
"B  c #323232",
"V  c gray20",
"C  c #343434",
"Z  c #353535",
"A  c gray21",
"S  c #373737",
"D  c gray22",
"F  c #393939",
"G  c #3A3A3A",
"H  c gray23",
"J  c #3C3C3C",
"K  c gray24",
"L  c #3D3D3F",
"P  c #3F3F3F",
"I  c gray25",
"U  c #414141",
"Y  c #404142",
"T  c #404143",
"R  c gray26",
"E  c #434343",
"W  c #444444",
"Q  c gray27",
"!  c #464646",
"~  c gray28",
"^  c #484848",
"/  c #494949",
"(  c gray29",
")  c #4B4B4B",
"_  c #4B4C4E",
"`  c #4C4C4C",
"'  c #4D4C4C",
"]  c gray30",
"[  c gray31",
"{  c #4F5052",
"}  c #505050",
"|  c #515151",
" . c gray32",
".. c #535353",
"X. c #515154",
"o. c #525355",
"O. c gray33",
"+. c #555555",
"@. c #565656",
"#. c gray34",
"$. c #555659",
"%. c #56575A",
"&. c #57575A",
"*. c #585858",
"=. c gray35",
"-. c #5A5A5A",
";. c #59595C",
":. c #5A5B5D",
">. c #5A5B5E",
",. c #5B5C5E",
"<. c #5B5C5F",
"1. c gray36",
"2. c #5D5D5D",
"3. c #5F5F5F",
"4. c #606060",
"5. c gray38",
"6. c #626262",
"7. c gray39",
"8. c #626365",
"9. c #636365",
"0. c #636466",
"q. c gray40",
"w. c #676767",
"e. c #696764",
"r. c #696765",
"t. c #686868",
"y. c #6A6A6A",
"u. c #6D6D6C",
"i. c gray43",
"p. c gray46",
"a. c #767676",
"s. c #777777",
"d. c #77787B",
"f. c #797979",
"g. c gray48",
"h. c #7B7B7B",
"j. c #7A7B7D",
"k. c #7C7C7C",
"l. c gray49",
"z. c #A10B0F",
"x. c #A7090E",
"c. c #B70709",
"v. c #B3080A",
"b. c #B80809",
"n. c #BC0809",
"m. c #A60C10",
"M. c #972C2C",
"N. c #C60B09",
"B. c #C60D09",
"V. c #CB0F0A",
"C. c #D2130B",
"Z. c #D3160C",
"A. c #DD1B0B",
"S. c #E42310",
"D. c #EC2B11",
"F. c #E22919",
"G. c #F43A19",
"H. c #F1513C",
"J. c #FD6139",
"K. c #B04844",
"L. c #807C79",
"P. c #FA7154",
"I. c #F67462",
"U. c #9C8C77",
"Y. c #A3917E",
"T. c #FE9578",
"R. c #7E7F82",
"E. c #818181",
"W. c #848484",
"Q. c gray53",
"!. c #8B8B8B",
"~. c #88898C",
"^. c gray55",
"/. c #938C84",
"(. c #918D89",
"). c #939393",
"_. c #96979A",
"`. c #9B9B9B",
"'. c #A29381",
"]. c #A29587",
"[. c #A29788",
"{. c #A2978C",
"}. c #A2998E",
"|. c #A09A91",
" X c #A29A90",
".X c #A29A91",
"XX c #A09A93",
"oX c #A29A93",
"OX c #A09A95",
"+X c #A09C95",
"@X c #A09E9D",
"#X c #ACA096",
"$X c #AAA19A",
"%X c #AAA39E",
"&X c #B0A193",
"*X c #B6A390",
"=X c #9E9FA3",
"-X c #9FA0A4",
";X c #A0A1A5",
":X c #AAA5A1",
">X c #AAA6A4",
",X c #ABA8A6",
"<X c #A6A7AB",
"1X c #ABA9A8",
"2X c #ABA9A9",
"3X c #ABAAAA",
"4X c #ABAAAB",
"5X c gray67",
"6X c #ABABAC",
"7X c #ABABAD",
"8X c #ABACAD",
"9X c #ABACAE",
"0X c #ADADAF",
"qX c #AAACB0",
"wX c #ABADB1",
"eX c #ADADB0",
"rX c #ADAEB0",
"tX c #ACAEB2",
"yX c #B9BABE",
"uX c #C3C4C8",
"iX c #C5C6CB",
"pX c #C6C7CC",
"aX c #C6C8CC",
"sX c #C7C9CD",
"dX c #C8CACE",
"fX c #CBCCD1",
"gX c #CBCDD1",
"hX c #CCCDD2",
"jX c #FECCC2",
/* pixels */
"                                                ",
"                D.P.T.                          ",
"              V.S.I.jXJ.                        ",
"              b.C.F.H.G.                        ",
"              n.v.B.Z.A.                        ",
"              N.c.x.z.m.                        ",
"                K.M.                            ",
"                |.j.{ 9 j                       ",
"                |.eXo.5 < = & z                 ",
"                OXeX;.w n sXsXY T y             ",
"                OXeX,.r yXgXsX<XR.X # 9         ",
"                OXeX,.w uX_ wX~.0.X o ; w j b   ",
"                `.eX<.>._.gXiX-XwXX @ ; w j     ",
"                |.eX<.L 8.d.$ $ ;XX @ ; r       ",
"                OX0X<.w =XX.& 0.o X o 1         ",
"                +XeX>.w b gXsXwXX o             ",
"                OXeX&.9 : = o #                 ",
"                +XrX&.9 : =                     ",
"                +XeX$.p                         ",
"                OXeX                            ",
"                OXeX                            ",
"                +XeX                            ",
"                OXeX                            ",
"                OXeX                            ",
"                +X0X                            ",
"                OX0X                            ",
"                OX9X                            ",
"                +X9X                            ",
"                OX9X                            ",
"                OX9X                            ",
"                OX9X                            ",
"                +X9X                            ",
"                +X9X                            ",
"                +X9X                            ",
"                OX9X                            ",
"                OX9X                            ",
"                OX9X                            ",
"                OX9X                            ",
"                OX9X                            ",
"                +X9X                            ",
"                +X9X                            ",
"                +X9X                            ",
"                OX9X                            ",
"                OX9X                            ",
"                +X9X                            ",
"                +X9X                            ",
"                +X9X                            ",
"                +X9X                            ",
"                +X9X                            ",
"                +X9X                            ",
"                +X9X                            ",
"                +X9X                            ",
"                +X7X                            ",
"                +X7X                            ",
"                OX7X                            ",
"                |.7X                            ",
"                OX5X                            ",
"                oX6X                            ",
"                oX5X                            ",
"                oX5X                            ",
"                }.5X                            ",
"                oX5X                            ",
"                }.,X                            ",
"                {.,X                            ",
"                [.,X                            ",
"                ].:X                            ",
"          k.Q.  Y.%X@Xg.f.p.                    ",
"    2.Z 2.Q Q 4.Y.$Xe.c j l 2.-.s.              ",
"  2.E.6 K D H *.U.#Xe.j j c @.) W.).            ",
"  R R Q l.f.i.r./.&XL.4.g.^.`.^.[ G             ",
"  Q R ) v l x M ) *X/.) } ) } O.@.R             ",
"  R 2.Q B j x M ) i.p.^ ) ) #.7.s.@.            ",
"  R Z B c Z S S I ) ) 4.} ) } O.p.@.            ",
"    K Z c S S C S S H 4.^ ) } -.5.              ",
"    G G C G H C S Z C I j t , 9 Z               ",
"    Z G C j f p C t 4 4 , K ^ @.5.              ",
"    R G B j j p S y s H Q y. .-.t.              ",
"    ) Z K G B v ) ^ )  .-.w.7.p.@.              ",
"        B B G v C S I w.Q [ O.                  ",
"                                                "
};
