/* XPM */
static char *a2b1af5aa13549c38b8a965ba29bb064G91Z4lJOmSddqcRl[] = {
/* columns rows colors chars-per-pixel */
"80 80 206 2 ",
"   c None",
".  c #030303",
"X  c #0B0604",
"o  c #0D0906",
"O  c #070808",
"+  c #0C0B0B",
"@  c #060708",
"#  c #130B07",
"$  c #120D0B",
"%  c #190E0C",
"&  c #14100F",
"*  c #1A110E",
"=  c #1C1309",
"-  c #0D0E10",
";  c #0F1011",
":  c #141515",
">  c #1B1514",
",  c #171817",
"<  c #1D1914",
"1  c #151618",
"2  c #1D1518",
"3  c #171818",
"4  c #1A1B1C",
"5  c #20110F",
"6  c #261606",
"7  c #351B0A",
"8  c #221414",
"9  c #231A15",
"0  c #2C1C16",
"q  c #25151A",
"w  c #2C171C",
"e  c #241B1B",
"r  c #2B1D1A",
"t  c #2A1617",
"y  c #311B1D",
"u  c #381E1F",
"i  c #391C14",
"p  c #35240A",
"a  c #2C2214",
"s  c #2D211C",
"d  c #24211C",
"f  c #33221D",
"g  c #3A231E",
"h  c #382A17",
"j  c #2E230C",
"k  c #1D1F20",
"l  c #231E21",
"z  c #291D21",
"x  c #1E2121",
"c  c #1F2826",
"v  c #222424",
"b  c #2A2225",
"n  c #252728",
"m  c #262929",
"M  c #2B2D2D",
"N  c #242826",
"B  c #352521",
"V  c #3B2521",
"C  c #3C2924",
"Z  c #342C2A",
"A  c #3C2B2A",
"S  c #34322D",
"D  c #3A372E",
"F  c #3F3421",
"G  c #2D2F30",
"H  c #2E3132",
"J  c #2F3837",
"K  c #323535",
"L  c #3A3534",
"P  c #333837",
"I  c #343738",
"U  c #363A3A",
"Y  c #393D3D",
"T  c #29312F",
"R  c #411F19",
"E  c #4A2A0B",
"W  c #45330B",
"Q  c #41251F",
"!  c #43341B",
"~  c #48371B",
"^  c #463617",
"/  c #513F16",
"(  c #742C1C",
")  c #71321E",
"_  c #422721",
"`  c #432B24",
"'  c #4B2D25",
"]  c #462E28",
"[  c #4C2E28",
"{  c #512F27",
"}  c #522F28",
"|  c #5F2F24",
" . c #453523",
".. c #4C3126",
"X. c #44312B",
"o. c #4D342A",
"O. c #4F3A29",
"+. c #523127",
"@. c #533129",
"#. c #57322A",
"$. c #553229",
"%. c #54322A",
"&. c #5A342B",
"*. c #5B352B",
"=. c #55392E",
"-. c #5C3A2E",
";. c #413833",
":. c #5D3E31",
">. c #60362C",
",. c #603A2E",
"<. c #6B3B2F",
"1. c #783A24",
"2. c #613E30",
"3. c #3B403F",
"4. c #58431A",
"5. c #59400B",
"6. c #6C4F0F",
"7. c #79570B",
"8. c #664D18",
"9. c #764B1E",
"0. c #7B5D1C",
"q. c #70541F",
"w. c #69501E",
"e. c #7D601D",
"r. c #5E4133",
"t. c #544034",
"y. c #634233",
"u. c #6B4632",
"i. c #715B2C",
"p. c #7E642B",
"a. c #3A3F40",
"s. c #423D40",
"d. c #3D4242",
"f. c #374243",
"g. c #414646",
"h. c #414646",
"j. c #454B4B",
"k. c #484F4E",
"l. c #424748",
"z. c #534B47",
"x. c #4C4F51",
"c. c #4B5051",
"v. c #585D5E",
"b. c #535756",
"n. c #49504F",
"m. c #6D4C43",
"M. c #6D6650",
"N. c #5D6465",
"B. c #616868",
"V. c #6D7271",
"C. c #66706F",
"Z. c #972D17",
"A. c #88301C",
"S. c #983D27",
"D. c #813423",
"F. c #CA3E1D",
"G. c #96701D",
"H. c #A1631B",
"J. c #AC7F19",
"K. c #854C35",
"L. c #91502A",
"P. c #AF5330",
"I. c #94783B",
"U. c #8E7232",
"Y. c #A57C22",
"T. c #A47D26",
"R. c #ED461E",
"E. c #C54623",
"W. c #E35825",
"Q. c #F55822",
"!. c #DB632A",
"~. c #C87C28",
"^. c #C66E28",
"/. c #EA6C2D",
"(. c #F46B29",
"). c #FE6D27",
"_. c #FC7C2B",
"`. c #EE7E2C",
"'. c #877957",
"]. c #AC8429",
"[. c #B68D31",
"{. c #DE8B27",
"}. c #CE9C2C",
"|. c #C59429",
" X c #D09E2D",
".X c #E08C28",
"XX c #FF8A2C",
"oX c #F1832A",
"OX c #FC9C2C",
"+X c #DFA82B",
"@X c #D3A33B",
"#X c #D6A535",
"$X c #E1AA2B",
"%X c #E3AD37",
"&X c #AA8D4B",
"*X c #978A68",
"=X c #9E9272",
"-X c #9C906E",
";X c #B8A069",
":X c #BBA571",
">X c #C69F45",
",X c #D5AB51",
"<X c #ECBA4E",
"1X c #CFAD61",
"2X c #F1C25F",
"3X c #F2C361",
/* pixels */
"                                                                                                                                                                ",
"                                                            : : : : : : : : : : : : : : : : : : : :                                                             ",
"                                                    : : : x n 4 3 3 3 : m P H H G M n n m n 4 : 4 v v : : :                                                     ",
"                                                  M M m v M G 4 3 x K H d.j.d.3.I P P P P P d 1 4 K H v v v v                                                   ",
"                                            : : : d.j.d.P P G x 3 m k.j.d.Y Y P K K K K K K x 4 m Y P P P P M : : :                                             ",
"                                        4 4 4 3 : Y l.d.P P K G 4 b k.g.Y K P P P P P K P K x N n.d.Y K K P M : 4 4 4 4                                         ",
"                                  4 3 v Y I v 4 : K Y K P K M Z 4 v a.I P K P K K P K K K K x v k.h.Y K K K M : 4 v K K v 4 4                                   ",
"                                v l.Y Y P P K M , M P K K G M M 4 x P K K K K P K K K K G M 4 x P P K K K P M : m K K K H H M 4                                 ",
"                            : M d.h.d.Y P K K M : 4 n K G G G G 4 x P P K K I P P K G G m v : x K K K K K m 4 : H K K K K K K M v :                             ",
"                          : : P n.d.Y P K P K G v 4 v I G M G G 4 4 v K K K K P K G v v v 4 : e P P P P Y v 4 H K K P K K P P L v : :                           ",
"                        v M v M Y h.P K K K G G M 4 4 m M n v v 4 : : v n n n n v v 4 : 3 : : 4 v n H P H k v l.P P P K K K K m v v v 4                         ",
"                      v K j.P m v d.P K K K G M G 4 : 4 v l 1 4 : : 4 4 4 1 4 4 4 4 4 4 4 4 1 1 4 4 N H 4 : N n.Y P K P K K M l n K P n 4                       ",
"                    : Y l.d.K K G 4 m K K G G M M 4 : : 1 k n v 4 4 z v v l v v b m M b M M k k Z K n 4 4 : v l.d.Y K K H m 3 M K K L K M :                     ",
"                    4 P Y P K K M 4 : v K P G m 4 : 4 v v v v v q q q q q q q q q w q q w w y b G M G H H l : 4 I Y K K v , 4 H K P P P T 3                     ",
"                  v g.I P K K P K M 4 4 l M v 4 3 k k 4 v l q q _ [ @.' ' ' ' y f } } ' ' ' #.[ z q b M 4 n m 3 4 M P v 4 4 m K P K P P K M 4                   ",
"                : 4 Y P K P P P K K 4 3 : 4 k k v v l 2 q u ' [ } #.:.-.#.} } y f >.&.#.} [ y.:._ ` B e 2 K Y M 4 4 v , : 4 M M G P K K P K 4 :                 ",
"                : 4 G K K P K P K M 4 4 : 4 v v n l z e V } >.>.#.#.-.,.&.+.&.f f &.#.#.+.X.O.=.#.#.[ u e b K Y G G m 1 1 x P K K K K K K K 4 ,                 ",
"              : : 4 v G K P K K G M k 1 : k v v l A B r #.>.*.*.=.#.-.-.&.$.>.g f #.#.+...V X.o.*.#.#.} r r V K x.x.a.M 4 n h.P K K K K K m 4 : :               ",
"              : k v 3 v M G K G G M 4 2 3 3 k l y :.O.r } { _ _ Q ` +...' _ [ r 0 ` ' C f 9 f C [ ' [ ' e ' [ w x.b.k.h.m M j.Y K K P H v : 4 4 :               ",
"            : 4 P d.l 3 4 v M M M M 4 4 v v 4 3 z :.O.r [ f > a 9 < * a 9 > & 9 9 > : = 9 > : * 9 > q u 0 =.=.w 2 d.B.h.I I d.d.Y K K x 4 4 H m 3 :             ",
"            4 d.h.d.Y v 1 4 v n l 3 1 k n v l w &.y.o.d =.B h |.M.D = ].p.c - 5.8.m : W 6.Z , j 7.j r V e o.r...w s.B.I H J a.d.Y G 4 3 l G K H H ,             ",
"            4 d.h.a.I P I J 4 4 k 1 k c v z u ' 2.y.=.s =.g ^ %X*Xl.< #XI.n + G.Y.m : W 7.S , p 7.h r g r o.y.#.' A L v.j.Y K a.K 4 M G G K I I H 3             ",
"          4 m P P P P P Y I m e 1 k l l l q u #.2.u.O.d =.g ! 2X=Xc.< #X&Xj.: Y.[.b.3 8.].S : j 7.p r f 9 o.r.#.} u z L x.b.a.I I P K K I P I I K m x           ",
"        : v Y K K K K K K K P v : k l l q u ` #.:.y.o.r =.f  .3X=Xc.= ,X;XN.: ].>XV.4 0.#Xb.l ^ J.^ r V r  .2.#.#.} u 2 v.C.a.H a.k.a.I K L i.u.K K v :         ",
"        : n a.I J I I I K K K v : 1 l z y } } %.=.2.=.z =.f  .3X=Xc.9 ,X:XN.: ].,XC.k 0.@XN.v / $X~ r f 9 o.:.#.#.#.#.u z.v.a.a.Y k.d.Y K P /.P.K K l :         ",
"        : l Y =.;.I K J K K m k 4 c l y %.} } %.=.2.o.r =.g  .3X-Xk.< ,X:Xv.: &X1XB.1 0. XD : / $X~ r g r [ *.#.#.#.#.>.u Z N.a.d.j.d.Y P L P.L.H T g R         ",
"        3 4 B !.K.K ;.K K M 4 k l l q u %.} } %.=.y.=.r =.V  .<X'.a.< @X&Xh.& Y.[.H - 0. XD : / $X~ r f 9 ..*.&.#.#.#.>.u b a.b.l.K j.h.Y P L X.L 4 A.E.        ",
"      , a.l.z./.1.u F.#.G m 1 k n q ' #.&.} } %.#.y.o.r =.V  .<X'.P < @X'.M & Y.].M ; q. XD : / $X~ r f r ' *.#.#.} #.#.&.[ z x.l.J j.h.d.Y c | E.A A ] :       ",
"      , d.j.z./.1.Q R.&.M m 1 4 l l } >.| %.} [ %.:.o.s =.V ! +Xi.N * }.G.N & ].].: $ G.}.d + 4.$X~ r g 0 ` *.*.%.%.%.-.<.=.b x.l.H Y d.I c 3 1.W.X.H M :       ",
"      : d.m.P.(.^.H.( f k k k v l q [ >.#.} } } } :...d =.g a q.D e 9 w.O.d > 4.4.: : ~ 8.< : h q.f r g e ' >.&.%.%.=.-.y.=.w a.Y M v v n k ( E./.L <.1.:       ",
"      : f.K.R._.XX~.b c 4 , 4 k z u #.*.} } } } } *.[ r ..V 0 r 9 9 9 < 9 9 s 9 9 r f s r s y s r r g ` q ' >.#.&.#.#.-.2.-._ b v l 1 3 k n E.).`.L.S.( :       ",
"      : r.P.Q.OXoX!.<.A x : 4 2 z | *.#.%.} } %.} *.' r [ ' V ` s 9 d 0 d s A s f  .Q _ Q ' `  ...` ' [ z ] >.#.#.#.#.&.:.<.>.y 2 4 1 1 r | W.XXOXQ.S.' :       ",
"      . Z.W._..XoX(.F.7 - 1 k q y #.#.@.[ { { $.&.&.` r #.&.} }  .` C V A ` X.s V r.-.#.#.&.-.r.y.=.&.{ r ` -.{ ` ] @.=.:.,.*.y 4 v 3 - i F.(.oX{._.W.Z.O       ",
"      : > 9.{.E H.~.0 b k 1 l l w :.=...` [ #.#.%. .B r :.2.&.@.%.[ ] C ..=.=.f f =.-.#.#.#.-.y.y.=.#.[ 9 ` =.C C C ` =.=.-.&.5 : k 3 P Y 0 ~.H.E {.9.> :       ",
"      : . = p o 6 7 . v v 1 c l y r.=...C ] f 0 A #.' r r.y.>.@.&.*.&.] ..=.y.g f =.&.&.=.*.,.y.-.#.#.[ r ` } A e > 9 ` &.[ = # X O : Y Y X 7 6 X p = . :       ",
"      : : o . + O O k M n 1 l l y y.o.V 9 4 > > A ..` d :.2.-.} #.&.-.]  .r.y.V f &.-.=.&.-.,.,.#.#.#.[ r C V 9 # # $ * 9 8 : X . . : K Y v X O o . X : :       ",
"      : 3 + . : O . k v 4 1 v q y r.C 4 3 1 : 4 r ` _ d :.y.*.} @.&.-.[ &.,.y.V f #.-.*.&.&.,.*.#.#.#...r r < o $ : $ : o & m + $ 4 1 x n v @ O : . + 3 ,       ",
"      : N 4 . + O + v 4 k : k 4 b y.r : k 3 1 : $ r r 9 ` ` ` V V V ` V C ` C r e V _ V V V _ _ B g V B < : : $ v x : 4 & & N $ < v 3 x m c + O + . : k :       ",
"      4 d.P + . O : K K n 1 1 2 y r.9 : n ; + + X O + & ; ; - $ : : - : : : : ; ; ; ; ; : ; : ; : + ; : : + : k J M 4 : $ o # o : 4 : Y j.d.4 @ . + v G ,       ",
"      : d.P ; . O 4 K M v : c q y r.e : c 4 : + X + + : : ; : : 1 : 4 : : 1 3 4 4 : 4 : ; : 1 : : : 1 1 : : : 4 H J M 4 o # $ o 4 H 3 P j.d.4 O . + m M :       ",
"      4 d.P : . O 3 K G v : v l y y.e + + + + + X + ; ; & : : : : : 3 : : 4 4 k 4 3 4 4 4 4 3 3 4 : : : + : : 4 1 1 3 : $ : M # 4 M 4 P k.d.4 + . + m M :       ",
"      : d.P + . + 4 M G v 4 v q y r.` q O O X + > V f e ' [ [ ` ` ` ' ' [ } @.f s ] [ [ ] ' [ [ ' _ ! ` e : + o O O $ $ o & v + O o : P j.d.4 O . ; m M ,       ",
"      3 Y H ; . + : M v 4 : v l y :.%.f + $ $ * B ` ` 9 { *.*.} #.} } } *.>.-.g f } >.*.#.} *.*.#.} &.$.r C V $ $ o X # i f & X . . : v K d.k O . + m M :       ",
"      : H H : + + : v 4 : , v l y -.#.` r r < <  .#.` e ' &.*.} } } } } &.*.*.g f #.*.*.} #.*.&.} &.-.#.0 o.=.r > & $ 9 [ &.0 # $ 4 : : 4 M 3 : ; : m H :       ",
"      , v c : : : - 1 : 3 : k 2 z O.` ` X.] b d g o.X.r ' &.*.} } } %.} #.-.>.f f } *.*.#.@.&.&.#.&.#.&.9 o.-. .r 0 y ` #.-.$.% : n : 4 , , ; : 4 ; k v :       ",
"      : x 4 ; : ; ; 4 1 : : 1 2 w Z & : U  .A v o S L r ' &.*.+.} } } } #.*.>.f f } *.*.@.#.@.#.&.} &.&.r o.,.=.A ' $.} &.-.$.5 > 4 : : , 4 & ; ; ; , 4 3       ",
"      , 3.Y x v k l H c 3 3 k l w _ = o & $ # $ o y f 8 ' #.-.$.%.[ } } } } >.B f @.*.&.@.#.@.@.} #.*.&.0 ..-.@.` ..$.} *.*.} w v M , 4 c H v 4 k 4 m M :       ",
"      , d.d.v x k v K G k 2 c e q e & * y g g f o > < > ' &.>.*.#.} %.} } #.*.B y @.*.&.@.@.#.#.#.} &.#.d o.,.#.#.#.} } *.>.} y b H , K h.3.N 4 k k m H :       ",
"      , d.l.P v 4 4 G G v : v l q : 8 y g _ ' Q 0 8 : * ' &.,.>.#.[ @.} } } #.f f } *.&.@.#.#.&.#.#.*.#.r o.y.#.-.&.} } | &.:.y z K 1 U n.d.H N 4 x M M 3       ",
"      : d.j.Y v 4 x S v 4 4 v e 8 $ e s g _ _ _ g > # * _ &.>.-.#.} @.} #.#.} s y #.*.&.@.} #.} #.} *.#.r  .y.#.*.&.} } &.&.2.y b H 3 v P j.d.H k 4 M T :       ",
"      3 P h.P x x v v 4 3 1 v l t 0 2 4 B r y 0 8 > > 8 ' &.>.*.#.} @.} #.*.} f f #.*.&.} @.} #.#.$.*.#.r ..-.#.*.*.} } #.&.:.y v K 3 3 x P d.K k m H M :       ",
"      : N M M 3 k v , , 1 : k 2 y *.y 2 1 : & : = 0 s 0 ' -.>.&.@.} @.@.#.*.} f f +.&.#.} #.#.&.} $.*.#.0 ' *.$.*.*.} } #.&.:.y z m 3 : 3 3 G m 4 m M m ,       ",
"      : : 3 : ; : 4 4 3 3 1 1 2 y >.#.V * * * > g Q f r ..&.*.#.} @.@.} &.*.@.s f { } } #.#.&.*.} #.*.$.0 ' *.$.*.*.#.} @.&.r.y 2 4 : 4 e 4 4 : + , : : :       ",
"      : 4 4 4 : v H K H n 1 v e w *.#.%.' ' ' [ *.} V r ..&.&.@.&.&.} } &.*.@.f f { } } #.*.-.*.} #.*.$.9 ' *.$.#.*.*.} #.&.y.y b G 3 K j.j.P v ; 4 4 4 :       ",
"      , P d.P v M I I I m : v l w #.:.:.} } } #.>.} _ r o.-.,.=.*.&.} [ #.*.@.y f } } } #.-.,.*.} *.*.[ d ..*.#.} *.*.#.#.&.:.y b H 3 P n.d.Y m 4 M H m :       ",
"      3 d.k.d.v M K K K v : c q w } :.:.} } } #.*.&._ r =.-.,.@.*.&.} } #.&.@.f f } #.} #.*.*.*.} >.| [ 0 ' *.#.#.*.*.} } #.2.w b K 3 K d.Y P m c K K m :       ",
"      4 d.j.Y M G P I G v 3 v z w #.2.:.} ] ] } #.#.` a =.2.:.@.*.#.} } #.*.#.B f } } } &.#.*.*.#.$.&.+.r ` &.#.%.o.[ } } #.>.y b H 3 K d.P P H m K K n 3       ",
"      : Y j.a.K K K G G v 3 k l w @.:.-.[ ] ] ] ..@.` d =.y.-.@.#.#.} } &.*.@.r f { } &.*.#.*.-.&.+.&.$.r ` @...] ] ] [ } #.>.q e K 4 K l.I K P P P G N :       ",
"      : G Y Y P K H G Z v 1 l l w @.,.=.] B C ] } &.` 9 -.y.-.@.} @.} :.,.*.@.B f } } &.*.#.&.-.-.$.&.$.r C ..` B B u C ' { [ % : v , H d.K K K P K M v :       ",
"      : 3 v K K M M M M v : k l w @.*.@.V < r C [ =.X.r -.:.#.#.#.} #.2.2.-.@.r f } } &.*.#.#.&.*.$.&.$.r B A V < $ $ B C f # . . . : M P K H H Z M v 3 3       ",
"      : : 4 4 4 4 3 4 3 3 1 1 2 w } ] B > & * 9 C =.] r =.-.&.>.#.+.#.y.2.,.} f f } } #.>.*.*.=.>.$.#.&.r f B > o o # # # & 4 $ X . : 4 4 3 4 4 4 3 3 1 :       ",
"      3 P d.3.P G G M M v 1 c q w } r < , 4 4 4 < o.X.r -.-.#.*.#.#.*.y.2.,.} f f @.@.&.>.,.&.#.>.$.&.+.r 9 & o : : : , & : M & , m , T d.d.Y K M M G m :       ",
"      : a.k.h.Y I P P P m 1 l l w [ < : x : : + o 8 < : r d r r r r r b f r r : : r 0 0 s r 0 r d r 0 0 : & : : M v : 4 $ # < $ e H 3 U c.l.Y P K K K M 3       ",
"      3 Y h.Y K K P G K n 1 k l w [ < 1 N 1 ; + X O + ; ; ; ; + : : ; : : : : : : ; ; : + : ; : : ; : : : - : k J H v : $ o o o 4 H 3 K l.Y P K K K K M :       ",
"      3 I Y K K K K M m x 1 l l w [ q ; k 3 ; + X + + : : : : ; : 1 3 1 1 1 4 4 3 3 4 1 : : 1 3 1 1 : : : : : 1 m T m : + $ < $ 4 K 3 m K K K K K K Z n :       ",
"      , K Y K K K K M e 3 1 c q w ' < + + + + + X > : : : 8 < 4 e 4 e < e e b l 4 e l e e e e e e 4 9 : ; ; ; : $ : : : $ : G & , b : , v K K K K M G n 1       ",
"      : M K H K M M M 4 3 3 v l r @.q + X X X o & o.o.r } } } &.{ [ ..-.=.[ &.f s } [ [ { &.#.=.=.#.+.' e < & o o o # o # & 4 $ X . : : 4 H K M m M M v :       ",
"      : 3 3 4 4 4 4 4 : : : 3 < w &.` r & 4 : & & O.O.e &.&.} *.#.@.#.y.&.#.*.B f } } #.@.#.=.-.,.#.@.' r B y & & o o & g g # . . . : : , 4 4 4 4 4 4 4 :       ",
"      : : v d.P M M M 4 1 1 k 4 y *.@.] B B B B ' -.O.0 { } #.*.&.&.@.-.=.#.@.f f } } &.} } -.y.,.#.} ' r B C B B b g ' { { Q % : v : : x K M M M m v : :       ",
"      3 3 H c.d.Y K K M v 1 l l w *.#.#.=.o.o.' o.r.o.d ' } } &.#.#.#.y.2.&.} f f } } } } } -.y.&.&.} ' r V X.` =.=.o.-.#.} } % 4 K 4 m Y d.P K P P v : 4       ",
"      : m P j.d.Y K P P n 1 c q y >.&.:.y.2.*.#.o.:.=.9 [ &.&.} +.#.$.y.y.,.#.f f } } } } #.,.,.#.#.} [ r _ #...u.y.*.>.&.} { 5 e K 3 Y k.d.P P K K M 4 :       ",
"      3 d.j.d.d.I K K K m : v l w ' _ _ o.[ ' ' Q ..g 8 g _ _ _ Q Q Q ' ' ' Q 0 0 V _ Q _ _ ' ' Q Q Q g 9 f Q ' +..._ ' _ _ ' q v Z : Y k.Y P P K K K m :       ",
"      3 d.j.3.P K K M M v 1 v 4 : q * # # # # # # # # # # # # # # # # # # # # # # # # # # # # # # # # # # # # # # # # # # % q : v M 3 P j.K K P K P Z n :       ",
"      3 d.j.d.K K K G M v : :                                                                                                     3 : M P K P K K M G m ,       ",
"      : K 3.P K K G M G v :                                                                                                         : m K K K K G G G n :       ",
"        v v x x 4 e 4 4 4                                                                                                             4 x x 4 k 4 4 4 4         ",
"                                                                                                                                                                ",
"                                                                                                                                                                ",
"                                                                                                                                                                ",
"                                                                                                                                                                "
};
