/* XPM */
static char *a01cda90838a477b9db8b5e3072b0d343RWhIWNM5bxzWDUk[] = {
/* columns rows colors chars-per-pixel */
"80 80 82 1 ",
"  c #758C8E",
". c #748B8D",
"X c #778E90",
"o c #7C9698",
"O c #839C9F",
"+ c #849EA1",
"@ c #839DA0",
"# c #7F989B",
"$ c #768E90",
"% c #748C8E",
"& c #7C9497",
"* c #7D9598",
"= c #7A9194",
"- c #768D90",
"; c #788F92",
": c #7B9396",
"> c #7A9295",
", c #758C8F",
"< c #758B8D",
"1 c #799193",
"2 c #7E979A",
"3 c #819B9E",
"4 c #829C9F",
"5 c #7E9799",
"6 c #778F91",
"7 c #758C8D",
"8 c #768D8F",
"9 c #7C9498",
"0 c #789092",
"q c #778E91",
"w c #758D8F",
"e c #839CA0",
"r c #7D9699",
"t c #799194",
"y c #7C9396",
"u c #789093",
"i c #7F989A",
"p c #7A9193",
"a c #7D9597",
"s c #819A9D",
"d c #809A9C",
"f c #7B9395",
"g c #7F999B",
"h c #799093",
"j c #788F91",
"k c #7A9294",
"l c #7B9496",
"z c #849DA0",
"x c #829B9E",
"c c #7D9497",
"v c #748B8E",
"b c #7C9597",
"n c #7C9496",
"m c #7E989A",
"M c #789193",
"N c #839D9F",
"B c #799092",
"V c #80999C",
"C c #7E9699",
"Z c #748C8D",
"A c #7C9598",
"S c #799294",
"D c #778F92",
"F c #7D9698",
"G c #819B9D",
"H c #849EA0",
"J c #7B9295",
"K c #849DA1",
"L c #7A9395",
"P c #768C8F",
"I c #809A9D",
"U c #7A9195",
"Y c #758D8E",
"T c #758B8E",
"R c #7D9498",
"E c #7A9396",
"W c #7F979B",
"Q c #7F989C",
"! c #80999B",
"~ c #829C9E",
"^ c #80989B",
"/ c white",
/* pixels */
"  .XoO+++++++@#$%. X&*****************************&=-.. ;:***************&>,..  ",
"< 123@+++++++@456.78:9****************************&0 . q>&***************&:0w.  ",
"%1#@++@+++++@++er6. t&***************************&yX.78=&*&*************&*&:q . ",
"ui@+++++++++++++O&w q:*************************&*&p8. X:&****************a**18..",
"sO+++++++++++++++d>  1&**************************:X .,;&*******************&fX 8",
"@@+++++++++++++++@g6 8=*************************&h ..8h&*******************&fXj#",
"++@+++++++++++++@+4r8.Xk**&********************&=8 .. q&*&*****************&pjlO",
"++++++++++++++++++zxh  qf&*&***************c**&=-.....8k&*&*************c*&&61#+",
"+++++++++++++++++@+O&$. j:&*&*************&*c&=-v-668  6f9***************c&tw=s@",
"+++++++++++++++++++Ob$.. 0:&***************&&=8 q:#in08 u:***************&=8.0#@",
"+++++++++++++++++++4&-..  q>***************&18.0m4@@O3r$wh&&************&k8 .8&@",
"++@++++++++++++++@+4M . .. Xk*************yh8.t#N++++@426wByc*&********&>q ..%1V",
"O@++++++++++++++@+OC$Z.   . X=&A******&**:h8 0#@++++@++e*q B:&*&******&kq .. .8S",
"24+@+++++++++++++O2D .     . -t&****&**&:08 6iN+@+++++++4&8,u:&******&kX .....%%",
"6#@+++++++++++@@@2D .       .  1n&&**&&:j .XFN+++++++++++Gl  0:&***&&>8        .",
" h#+z+++++++++@4b6 ..       .   6k&&b:0w  %SO@+++++++++++HVh  6J&&&&t8  qh===h- ",
". t#++@++++z+KxL$ .......     .. 8XXX$,... L++@+++++++++@+3f . -j;jq8 q=:&&&&yJt",
"jPw>G@++z+++zslw..Pj0h;-..      ........ . 1x@++++++++++@+sM ...   . X>&*******&",
"yhw8ls@++++OV: . -B:**&=8 .               .q2@+@+++++++++@rw . .... qk&*&*******",
"&&h88l#x44x2M%  q>*&&**&h8 .              .wt3@+++++++++@20 .   .. qJ&**********",
"*&&t-8$011X8 . 0f&*****&yh,.              . 8>s++++++++@i1  .   . jf&***********",
"***&t,.   ...81:&*&***&*&:6 .        ....... 8LI++++@+@g1 .7   . jJ&************",
"****&h8..... ;&**&*****&**UX.     .... ---8 ..8:I++++@g1 .    . qJ&*&***********",
"****&&h87...-=&**********&&B  .  .. 8X0===hj- .8LI44xiS .    . qJ&*&************",
"*****&&h8  .qf&************kX . .  8=&&&&&&&>X .81*C:6  .  .  qJ&***************",
"******&&1  .Xf&************:j ... j>&c*****A&>X   88, ..   . jJ&****************",
"********yh .Y0**&**********:0 ..8h:&A*******&&J6 .....    . ->&*****************",
"********cy; .->&*&*****&**&t8  X1y************9>6  .     . 8=&*&****************",
"*******c*&:X. q:A*****&*b&k$. X=&**************&:j  .    . ;&*&*****************",
"**********&B . t&******&n18. XJ&****************&:j ..  ..-J&*******************",
"**********&>X. 8k&***&*:h8  XJ&c*****************&:q .  . 6&&*******************",
"**********&Jq.  $=&**y=6,T 6J&c*******************&JX.. . ;&********************",
"**********&fq... -B11;- . 6>9**********************&=-... ;&********************",
"**********&kX.  .. 8 <.. XJ9************************&=8 . q&c*******************",
"*********9&B8.        . 8>&**************************n0 ..-J&*******************",
"*********&:X..    ... .wh&***************************b:X . ;&*******************",
"********&:6 .        . X:&**************************&*&=8. 8=&******************",
"******&*&h <.        . 0**&***************************&&6 . X>&*****************",
"*******&=8 .         .-t&******************************&h8...6J&****************",
"******&=8 .          .-=&******************************&=-.  .6:&c**************",
"*****&t- .           . j&******************************&=-.  . qy&**************",
"**&*&JX .    .....   ..X:&*****************************&18.   . j:A*************",
"*&*&=q .    ..   <... .8h&*&**************************&&j .   .7 0:&************",
"**&=- .    . $j;jX8, .. $f&*************************&*&=8.     .  ;>&***********",
"&&=8 v   .. 6f&&&&>h8  . 0:R*************************&:X ........ .6:&&*********",
":h8 .7   . jJ&***&&&Jj .  hy*************************:j <.        . $k&*******&&",
"68 .    . q>&*******&:h8..8=&***********************:0  .. j:&bl1Y.. $=&******&&",
" 7.    . 8=&*&********yh$ <Xk&&*****************&**:h8...,h5sx43gE-.. X0>&**9y=0",
"..    ..80&*&********&*&t-  XJ&*&**************&*&&h8... tWO++++@3:$... Xh>>=0-.",
"      . j&&*************&=-Z j:&****************&nh8..  1#+@z++++@xlw%Z         ",
"      .qJ&A*************&&t$. j:**************&*:h8 .. hV@++++++++@xbw%........ ",
"    . 8t&*****************&h,  hy*************&Jjw .. 1V@+@++++++++@3bw.<       ",
"    ..;:*******************>q .8h:***c****&**&=q ...,t#@+@++++++++@+@xl$.       ",
"   . ,>9*******************:; ..80:&c*a****&:p8 ..  1#++@++++++++++@+@x:-.7     ",
"   . q:********************:j .7. j=n&***&&f0 . <. 0i+z+++++++++++++++@xf  .    ",
"   . ;:********************kX . .   0:&&&J;8  . <%wF4+++++++++++++++++++#0 .    ",
"   . j:******************&&B  .  ...w$XXX- 7..  . 0V++++++++++++++++++++x& .    ",
"   . 8>&***************&**=X.      .........    . L3+@+++++++++++++++++++i .    ",
"    ..6J&***************&:6 .                   . kG+@++++++++++++++++++K2 .    ",
"      .6:&&*************&hw.                    . 6V++++++++++++++++++++3n ....<",
"      . q:&************&>8 .                    .  *4+++++++++++++++++z+26 .    ",
"..     . Xk&**********&k- .                      ..$r@++++++++++++++@++Q1 .. 88%",
"q .     . Xh:&*******9>X..      .......<          %.6C@++z+++++++++@+@dk8. 0lrrA",
"AhY..    ..,;J&*****&J6       <. 88888 ...         <.6#@++++++++++@+@sL8. 05O+++",
"@g1 ..     v X>n&&&&:q .     .. XhJJJ=0w  .         . 6!@++++++++++@slw. 0i@++++",
"+@Vk ..    .  8jh=J18  .       1y&&&&&&:X .         .. 0#@+++++++z+Glw .0i@@++++",
"++@Vk .     ... 8888 ..    .781n*******&fj .7        .  0CO++z+@++#>8..1mN++@+++",
"+@+@V1w.      .......     . -h&*******&**f;8..        ..%6F4++++@#tw. j2O+++++++",
"++@+@5X.                .. Xt&&***********:h8 .         ..qFV33smh ..wb~+@++++++",
"++++@Vj.               .  Xk*&*************&h8 .         %. 0Lfuw  ..82O++++++++",
"++++@Vj.               . XJ&***************&&h8..         .   , %.. .82O++++++++",
"++@+@5X.              . XJ&*&*************&*&&h8.          .....<   .wb~+@++++++",
"+@+@V1w.             ..8=&*&***************&**yB ..           ....... j2O+++++++",
"++@Vk .              .8h&&*********************fj  .         . -XXXX8 .1mN++@+++",
"+@Vk ..            .  0&&***********************fX .       .. qJ&&&yh8 .0iN@++++",
"@20 ..             . ;:*************************&>,..      . jJ&***&&t . j5N++++",
"A0 .. ........    . ->&**************************&0w.     . ;J&*****&&=8. 6&4+++",
"q . .. 61kku$%<<  . h&*&*************************&:X..   . ;:&*&***&*c&=X.T$ErrA",
".. . 8trdssgb0 %<. 8J&**************************a*&0 .  . j:&*&********&=$ .Zw8%",
"   . 0^@@@@@OCw%<. X&*****************************&=-.  .X>&************&t .    "
};
