/* XPM */
static char *result[] = {
/* columns rows colors chars-per-pixel */
"80 80 93 2 ",
"   c #010101",
".  c #080807",
"X  c #0A0A09",
"o  c #0F100F",
"O  c #11110F",
"+  c #151514",
"@  c #171816",
"#  c #191916",
"$  c #1D1D1D",
"%  c #201F1C",
"&  c #21211E",
"*  c #242424",
"=  c #292722",
"-  c #2B2B26",
";  c #2C2C2C",
":  c #312F2A",
">  c #2F302B",
",  c #33322D",
"<  c #38362F",
"1  c #333332",
"2  c #393631",
"3  c #373831",
"4  c #3C3B34",
"5  c #3C3C3A",
"6  c #403E37",
"7  c #413F3A",
"8  c #3E4037",
"9  c #3F413A",
"0  c #43423A",
"q  c #48473E",
"w  c #47483F",
"e  c #4A483F",
"r  c #464645",
"t  c #474842",
"y  c #4C4B42",
"u  c #4C4C4B",
"i  c #514F45",
"p  c #4F5046",
"a  c #4F504A",
"s  c #525146",
"d  c #55544A",
"f  c #58564C",
"g  c #5B594E",
"h  c #535353",
"j  c #5E5C51",
"k  c #615E53",
"l  c #646256",
"z  c #676558",
"x  c #69675A",
"c  c #6D6B5D",
"v  c #706E5F",
"b  c #6F6D60",
"n  c #716E60",
"m  c #747263",
"M  c #787667",
"N  c #797867",
"B  c #797768",
"V  c #7C7A6A",
"C  c #807E6E",
"Z  c #82806F",
"A  c #858372",
"S  c #898775",
"D  c #8B8977",
"F  c #8D8B79",
"G  c #908E7B",
"H  c #94927E",
"J  c #969481",
"K  c #999783",
"L  c #9C9A85",
"P  c #9F9D88",
"I  c #A19F89",
"U  c #A4A28C",
"Y  c #A8A78F",
"T  c #A9A690",
"R  c #ADAB94",
"E  c #B0AE97",
"W  c #B1AF98",
"Q  c #B5B39B",
"!  c #B9B79E",
"~  c #B9B89E",
"^  c #BDBBA1",
"/  c #C1BFA5",
"(  c #C2C1A6",
")  c #C5C4A9",
"_  c #C9C7AC",
"`  c #CBCAAE",
"'  c #CECDB1",
"]  c #D0CFB2",
"[  c #D4D2B5",
"{  c #DBDABC",
"}  c #E2E0C2",
"|  c #EDEBCB",
" . c None",
/* pixels */
" . . . . . . . . . . . . . . . . . . . . . . . . . . . . . . . . . . . . . . . . . . . . . . . . . . . . . . . . . . . . . . . . . . . . . . . . . . . . . . . .",
" . . . . . . . . . . . . . . . . . . . . . . . . . . . . . . . . . .k c x c x f k C G  . . . . . . . . . . . . . . . . . . . . . . . . . . . . . . . . . . . . .",
" . . . . . . . . . . . . . . . . . . . . . . . . . . . . . . .i f V U R Q ~ Q K G U R I M V F A  . . . . . . . . . . . . . . . . . . . . . . . . . . . . . . . .",
" . . . . . . . . . . . . . . . . . . . . . . . . . . . . . .k x A L Q ! ( _ ) U L L I I K U T S z  . . . . . . . . . . . . . . . . . . . . . . . . . . . . . . .",
" . . . . . . . . . . . . . . . . . . . . . . . . . . .e y x m K ~ ! V B Z A C c m x z A ~ _ / H g 0 l  . . . . . . . . . . . . . . . . . . . . . . . . . . . . .",
" . . . . . . . . . . . . . . . . . . . . . . . .n c M A 6 c R K v V m M M V B c m x x x z B z I V V | } { M 0  . . . . . . . . . . . . . . . . . . . . . . . . .",
" . . . . . . . . . . . . . . . . . . . . . .y i m E { ] n 0 x C V C C B m V C n n n v x z n n f V ^ [ H K ! _ U :  . . . . . . . . . . . . . . . . . . . . . . .",
" . . . . . . . . . . . . . . . . . . . .i g c U ! E I I T 0 l C V V V B n m C n n n n v x k k 0 C ! K B C D G H H f  . . . . . . . . . . . . . . . . . . . . . .",
" . . . . . . . . . . . . . . . . . . .d m K R Y R H C A H C l x m m B B m m V m x c c x l g e v U T M m V m M Z K F s  . . . . . . . . . . . . . . . . . . . . .",
" . . . . . . . . . . . . . . . . . .e i F ' ! Z V M M V v ^ l q k c m m M m m M l x z k j y , J E F v m V N V M m K g f  . . . . . . . . . . . . . . . . . . . .",
" . . . . . . . . . . . . . . . .j c M i c Q C N M v n B m ! m 4 6 j c l x l k l k j g j f : < J F x m c C V M m c , k C D  . . . . . . . . . . . . . . . . . . .",
" . . . . . . . . . . . . . . .z H [ ` n s V V C V c m C M n U V 4 f b 6 2 , ; 5 < : e l f , s U L m V x m V V M m , k R R x  . . . . . . . . . . . . . . . . . .",
" . . . . . . . . . . . . .y g A _ { K m k s V C B m m n c z I V 2 6 0 @ X * 5 ; X X = 4 < , g U I C V x c m m l y z Y Y T R s  . . . . . . . . . . . . . . . . .",
" . . . . . . . . . . . .q g A Y K L C m g 0 c V m n c x z y f i 4 ; @     * r - .   . * 4 ; 5 j m M m c c n v f 0 R K Z D U U g  . . . . . . . . . . . . . . . .",
" . . . . . . . . . . . .s C P L m V B m l i i n v c k i y & # 1 r *       - u *       $ r ; # $ 6 f f v x m l g A Y V m M S Y D l  . . . . . . . . . . . . . . .",
" . . . . . . . . . . .0 B I K V M B m n m x 2 k k k i : & .   ; u *       * u ; .     * h - .   O ; 6 k f x k m ` m m m M M V R A l  . . . . . . . . . . . . . .",
" . . . . . . . . . .e l ! H m m M m m m m x 0 s 5 2 1 *       ; u *       * u ;       * u ; .     # r , : y v L Q m m M V C v v W F i  . . . . . . . . . . . . .",
" . . . . . . . . . .f T _ K M M m m M m x z n 0 + * 5 *       ; u *       ; u * .     * h * .     % h ; X * s n m m m c c M M x M P F 4  . . . . . . . . . . . .",
" . . . . . . . . .4 e m M c x c m M b c x g 6 +   > r *       ; u *       * u ;       * u ; .     $ h ; . . = y c x v v v n n l c U K 2  . . . . . . . . . . . .",
" . . . . . . . .V m 4 e f l x c z c c x f 4 +     1 r *       ; u *       ; u ;       * u ; .     $ h ; .   X & y x x x c c x k k c k 4 s  . . . . . . . . . . .",
" . . . . . . .y G Q c y e i k x j l c j 0 &       1 r *       ; u *       * u * .     * u ; .     $ h ; .     + 7 s k z x x j i k m B n s  . . . . . . . . . . .",
" . . . . . . .e D ) R D i q s g s j j y 1 *       > u *       ; u *       ; h *       * h * .     $ h ; .     + u 2 g k k k s g F R ^ W n  . . . . . . . . . . .",
" . . . . . . .f F T Z _ F C k 4 i f 4 7 5 $       1 r *       ; u *       * u *       * h ; .     $ h ; .     $ h ; : e g s i ` [ L n A [ l  . . . . . . . . . .",
" . . . . . .f P K V m M ~ [ Y j 4 6 + 1 r *       > u *       ; u *       * h * .     * u * .     $ h ; .     # h ; o = 4 k ) K S C B C ` g  . . . . . . . . . .",
" . . . . . .d U K m b c C H T H , + . 1 r *       > u *       ; u *       * u ; .     * u ; .     $ h ; .     # h 1 X X $ y F C m V V A ` c  . . . . . . . . . .",
" . . . . . .K P S m M c n B F C :     1 r $       1 r *       ; u ;       ; u *       * u - .     $ h ; .     $ h ; X   + 0 c B M V M V I Y M  . . . . . . . . .",
" . . . . . .' P V M M c M V c y $     1 r *       1 r *       ; u *       ; h * .     * h ; .     $ h ; .     # h 1 X   o : f n V B m v B ' C i  . . . . . . . .",
" . . . . .j _ U S V b m V V k -       5 r *       > u *       ; u *       * u ;       * u ;       $ h ; .     $ h 1 X     X 2 z M m c c m ! F x  . . . . . . . .",
" . . . . .f ^ J V M c l z n g -       5 r *       1 r *       ; u *       * h * .     * u ; .     $ h ; .     # h ; X     X < k c x k k x M ! J d  . . . . . . .",
" . . . . .4 V M m m l j c z y =       1 r $       > r *       ; u *       * h *       * h * .     $ h > .     $ h ; X     X < k x l g l x n T A 4  . . . . . . .",
" . . . . .K f q e s g s x s 4 &       1 r $       1 r *       ; u *       ; u * .     * u ; .     $ h ; .     # h 1 X     o 7 0 f f s s e y C c 0  . . . . . . .",
" . . . .J U A V d 2 q 6 s 0 , *       1 u *       1 u *       ; u *       * u ;       * u ; .     $ h ; .     $ h 1 X     + u , 6 0 y c H F U S s  . . . . . . .",
" . . . .J M E E A k k 0 2 1 1 $       1 r $       > r *       ; u *       ; u * .     * u ; .     $ h ; .     # h > X     + h 1 , i m K ] ( ( K l 0  . . . . . .",
" . . . .! v M B I / E n 6 , : $       5 r *       > u *       ; u *       * u ;       * u - .     $ h ; .     $ h > X     + h ; , A / Q A V V B c f  . . . . . .",
" . . . .! m B A D A A / q 5 5 $       1 u *       1 u *       ; u ;       ; u ; .     * h ; .     $ h ; .     # h ; X     + h , , V I m V m V V c d  . . . . . .",
" . . . .^ c v m B m v n 2 r r $       1 r $       1 r *       ; u *       * h *       * u ;       $ h ; .     $ h 1 X .   # h 1 , V L m m n M M x s  . . . . . .",
" . . . .^ x v B C M x x 4 u r $       1 r *       > u *       ; u *       * h * .     * u ; .     $ h ; .     # h > X     + h 1 : C U b m V M M c i  . . . . . .",
" . . . .) n n B C M v n 6 u r %       1 r $       1 r *       ; u *       * h *       * h * .     $ h ; .     $ h > X     + h 1 , A U x x V m v c s  . . . . . .",
" . . . .] v n n n n n m 6 u r $       1 r *       1 r *       ; u *       ; u * .     * u ; .     $ h ; .     $ h 1 X     + h 1 , S U l k m v c k s  . . . . . .",
" . . . ./ k z k j k v x 4 u r *       5 r *       1 u *       ; u *       * u ;       * u ; .     $ h ; .     # h ; X     $ h 1 , S R M k c c x f 0  . . . . . .",
" . . . .Q g s x x k k g 6 u r $       5 r $       1 r *       ; u * .     * u * .     * u ; .     $ h ; .     # h 1 X     + h 1 : A Y b z V l f s e  . . . . . .",
" . . . .R g s c z g k e 2 u r $       1 r *       1 u *       ; u *       ; h *       * h * .     $ h ; .     $ h 1 X     + h 1 , V K l k m g y i e  . . . . . .",
" . . . .x e y s y 0 e 4 < y r $       1 r $       1 r *       ; u *       * u ;       * h ; .     $ h ; .     # h ; X   . @ h 1 , y j y q y 6 6 0 6  . . . . . .",
" . . . .n n V m n v c e 2 u r %       1 r *       1 r *       ; u *       ; u * .     * u * .     $ h ; .     $ h 1 X .   @ h 1 , s c m m x c n l 6  . . . . . .",
" . . . .` ^ _ ^ / / E z 4 u r *       1 u $       1 r *       ; u *       * h *       * u ; .     $ h ; X     # h ; X     + h 1 , A ) ) ) ! ! ^ U i  . . . . . .",
" . . . ./ n V V S A c l 4 u r $       1 r *       > u *       ; u *       ; u *       * u ; .     $ h ; .     $ h 1 X     + h 1 , S T V V m M V M j  . . . . . .",
" . . . ./ B x c v m c x 4 u r $       5 r $       1 r *       ; u * .     * h ; .     * h ;       $ h ; .     $ h 1 X     @ h 1 2 Z I l x m V V c f  . . . . . .",
" . . . .! m v v m v x x 6 u r $       1 r *       > u *       ; u *       * u *       * u ; .     $ h ; X     @ h 1 X     @ h 1 , S T c n m V V c g  . . . . . .",
" . . . .Q x v n n x l x 6 u r $       1 u *       > u *       ; u *       * u ;       * u ; .     $ h ; .     # h > X     + h 1 : D R n B m m m c f  . . . . . .",
" . . . .Q k x c l l l m 6 u r %       1 r $       1 r *       ; u *       ; u * .     * h * .     $ h ; .     $ h > X     + h 1 : S W m n b c c k i  . . . . . .",
" . . . .^ l k k k x V M 6 u r $       5 r $       1 r *       ; u *       * u ;       * u ; .     $ h ; .     # h ; X   . @ h 1 : D Q M l l l l j y  . . . . . .",
" . . . .E f i l l x B m 4 u r $       1 u *       > u *       ; u *       ; u ;       * u ; .     $ h ; .     $ h 1 X .   @ h 1 , V L l g n j j l s  . . . . . .",
" . . . .Y s i k k z n i 2 u r %       1 r $       1 r *       ; u *       * u * .     * u ; .     $ h ; .     # h > X     + h 1 : c D k g l f f j y  . . . . . .",
" . . . .k 0 4 6 q e i 4 2 u r %       1 r *       > r *       ; u *       ; h *       * h * .     $ h ; .     $ h > X     + h 1 , y f 0 4 0 4 4 0 6  . . . . . .",
" . . . .M B V M B C v e 4 u r $       5 u *       1 r *       ; u *       * u *       * h ; .     $ h ; X     # h 1 X   . @ h 1 , j V V V N M V x 0  . . . . . .",
" . . . ./ R ! ! ! Q L j 4 u r $       1 r $       1 u *       ; u *       * h * .     * u * .     $ h ; .     $ h ; X     @ h 1 3 A ^ Q Q Q Q Q H i  . . . . . .",
" . . . .! v C C V M v f 4 i r $       1 u *       > r *       ; u *       * u ; .     * u ; .     $ h ; .     # h 1 X     + h 1 , A I z B m m M z e  . . . . . .",
" . . . .^ v B B m m m g 2 u r $       1 r $       > u *       ; u ;       ; u *       * u - .     $ h ; .     $ h 1 X     + h 1 2 S T c c z m V x e  . . . . . .",
" . . . .! n n n m m m c 4 u r $       5 r $       1 u *       ; u *       ; h * .     * h ; .     $ h ; .     # h ; X   . @ h 1 , A R m m V V M c y  . . . . . .",
" . . . ./ v B m v c z x 4 u r *       1 u *       1 r *       ; u *       * u ;       * u ;       $ h ; .     $ h 1 X .   @ h 1 , A T n n C B n k y  . . . . . .",
" . . . .~ v C m x z x z 4 u r %       1 r $       > u *       ; u *       * h * .     * u ; .     $ h ; .     # h ; X     + h 1 : C U n c m n x f 0  . . . . . .",
" . . . .E x m v z z n z 4 u r $       1 r *       1 r *       ; u *       * h *       * h * .     $ h > .     $ h 1 X     + h 1 : C U c l x z l f q  . . . . . .",
" . . . .E g g x x z x k 2 u r $       5 u *       1 r *       ; u *       ; u * .     * u ; .     $ h ; X     $ h 1 X     @ h 1 , Z U x g c d f k y  . . . . . .",
" . . . .W k i g f k k y : r r $       1 r $       1 u *       > u *       * u ;       * u ; .     $ h ; X     @ h 1 X     @ h 1 , M H x f v f y i q  . . . . . .",
" . . . .j 0 0 0 6 6 7 , , i r $       1 r *       1 r *       > u * .     * u ; .     * h ; .     & h ; X     $ h 1 o     @ h 1 1 y i 6 6 q 6 6 4 4  . . . . . .",
" . . . .V Z Z Z A C M i 4 u r $       5 r *       1 r *   . . ; u ; .   . ; u ; . . X * u ; X . . * h ; X . X $ h > o . . $ h > 1 j C B C B C B l 2  . . . . . .",
" . . . .E I I I I U K c 7 i r $       1 r $ .     1 r * .   . ; u * X X . ; u * X X X ; h - O X X * h ; + X X * h > + X X $ h 1 1 C E K J H J L V 4  . . . . . .",
" . . . .I x g g z x l l 6 u r $       1 u *     . 1 u * . . . 1 u * X X X > h ; + o o ; d - + o o ; h ; + o + * h > @ o + * h 1 1 C J g g k g k g 2  . . . . . .",
" . . . .L k f f k z k k 6 u r $   .   5 r * .   X 1 u * X X o 1 u ; o o + 1 u ; @ + + > h ; @ @ @ ; h ; # + @ - h > $ @ + ; h 1 : C K g f g f j g <  . . . . . .",
" . . . .H s s i f g f f 6 h r $       1 r * . X X 1 u * X o o 5 u * @ @ @ 1 u ; % $ % 1 u - % $ & > h ; & $ $ > h > * $ $ 1 h 1 : m D f k k g s 0 ,  . . . . . .",
" . . . .S i i i i i i i 4 u r $ .   . 5 r * X X X 5 u * + + + 5 u - $ & & 5 u ; & & * 4 h ; * * * 2 h ; * * = 1 h 1 * * * > h 1 , m D f k j k i 6 :  . . . . . .",
" . . . .A 0 e q 0 e e i 2 u r * . . . 3 r * o O o 5 r - # # $ 5 u > * * * 9 u ; > - > 8 h - - ; - 5 h > - - - 4 h > - - > 3 h ; , m S i d d d y 4 ,  . . . . . .",
" . . . .Z 6 0 q 0 6 0 e < y r $ X X X 5 r * O @ + 5 u * & & * 9 u ; ; > > 9 h ; > > 3 9 h - > , > 9 h ; > , 3 8 h ; 1 , 3 8 h 1 2 m C q 7 q q 6 4 :  . . . . . .",
" . . . .Z 4 < 0 4 2 0 0 : u r $ X X o 5 u = # # $ 9 u ; * - > t u ; 3 3 3 y u ; 8 8 3 r h > 3 4 4 t h ; 3 4 3 w h > 3 3 3 w h 1 : x m 6 : 4 6 6 2 -  . . . . . .",
" . . . .C , : < < < 4 < : t r * o o + 9 r = & & * r r ; > , 3 t u ; 4 8 8 u a > 8 9 9 y a ; 8 8 9 t h ; 8 8 9 t h > 8 9 9 t h ; : z n 7 : 2 < < , =  . . . . . .",
" . . . .6 : : < < < < , : u r * + + @ 9 r ; & - - r u - 3 3 8 u u > w w t a a ; w t t u h ; w w w u h ; w t t a h ; w t t h h 1 : 6 7 2 : 2 : : : =  . . . . . .",
" . . . .2 < , , < < 2 < < u r * @ # % 9 u - - > , r u > 0 w w a u ; y p p d u > p p p d h ; t p p d h ; t p p a h 1 t p p a j 1 2 < , , : , : < , :  . . . . . .",
" . . . .6 2 , , 2 2 2 2 , u r = # % & r r ; > 1 3 r u , w w p d u , d d d h h > p p d h h > u s d f h ; p d d f h ; u d d d h 1 , 2 , , : : : , ,  . . . . . . .",
" . . . . . . . . . . . . . . . . . . . . . . . . . . . . . . . . . . . . . . . . . . . . . . . . . . . . . . . . . . . . . . . . . . . . . . . . . . . . . . . .",
" . . . . . . . . . . . . . . . . . . . . . . . . . . . . . . . . . .l c x c c f j Z F F  . . . . . . . . . . . . . . . . . . . . . . . . . . . . . . . . . . . ."
};
