/* XPM */
static char *result[] = {
/* columns rows colors chars-per-pixel */
"79 80 93 2 ",
"   c #010100",
".  c #070807",
"X  c #080907",
"o  c #0C0C0B",
"O  c #100F0D",
"+  c #0F100D",
"@  c #11110E",
"#  c #141412",
"$  c #171815",
"%  c #191916",
"&  c #1B1B1A",
"*  c #1F201C",
"=  c #21211D",
"-  c #242422",
";  c #282723",
":  c #272822",
">  c #2B2A25",
",  c #2E2E2C",
"<  c #302C27",
"1  c #312F2A",
"2  c #2F302A",
"3  c #34332D",
"4  c #363635",
"5  c #383631",
"6  c #363830",
"7  c #3C3B34",
"8  c #3C3C3C",
"9  c #403E37",
"0  c #413F39",
"q  c #3F4037",
"w  c #3F4138",
"e  c #414037",
"r  c #44433B",
"t  c #48473E",
"y  c #47493F",
"u  c #4A483F",
"i  c #424242",
"p  c #4B4B42",
"a  c #514E45",
"s  c #4F5146",
"d  c #4F5348",
"f  c #525146",
"g  c #545449",
"h  c #59574C",
"j  c #5B594E",
"k  c #5E5C51",
"l  c #605E53",
"z  c #646256",
"x  c #676558",
"c  c #69675A",
"v  c #6C6A5D",
"b  c #706E5F",
"n  c #6F6D60",
"m  c #716F60",
"M  c #747263",
"N  c #787667",
"B  c #7A7867",
"V  c #797768",
"C  c #7C7A6A",
"Z  c #817E6E",
"A  c #82806F",
"S  c #858372",
"D  c #898675",
"F  c #8B8976",
"G  c #8E8C79",
"H  c #918F7C",
"J  c #93917E",
"K  c #969480",
"L  c #989682",
"P  c #9C9A85",
"I  c #9F9D88",
"U  c #A19E89",
"Y  c #A4A28C",
"T  c #A8A68F",
"R  c #A9A790",
"E  c #ADAB93",
"W  c #B0AF97",
"Q  c #B1AF98",
"!  c #B4B29A",
"~  c #B8B69E",
"^  c #BEBCA2",
"/  c #C0BFA4",
"(  c #C3C1A6",
")  c #C6C5A9",
"_  c #C9C6AB",
"`  c #CBCAAE",
"'  c #CECCB0",
"]  c #D1CFB3",
"[  c #D4D3B5",
"{  c #D8D7B8",
"}  c #DBDABC",
"|  c #E1E0C1",
" . c None",
/* pixels */
" . . . . . . . . . . . . . . . . . . . . . . . . . . . . . . . . . . .C K I U Y U H D K Y U D  . . . . . . . . . . . . . . . . . . . . . . . . . . . . . . . .",
" . . . . . . . . . . . . . . . . . . . . . . . . . . . . . . . .h x M K Q ) ' [ _ ^ R Y R R K K P J B  . . . . . . . . . . . . . . . . . . . . . . . . . . . .",
" . . . . . . . . . . . . . . . . . . . . . . . . . . . .0 0 a v m K ~ Q K Z D G D B M m x B Q _ ) R v 7 t  . . . . . . . . . . . . . . . . . . . . . . . . . .",
" . . . . . . . . . . . . . . . . . . . . . . . . . .M x m v a m Y K S Z B B B C B m m m x n M Z Z D I r Q } | W p  . . . . . . . . . . . . . . . . . . . . . .",
" . . . . . . . . . . . . . . . . . . . . . . . .p g N Y / E v a C S C C V B N B Z m m m b c c b m m m H ] ^ R R T ) c  . . . . . . . . . . . . . . . . . . . .",
" . . . . . . . . . . . . . . . . . . . . . .g j b J T W W E D t x C C C C B n N B M m m b b c x z h h ~ ! H S H P I F M  . . . . . . . . . . . . . . . . . . .",
" . . . . . . . . . . . . . . . . . . . . .h M F I R Q L D H G v z m M B B N m N B M b b c v c l h h B / H Z B C C Z H G N  . . . . . . . . . . . . . . . . . .",
" . . . . . . . . . . . . . . . . . . . .t l K ^ E D F Z C Z Z Y l g z n M M N M N M c c c z l h p l Q R Z m N B N C C D B h  . . . . . . . . . . . . . . . . .",
" . . . . . . . . . . . . . . . . . .l x l h G Q G V B m M B Z ! v 0 p l n v v v x c z l l l j r 7 c ! N M m N C C N M z h z C  . . . . . . . . . . . . . . . .",
" . . . . . . . . . . . . . . . . .m G W K k v F C C N n M C C G K k p h l f i t r t u r u l h r t N ! b N b m C B N C h p N Y G  . . . . . . . . . . . . . . .",
" . . . . . . . . . . . . . . . .v G ^ ' L v j v C Z B m m N m m Y m r p p , & > 1 1 ; % > u i 4 p A ! C Z m v M N M x h v K R T D  . . . . . . . . . . . . . .",
" . . . . . . . . . . . . . . .x Z I W E Z m g g M Z M m n v z h B k 0 1 - O . = 4 , # . O ; 5 4 r c F Z C b v v M c p c H P H U I A  . . . . . . . . . . . . .",
" . . . . . . . . . . . . . .l C L L D S B m h a x N m v l j f 5 5 0 8 > @     = i , @     & 4 4 , 3 u c x c v v M k k D K S C S P J C  . . . . . . . . . . . .",
" . . . . . . . . . . . . .h C K K S N B M m c h p n z z g 0 1 # o 4 8 > o     - i , @     @ i 4 % O $ 9 r h x x c f F K S N M C S J H N  . . . . . . . . . . .",
" . . . . . . . . . . . .p M L J Z N N N m m m l 0 l p p 8 ; #     , i > o     = i , @     # i 4 #     $ 4 p t p z c R L C M N C B Z H H C  . . . . . . . . . .",
" . . . . . . . . . . .p c U E D N M m M M m m l h t = 5 4 = .     , i - o     - i , O     # i 8 $       8 8 ; : p N G D M m M N N M C J H v  . . . . . . . . .",
" . . . . . . . . . . .t M I L Z m M M M M b x l g = . 4 4 = .     , i > o     = i , @   . # i 4 #       i i & o > d v n n n v m M m v C I Z 7  . . . . . . . .",
" . . . . . . . . . .h t a z c c v v b b b c k t - .   8 8 =       , i - o     - i , @     # i 4 #     . i 8 & . o ; p l c v v v n v z M F M 8  . . . . . . . .",
" . . . . . . . . .M G v p p h l x x c b v l t ; X     8 i *       , i > o     - i , @     # i 4 #       i i &     o , p l c c v v l l l v k f f  . . . . . . .",
" . . . . . . . . .N Y I M h p g k l k z l a 5 %       8 i - .   . , i - o     = i , @     # i 4 #       i 8 & .     > i g l z x l h l M F K Z z  . . . . . . .",
" . . . . . . . . .B T R I A l j g a g h a i 3 &       8 i =       , i , o     = i , # .   # i 8 #       p 8 &       4 8 0 p j k h z D U Y U U F c  . . . . . .",
" . . . . . . . .v D L D J Y I G z t p i 1 8 4 &       8 i - .     , i - o     - i , O     # i 8 $       i 8 & .     8 8 , 1 0 a l F Q Q H M F W v  . . . . . .",
" . . . . . . .h F U S m v H ^ / J j 3 ; # 8 8 &       8 i & .     4 i - o     - i , o     # i 4 #     . s 8 &       8 8 = # ; 5 Z R H C C C F R c  . . . . . .",
" . . . . . . .j D P S M v M B H U M - . o 8 8 &       8 i -       , i - o     - i , #     # i 4 #       i i & .     8 8 - X X ; g N V N B C H E A  . . . . . .",
" . . . . . . .E Y G C M m m N Z Z h &   o 8 8 &       8 i -       , i - o     - i , #     # i 4 #       i 8 &       8 8 - . . & u c B B B B B L T Z  . . . . .",
" . . . . . . .! Q H C N m N C N h < O   o 8 8 &       8 8 - .   . , i - o     - i , o .   # i 8 &     . i 8 & .     8 8 = .   @ < h b B N m m D ! D g  . . . .",
" . . . . . .h U E J Z M m m N v u %     o 8 8 &       8 i = .     , i - o     - i , @     # i 4 #     . s 8 &       8 8 - .     % r z M m c v Z U J C  . . . .",
" . . . . . .p G L S B v z x v x r %     o 8 8 &       8 i -       , i , o     - i , @     # i 8 #   . . i 8 & .     8 8 = X     % 0 l c z l l b Z T J p  . . .",
" . . . . . .7 k b M m c l x x h 9 %     o 8 8 &       8 i =       , i - .     - i , #     # i 8 #       p 8 &       8 8 - .     % 0 j c l l l c B L D 9  . . .",
" . . . . . .W M t 9 t g h j l t 1 $     + 8 8 &       8 i = .     , i , o     = i , o     @ i 4 #     . i 8 & .     8 8 = .     = 4 i a g a a u a b b 9  . . .",
" . . . . .G K L J M u 7 7 r r 7 > #     + 8 8 &       8 i = .     , i - o     - i , @     # i 4 #       i i & .     8 8 - .     ; i 7 7 0 a B U Y E H h 7  . .",
" . . . . .Y S H P H C N k r 7 3 > #     o 8 8 &       8 i &     . , 8 > o     = i , @     # i 8 $     . i 8 &       8 i = .     > i 3 9 x D U Q W Y H l u  . .",
" . . . . .^ D C Z H U U F l 4 4 , #     o 8 8 &       8 i =       , i - .     - i , #     # i 4 #       i i & .     8 8 = .     > i 4 i S E U F D S Z c g  . .",
" . . . . .) D M Z Z D D K V 0 0 , #     o 8 8 &       8 i = .   . , i , o     - i , o .   # i 8 #     . i 8 & .     8 i = .     > i 4 r Z U Z B M B B v g  . .",
" . . . . ._ D b m V V m m h 8 i 4 #     o 8 8 &       8 i = .     , i - o     - i , @     # i 4 #       i i & .     8 8 - .     > i 4 i Z J m M M N M c g  . .",
" . . . . .) S m m Z C m c g i p 4 #     o 8 8 &       8 8 -       , i > o     - i , @     # i 8 #     . i 8 &       8 8 - .     , i 4 i S L m M B N M v g  . .",
" . . . . .[ H m N Z V m m j i p 4 #     o 8 8 &       8 i -       , 8 , .     - i , #     # i 8 $       p 8 & .     8 i - .     > i 4 p D L c v N M m v f  . .",
" . . . . .{ G b m m m n m h i p 4 #     + 8 8 &       8 8 = .     , i - o     = i , o     # i 4 #       i 8 &       4 8 = .     > i 4 p D I c z m m v l f  . .",
" . . . . .] Z l c l l c v g i p 4 #     o 8 8 &       8 i - .     , 8 > o     - 8 , +     # i 4 #     . s 8 & .     8 i - o     , i 6 p F U n c m v l h p  . .",
" . . . . ./ Z l l c l l l a 0 0 , #     o 4 4 #       4 4 &       , 8 - .     & 8 > +     + 8 , #       i 4 # .     , 4 & .     - 8 , t S P n v m x h h r  . .",
" . . . . .! M g l x k k h r 3 - # o     . $ $ o       # & o       # & @       o & # .     . & # X       & & X       $ & o       # & & 9 C G z z v j a p t  . .",
" . . . . .C h p f g u u r 5 = o                                                                                                     o < h l a p a r 9 r r  . .",
" . . . . .c c b b v c z g 9 = o                                                                                                     O > f c v c z z x k 7  . .",
" . . . . .~ T E R R R Y Z a > o                                                                                                     o 7 Z E E R U U Y H f  . .",
" . . . . .' I G H J L G M a > o                                                                                                     o 9 G E H H F G H S h  . .",
" . . . . .` G M m M B m c g > X                                                                                                     o 9 D L v m M N B b k  . .",
" . . . . .) G M b b b b c g > o                                                                                                     o 9 F L c v M B N v h  . .",
" . . . . .^ S b m m b c z g > X                                                                                                     o q G Y M M N M N v h  . .",
" . . . . ./ C c b v x l c h > o                                                                                                     o 0 G Y M M m m v x g  . .",
" . . . . ._ Z x z l x b M j > o                                                                                                     X 7 G R M v z c x j p  . .",
" . . . . ./ B h j x x m M j > o                                                                                                     o 7 S P c l x z l l a  . .",
" . . . . .~ m g j z l v c a = o                                                                                                     o 7 N S k k z h h l g  . .",
" . . . . .D j u u a h j a 9 = o                                                                                                     o < j c f p a u p a r  . .",
" . . . . .p p p u u u u r 9 = o                                                                                                     o > t a u t t t u r 7  . .",
" . . . . ./ ^ / _ ) ) ~ S a < o                                                                                                     o 9 G ( ` ) ) ) / I a  . .",
" . . . . .( K G J J H S b u = o                                                                                                     o 9 F Y S F D F F M a  . .",
" . . . . .) D N Z B B M c p ; O                                                                                                     o 9 D I n m n M B c u  . .",
" . . . . .) D N M M M M v a ; X                                                                                                     O 9 D I m m M N N v p  . .",
" . . . . ._ D M b M b b v h > o                                                                                                     o 7 F U m N C C m x p  . .",
" . . . . ._ D B B b v z l f > X                                                                                                     o 7 S I b m C M v k t  . .",
" . . . . ./ S B M v l v b g ; o                                                                                                     o 7 S L b x v v x h r  . .",
" . . . . .~ B c v v v v v a > X                                                                                                     o 7 S L v x x k j h p  . .",
" . . . . ./ M l l l l l j 9 ; X                                                                                                     o 5 Z J x l x h g h u  . .",
" . . . . .U l a a a a a u 9 ; X                                                                                                     o 3 x M h f h a r t r  . .",
" . . . . .m z j j j h j u 9 > o                         .           .           X   .     .     .     X     X     .   .   . .   .   @ 3 g z j h k j a u 7  . .",
" . . . . .H H G H H H F b u = o                           .   .       . . .   . X X X . X X o X X o X X o X X X X X X X X X X X X X @ 7 b H D D D D D b 7  . .",
" . . . . .W K S D F G D B h < X                 .   .     . . . X X X X o X o o X o o + o o + o o + + + + + + + + + + + o + + + + o % e D U Z Z Z D Z m 5  . .",
" . . . . .T B l j l x z z u < o       .     .   .   . . . . X X X X o + o o + + @ # @ + @ # @ # @ # @ @ @ @ # @ # @ @ @ @ # @ @ @ # % r Z D k h h l l h 5  . .",
" . . . . .U b h h j z l k a < o         . . . . . . X X X o o O + + + + @ # # # $ $ $ $ % $ % % % % % % $ % % % % % % % % % % $ % % = r B D h j j h h f 5  . .",
" . . . . .P z g f g h h g t < O   . .     . . X . o o O O O O O + $ $ $ * $ * * & & * = * * = = = * * * * = = * * * * = = * * * = = = 9 N Z h l l h h r 3  . .",
" . . . . .H l a u u u a a r < O     . . . X X X X O O O # # # $ $ * * * * * * : = = : : : : : : : : : : : : : : : - - : : : = : ; ; > r M Z h h l h p 9 1  . .",
" . . . . .G h t u u r u u 9 ; O . . . X X o O O O O @ $ % % & * * * * - : : > > 2 2 2 > > , > > , > > , > , 2 > 2 > 2 2 > 2 2 2 < > 1 i M C a a a a u 7 3  . .",
" . . . . .H g 9 r r 9 9 r 9 = O X X X o + + + + # $ % % * = = : : : 2 2 2 2 2 2 3 3 3 3 3 3 3 3 3 3 3 3 2 3 3 2 3 2 3 3 2 3 3 2 3 6 3 u b M e 9 r r 9 9 <  . .",
" . . . . .D a 7 9 9 7 7 9 5 = # X X + + + + $ $ % & = = = : : 2 2 2 3 6 6 6 6 q q 6 q q q 6 q q 7 7 7 q q q q q q q q q q q q q 7 7 7 y v v 7 3 7 7 9 3 >  . .",
" . . . . .Z u 1 3 5 3 7 9 1 = O o + + @ $ $ * * = = ; : > 2 3 3 6 7 q q q w w w w w w r w r r r r w w r r r r w r r w w r r r w r r q r l l 9 3 5 5 3 1 ;  . .",
" . . . . .r 7 1 3 3 5 5 5 3 > $ + + $ $ % % * = ; > > 3 3 6 6 q w w w w r p p p y y s y y y y y y p y p y y y s y y y y y y y s y p r 7 9 9 3 3 5 3 3 < ;  . .",
" . . . . .5 3 3 3 5 5 5 5 3 < % # # % * * = : > 2 3 3 6 q q w r y p p s s f g s d d d f s s s s s s d s s g s s d f s s s s s s s s p 7 6 3 3 1 3 1 3 3 <  . .",
" . . . . . .7 5 3 3 5 9 5 5 > & $ $ % * - : : 2 2 3 6 q q w r p p s d d g d d g g g g g h h g g g g g g d d g g d d g h h d g g g g p w 3 3 1 1 1 1 3 3  . . .",
" . . . . . . . . . . . . . . . . . . . . . . . . . . . . . . . . . . . . . . . . . . . . . . . . . . . . . . . . . . . . . . . . . . . . . . . . . . . . . . .",
" . . . . . . . . . . . . . . . . . . . . . . . . . . . . . . . . . . . .z c v v c l l B H F  . . . . . . . . . . . . . . . . . . . . . . . . . . . . . . . . ."
};
